%TF.GenerationSoftware,KiCad,Pcbnew,(5.1.7)-1*%
%TF.CreationDate,2021-07-10T18:44:26+02:00*%
%TF.ProjectId,p_ytka_podno_nik,70427974-6b61-45f7-906f-646e6f5b6e69,rev?*%
%TF.SameCoordinates,Original*%
%TF.FileFunction,Other,User*%
%FSLAX46Y46*%
G04 Gerber Fmt 4.6, Leading zero omitted, Abs format (unit mm)*
G04 Created by KiCad (PCBNEW (5.1.7)-1) date 2021-07-10 18:44:26*
%MOMM*%
%LPD*%
G01*
G04 APERTURE LIST*
%ADD10C,0.050000*%
G04 APERTURE END LIST*
D10*
%TO.C,REF\u002A\u002A*%
X160295000Y-60325000D02*
G75*
G03*
X160295000Y-60325000I-3450000J0D01*
G01*
X170455000Y-117475000D02*
G75*
G03*
X170455000Y-117475000I-3450000J0D01*
G01*
X114575000Y-116840000D02*
G75*
G03*
X114575000Y-116840000I-3450000J0D01*
G01*
%TO.C,J3*%
X144250000Y-120770000D02*
X133060000Y-120770000D01*
X144250000Y-120770000D02*
X144250000Y-107830000D01*
X133060000Y-107830000D02*
X133060000Y-120770000D01*
X133060000Y-107830000D02*
X144250000Y-107830000D01*
%TO.C,J1*%
X174110000Y-75460000D02*
X174110000Y-86650000D01*
X174110000Y-75460000D02*
X161170000Y-75460000D01*
X161170000Y-86650000D02*
X174110000Y-86650000D01*
X161170000Y-86650000D02*
X161170000Y-75460000D01*
%TO.C,J7*%
X174110000Y-88160000D02*
X174110000Y-99350000D01*
X174110000Y-88160000D02*
X161170000Y-88160000D01*
X161170000Y-99350000D02*
X174110000Y-99350000D01*
X161170000Y-99350000D02*
X161170000Y-88160000D01*
%TO.C,J6*%
X161170000Y-73950000D02*
X161170000Y-62760000D01*
X161170000Y-73950000D02*
X174110000Y-73950000D01*
X174110000Y-62760000D02*
X161170000Y-62760000D01*
X174110000Y-62760000D02*
X174110000Y-73950000D01*
%TO.C,J5*%
X158220000Y-120770000D02*
X147030000Y-120770000D01*
X158220000Y-120770000D02*
X158220000Y-107830000D01*
X147030000Y-107830000D02*
X147030000Y-120770000D01*
X147030000Y-107830000D02*
X158220000Y-107830000D01*
%TO.C,J4*%
X130280000Y-120770000D02*
X119090000Y-120770000D01*
X130280000Y-120770000D02*
X130280000Y-107830000D01*
X119090000Y-107830000D02*
X119090000Y-120770000D01*
X119090000Y-107830000D02*
X130280000Y-107830000D01*
%TO.C,J2*%
X174110000Y-100860000D02*
X174110000Y-112050000D01*
X174110000Y-100860000D02*
X161170000Y-100860000D01*
X161170000Y-112050000D02*
X174110000Y-112050000D01*
X161170000Y-112050000D02*
X161170000Y-100860000D01*
%TD*%
M02*
