%TF.GenerationSoftware,KiCad,Pcbnew,(5.1.7)-1*%
%TF.CreationDate,2021-07-10T18:44:26+02:00*%
%TF.ProjectId,p_ytka_podno_nik,70427974-6b61-45f7-906f-646e6f5b6e69,rev?*%
%TF.SameCoordinates,Original*%
%TF.FileFunction,Copper,L1,Top*%
%TF.FilePolarity,Positive*%
%FSLAX46Y46*%
G04 Gerber Fmt 4.6, Leading zero omitted, Abs format (unit mm)*
G04 Created by KiCad (PCBNEW (5.1.7)-1) date 2021-07-10 18:44:26*
%MOMM*%
%LPD*%
G01*
G04 APERTURE LIST*
%TA.AperFunction,ComponentPad*%
%ADD10C,1.524000*%
%TD*%
%TA.AperFunction,ComponentPad*%
%ADD11O,1.980000X3.960000*%
%TD*%
%TA.AperFunction,ComponentPad*%
%ADD12R,1.980000X3.960000*%
%TD*%
%TA.AperFunction,ComponentPad*%
%ADD13O,3.960000X1.980000*%
%TD*%
%TA.AperFunction,ComponentPad*%
%ADD14R,3.960000X1.980000*%
%TD*%
%TA.AperFunction,Conductor*%
%ADD15C,0.250000*%
%TD*%
%TA.AperFunction,Conductor*%
%ADD16C,0.254000*%
%TD*%
%TA.AperFunction,Conductor*%
%ADD17C,0.100000*%
%TD*%
G04 APERTURE END LIST*
D10*
%TO.P,K5,8*%
%TO.N,Net-(K5-Pad8)*%
X152400000Y-86360000D03*
%TO.P,K5,9*%
%TO.N,Net-(K1-Pad1)*%
X152400000Y-78740000D03*
%TO.P,K5,6*%
%TO.N,Net-(K2-Pad8)*%
X147320000Y-86360000D03*
%TO.P,K5,11*%
%TO.N,+5V*%
X147320000Y-78740000D03*
%TO.P,K5,4*%
%TO.N,Net-(K2-Pad1)*%
X142240000Y-86360000D03*
%TO.P,K5,13*%
%TO.N,Net-(K5-Pad13)*%
X142240000Y-78740000D03*
%TO.P,K5,1*%
%TO.N,GND*%
X134620000Y-86360000D03*
%TO.P,K5,16*%
%TO.N,Net-(J1-Pad1)*%
X134620000Y-78740000D03*
%TD*%
D11*
%TO.P,J3,2*%
%TO.N,Net-(J3-Pad2)*%
X140890000Y-114300000D03*
D12*
%TO.P,J3,1*%
%TO.N,Net-(J3-Pad1)*%
X135890000Y-114300000D03*
%TD*%
D13*
%TO.P,J1,2*%
%TO.N,+5V*%
X167640000Y-78820000D03*
D14*
%TO.P,J1,1*%
%TO.N,Net-(J1-Pad1)*%
X167640000Y-83820000D03*
%TD*%
D10*
%TO.P,K6,8*%
%TO.N,Net-(K6-Pad8)*%
X152400000Y-101600000D03*
%TO.P,K6,9*%
%TO.N,Net-(K2-Pad1)*%
X152400000Y-93980000D03*
%TO.P,K6,6*%
%TO.N,Net-(K1-Pad8)*%
X147320000Y-101600000D03*
%TO.P,K6,11*%
%TO.N,+5V*%
X147320000Y-93980000D03*
%TO.P,K6,4*%
%TO.N,Net-(K1-Pad1)*%
X142240000Y-101600000D03*
%TO.P,K6,13*%
%TO.N,Net-(K6-Pad13)*%
X142240000Y-93980000D03*
%TO.P,K6,1*%
%TO.N,Net-(J6-Pad2)*%
X134620000Y-101600000D03*
%TO.P,K6,16*%
%TO.N,Net-(J5-Pad1)*%
X134620000Y-93980000D03*
%TD*%
%TO.P,K4,8*%
%TO.N,Net-(K4-Pad8)*%
X127000000Y-101600000D03*
%TO.P,K4,9*%
%TO.N,Net-(J4-Pad2)*%
X127000000Y-93980000D03*
%TO.P,K4,6*%
%TO.N,Net-(K1-Pad16)*%
X121920000Y-101600000D03*
%TO.P,K4,11*%
%TO.N,Net-(J4-Pad1)*%
X121920000Y-93980000D03*
%TO.P,K4,4*%
%TO.N,Net-(J5-Pad1)*%
X116840000Y-101600000D03*
%TO.P,K4,13*%
%TO.N,Net-(K4-Pad13)*%
X116840000Y-93980000D03*
%TO.P,K4,1*%
%TO.N,Net-(K2-Pad1)*%
X109220000Y-101600000D03*
%TO.P,K4,16*%
%TO.N,Net-(K2-Pad16)*%
X109220000Y-93980000D03*
%TD*%
%TO.P,K3,8*%
%TO.N,Net-(J3-Pad1)*%
X152400000Y-72390000D03*
%TO.P,K3,9*%
%TO.N,Net-(K3-Pad9)*%
X152400000Y-64770000D03*
%TO.P,K3,6*%
%TO.N,Net-(J3-Pad2)*%
X147320000Y-72390000D03*
%TO.P,K3,11*%
%TO.N,Net-(K2-Pad16)*%
X147320000Y-64770000D03*
%TO.P,K3,4*%
%TO.N,Net-(K3-Pad4)*%
X142240000Y-72390000D03*
%TO.P,K3,13*%
%TO.N,Net-(J5-Pad1)*%
X142240000Y-64770000D03*
%TO.P,K3,1*%
%TO.N,Net-(K1-Pad1)*%
X134620000Y-72390000D03*
%TO.P,K3,16*%
%TO.N,Net-(K1-Pad16)*%
X134620000Y-64770000D03*
%TD*%
%TO.P,K2,8*%
%TO.N,Net-(K2-Pad8)*%
X127000000Y-86360000D03*
%TO.P,K2,9*%
%TO.N,Net-(K2-Pad9)*%
X127000000Y-78740000D03*
%TO.P,K2,6*%
%TO.N,+5V*%
X121920000Y-86360000D03*
%TO.P,K2,11*%
%TO.N,Net-(K2-Pad11)*%
X121920000Y-78740000D03*
%TO.P,K2,4*%
%TO.N,Net-(K2-Pad4)*%
X116840000Y-86360000D03*
%TO.P,K2,13*%
%TO.N,Net-(K2-Pad13)*%
X116840000Y-78740000D03*
%TO.P,K2,1*%
%TO.N,Net-(K2-Pad1)*%
X109220000Y-86360000D03*
%TO.P,K2,16*%
%TO.N,Net-(K2-Pad16)*%
X109220000Y-78740000D03*
%TD*%
%TO.P,K1,8*%
%TO.N,Net-(K1-Pad8)*%
X127000000Y-72390000D03*
%TO.P,K1,9*%
%TO.N,Net-(K1-Pad9)*%
X127000000Y-64770000D03*
%TO.P,K1,6*%
%TO.N,+5V*%
X121920000Y-72390000D03*
%TO.P,K1,11*%
%TO.N,Net-(K1-Pad11)*%
X121920000Y-64770000D03*
%TO.P,K1,4*%
%TO.N,Net-(K1-Pad4)*%
X116840000Y-72390000D03*
%TO.P,K1,13*%
%TO.N,Net-(K1-Pad13)*%
X116840000Y-64770000D03*
%TO.P,K1,1*%
%TO.N,Net-(K1-Pad1)*%
X109220000Y-72390000D03*
%TO.P,K1,16*%
%TO.N,Net-(K1-Pad16)*%
X109220000Y-64770000D03*
%TD*%
D13*
%TO.P,J7,2*%
%TO.N,Net-(J6-Pad2)*%
X167640000Y-91520000D03*
D14*
%TO.P,J7,1*%
%TO.N,+5V*%
X167640000Y-96520000D03*
%TD*%
%TO.P,J6,1*%
%TO.N,+5V*%
X167640000Y-71120000D03*
D13*
%TO.P,J6,2*%
%TO.N,Net-(J6-Pad2)*%
X167640000Y-66120000D03*
%TD*%
D11*
%TO.P,J5,2*%
%TO.N,GND*%
X154860000Y-114300000D03*
D12*
%TO.P,J5,1*%
%TO.N,Net-(J5-Pad1)*%
X149860000Y-114300000D03*
%TD*%
D11*
%TO.P,J4,2*%
%TO.N,Net-(J4-Pad2)*%
X126920000Y-114300000D03*
D12*
%TO.P,J4,1*%
%TO.N,Net-(J4-Pad1)*%
X121920000Y-114300000D03*
%TD*%
D13*
%TO.P,J2,2*%
%TO.N,+5V*%
X167640000Y-104220000D03*
D14*
%TO.P,J2,1*%
%TO.N,Net-(J1-Pad1)*%
X167640000Y-109220000D03*
%TD*%
D15*
%TO.N,+5V*%
X167640000Y-71120000D02*
X167640000Y-78820000D01*
X165334990Y-81125010D02*
X165254990Y-81125010D01*
X165254990Y-81125010D02*
X164465000Y-81915000D01*
X164465000Y-81915000D02*
X164465000Y-93345000D01*
X164465000Y-93345000D02*
X167640000Y-96520000D01*
X167640000Y-78820000D02*
X165334990Y-81125010D01*
X167640000Y-104220000D02*
X167640000Y-96520000D01*
X121920000Y-72390000D02*
X120650000Y-72390000D01*
X120650000Y-72390000D02*
X120015000Y-73025000D01*
X120015000Y-84455000D02*
X121920000Y-86360000D01*
X120015000Y-73025000D02*
X120015000Y-84455000D01*
X167005000Y-70485000D02*
X167640000Y-71120000D01*
X150495000Y-70485000D02*
X167005000Y-70485000D01*
X149225000Y-71755000D02*
X150495000Y-70485000D01*
X149225000Y-76835000D02*
X149225000Y-71755000D01*
X147320000Y-78740000D02*
X149225000Y-76835000D01*
X145415000Y-76835000D02*
X147320000Y-78740000D01*
X136525000Y-76835000D02*
X145415000Y-76835000D01*
X130810000Y-71120000D02*
X136525000Y-76835000D01*
X123190000Y-71120000D02*
X130810000Y-71120000D01*
X121920000Y-72390000D02*
X123190000Y-71120000D01*
X149225000Y-95885000D02*
X147320000Y-93980000D01*
X151130000Y-97790000D02*
X149225000Y-95885000D01*
X160020000Y-97790000D02*
X151130000Y-97790000D01*
X164465000Y-93345000D02*
X160020000Y-97790000D01*
%TO.N,Net-(J1-Pad1)*%
X165100000Y-92944990D02*
X165100000Y-86125010D01*
X168655002Y-93980000D02*
X166135010Y-93980000D01*
X166135010Y-93980000D02*
X165100000Y-92944990D01*
X170815000Y-96139998D02*
X168655002Y-93980000D01*
X170815000Y-106045000D02*
X170815000Y-96139998D01*
X167640000Y-109220000D02*
X170815000Y-106045000D01*
X167405010Y-83820000D02*
X165100000Y-86125010D01*
X167640000Y-83820000D02*
X167405010Y-83820000D01*
%TO.N,Net-(J4-Pad2)*%
X125912999Y-95067001D02*
X127000000Y-93980000D01*
X126920000Y-114300000D02*
X125912999Y-113292999D01*
X126920000Y-114300000D02*
X126920000Y-104060000D01*
X126920000Y-104060000D02*
X125095000Y-102235000D01*
X125095000Y-95885000D02*
X125912999Y-95067001D01*
X125095000Y-102235000D02*
X125095000Y-95885000D01*
%TO.N,Net-(J4-Pad1)*%
X123007001Y-95067001D02*
X121920000Y-93980000D01*
X123825000Y-95885000D02*
X123007001Y-95067001D01*
X123825000Y-102235000D02*
X123825000Y-95885000D01*
X121920000Y-104140000D02*
X123825000Y-102235000D01*
X121920000Y-114300000D02*
X121920000Y-104140000D01*
%TO.N,GND*%
X153035000Y-106045000D02*
X154860000Y-107870000D01*
X154860000Y-107870000D02*
X154860000Y-114300000D01*
X140335000Y-106045000D02*
X153035000Y-106045000D01*
X137795000Y-103505000D02*
X140335000Y-106045000D01*
X137795000Y-89535000D02*
X137795000Y-103505000D01*
X134620000Y-86360000D02*
X137795000Y-89535000D01*
%TO.N,Net-(J5-Pad1)*%
X120015000Y-92075000D02*
X132715000Y-92075000D01*
X132715000Y-92075000D02*
X134620000Y-93980000D01*
X119380000Y-92710000D02*
X120015000Y-92075000D01*
X119380000Y-94911238D02*
X119380000Y-92710000D01*
X116840000Y-97451238D02*
X119380000Y-94911238D01*
X116840000Y-101600000D02*
X116840000Y-97451238D01*
X136525000Y-95885000D02*
X134620000Y-93980000D01*
X136525000Y-105410000D02*
X136525000Y-95885000D01*
X133350000Y-108585000D02*
X136525000Y-105410000D01*
X133350000Y-118110000D02*
X133350000Y-108585000D01*
X134620000Y-119380000D02*
X133350000Y-118110000D01*
X144780000Y-119380000D02*
X134620000Y-119380000D01*
X149860000Y-114300000D02*
X144780000Y-119380000D01*
%TO.N,Net-(J6-Pad2)*%
X167640000Y-66120000D02*
X171370000Y-66120000D01*
X171370000Y-66120000D02*
X172085000Y-66835000D01*
X172085000Y-66835000D02*
X172085000Y-89535000D01*
X170100000Y-91520000D02*
X167640000Y-91520000D01*
X172085000Y-89535000D02*
X170100000Y-91520000D01*
X170100000Y-91995000D02*
X170100000Y-91520000D01*
X172085000Y-93980000D02*
X170100000Y-91995000D01*
X172085000Y-120015000D02*
X172085000Y-93980000D01*
X170815000Y-121285000D02*
X172085000Y-120015000D01*
X132080000Y-120015000D02*
X133350000Y-121285000D01*
X133350000Y-121285000D02*
X170815000Y-121285000D01*
X132080000Y-104140000D02*
X132080000Y-120015000D01*
X134620000Y-101600000D02*
X132080000Y-104140000D01*
%TO.N,Net-(K1-Pad1)*%
X109220000Y-72390000D02*
X111760000Y-69850000D01*
X132080000Y-69850000D02*
X134620000Y-72390000D01*
X111760000Y-69850000D02*
X132080000Y-69850000D01*
X151765000Y-95885000D02*
X153035000Y-95885000D01*
X147955000Y-92075000D02*
X151765000Y-95885000D01*
X146050000Y-92075000D02*
X147955000Y-92075000D01*
X154305000Y-80645000D02*
X152400000Y-78740000D01*
X144780000Y-93345000D02*
X146050000Y-92075000D01*
X154305000Y-94615000D02*
X154305000Y-80645000D01*
X144780000Y-99060000D02*
X144780000Y-93345000D01*
X153035000Y-95885000D02*
X154305000Y-94615000D01*
X142240000Y-101600000D02*
X144780000Y-99060000D01*
%TO.N,Net-(K1-Pad16)*%
X111125000Y-62865000D02*
X110307001Y-63682999D01*
X110307001Y-63682999D02*
X109220000Y-64770000D01*
X132715000Y-62865000D02*
X111125000Y-62865000D01*
X134620000Y-64770000D02*
X132715000Y-62865000D01*
%TO.N,Net-(K2-Pad8)*%
X142875000Y-81915000D02*
X147320000Y-86360000D01*
X131445000Y-81915000D02*
X142875000Y-81915000D01*
X127000000Y-86360000D02*
X131445000Y-81915000D01*
%TO.N,Net-(K2-Pad1)*%
X110490000Y-86360000D02*
X109220000Y-86360000D01*
X111760000Y-100330000D02*
X111760000Y-87630000D01*
X110490000Y-101600000D02*
X111760000Y-100330000D01*
X111760000Y-87630000D02*
X110490000Y-86360000D01*
X109220000Y-101600000D02*
X110490000Y-101600000D01*
X142240000Y-86360000D02*
X144145000Y-86360000D01*
X151765000Y-93980000D02*
X152400000Y-93980000D01*
X144145000Y-86360000D02*
X151765000Y-93980000D01*
X111760000Y-87630000D02*
X114300000Y-87630000D01*
X114300000Y-87630000D02*
X114935000Y-88265000D01*
X114935000Y-88265000D02*
X128270000Y-88265000D01*
X128270000Y-88265000D02*
X132080000Y-84455000D01*
X140335000Y-84455000D02*
X142240000Y-86360000D01*
X132080000Y-84455000D02*
X140335000Y-84455000D01*
%TO.N,Net-(K2-Pad16)*%
X109220000Y-93980000D02*
X107950000Y-93980000D01*
X107950000Y-93980000D02*
X106680000Y-92710000D01*
X106680000Y-92710000D02*
X106680000Y-91440000D01*
X106680000Y-92075000D02*
X106680000Y-91440000D01*
X107950000Y-78740000D02*
X109220000Y-78740000D01*
X106680000Y-80010000D02*
X107950000Y-78740000D01*
X106680000Y-91440000D02*
X106680000Y-80010000D01*
X106680000Y-77470000D02*
X107950000Y-78740000D01*
X106680000Y-64770000D02*
X106680000Y-77470000D01*
X109035009Y-62414991D02*
X106680000Y-64770000D01*
X144964991Y-62414991D02*
X109035009Y-62414991D01*
X147320000Y-64770000D02*
X144964991Y-62414991D01*
%TD*%
D16*
%TO.N,GND*%
X177038000Y-123063000D02*
X105537000Y-123063000D01*
X105537000Y-116619872D01*
X108890000Y-116619872D01*
X108890000Y-117060128D01*
X108975890Y-117491925D01*
X109144369Y-117898669D01*
X109388962Y-118264729D01*
X109700271Y-118576038D01*
X110066331Y-118820631D01*
X110473075Y-118989110D01*
X110904872Y-119075000D01*
X111345128Y-119075000D01*
X111776925Y-118989110D01*
X112183669Y-118820631D01*
X112549729Y-118576038D01*
X112861038Y-118264729D01*
X113105631Y-117898669D01*
X113274110Y-117491925D01*
X113360000Y-117060128D01*
X113360000Y-116619872D01*
X113274110Y-116188075D01*
X113105631Y-115781331D01*
X112861038Y-115415271D01*
X112549729Y-115103962D01*
X112183669Y-114859369D01*
X111776925Y-114690890D01*
X111345128Y-114605000D01*
X110904872Y-114605000D01*
X110473075Y-114690890D01*
X110066331Y-114859369D01*
X109700271Y-115103962D01*
X109388962Y-115415271D01*
X109144369Y-115781331D01*
X108975890Y-116188075D01*
X108890000Y-116619872D01*
X105537000Y-116619872D01*
X105537000Y-64770000D01*
X105916324Y-64770000D01*
X105920000Y-64807322D01*
X105920001Y-77432668D01*
X105916324Y-77470000D01*
X105920001Y-77507333D01*
X105927553Y-77584003D01*
X105930998Y-77618985D01*
X105974454Y-77762246D01*
X106045026Y-77894276D01*
X106112362Y-77976324D01*
X106140000Y-78010001D01*
X106168998Y-78033799D01*
X106875198Y-78740000D01*
X106168998Y-79446201D01*
X106140000Y-79469999D01*
X106116202Y-79498997D01*
X106116201Y-79498998D01*
X106045026Y-79585724D01*
X105974454Y-79717754D01*
X105971598Y-79727170D01*
X105930998Y-79861014D01*
X105923272Y-79939454D01*
X105916324Y-80010000D01*
X105920001Y-80047332D01*
X105920000Y-91402667D01*
X105920000Y-92672677D01*
X105916324Y-92710000D01*
X105920000Y-92747322D01*
X105920000Y-92747332D01*
X105930997Y-92858985D01*
X105957086Y-92944990D01*
X105974454Y-93002246D01*
X106045026Y-93134276D01*
X106084871Y-93182826D01*
X106139999Y-93250001D01*
X106169003Y-93273804D01*
X107386200Y-94491002D01*
X107409999Y-94520001D01*
X107525724Y-94614974D01*
X107657753Y-94685546D01*
X107801014Y-94729003D01*
X107912667Y-94740000D01*
X107912676Y-94740000D01*
X107949999Y-94743676D01*
X107987322Y-94740000D01*
X108047659Y-94740000D01*
X108134880Y-94870535D01*
X108329465Y-95065120D01*
X108558273Y-95218005D01*
X108812510Y-95323314D01*
X109082408Y-95377000D01*
X109357592Y-95377000D01*
X109627490Y-95323314D01*
X109881727Y-95218005D01*
X110110535Y-95065120D01*
X110305120Y-94870535D01*
X110458005Y-94641727D01*
X110563314Y-94387490D01*
X110617000Y-94117592D01*
X110617000Y-93842408D01*
X110563314Y-93572510D01*
X110458005Y-93318273D01*
X110305120Y-93089465D01*
X110110535Y-92894880D01*
X109881727Y-92741995D01*
X109627490Y-92636686D01*
X109357592Y-92583000D01*
X109082408Y-92583000D01*
X108812510Y-92636686D01*
X108558273Y-92741995D01*
X108329465Y-92894880D01*
X108134880Y-93089465D01*
X108134634Y-93089833D01*
X107440000Y-92395199D01*
X107440000Y-80324801D01*
X108134634Y-79630167D01*
X108134880Y-79630535D01*
X108329465Y-79825120D01*
X108558273Y-79978005D01*
X108812510Y-80083314D01*
X109082408Y-80137000D01*
X109357592Y-80137000D01*
X109627490Y-80083314D01*
X109881727Y-79978005D01*
X110110535Y-79825120D01*
X110305120Y-79630535D01*
X110458005Y-79401727D01*
X110563314Y-79147490D01*
X110617000Y-78877592D01*
X110617000Y-78602408D01*
X115443000Y-78602408D01*
X115443000Y-78877592D01*
X115496686Y-79147490D01*
X115601995Y-79401727D01*
X115754880Y-79630535D01*
X115949465Y-79825120D01*
X116178273Y-79978005D01*
X116432510Y-80083314D01*
X116702408Y-80137000D01*
X116977592Y-80137000D01*
X117247490Y-80083314D01*
X117501727Y-79978005D01*
X117730535Y-79825120D01*
X117925120Y-79630535D01*
X118078005Y-79401727D01*
X118183314Y-79147490D01*
X118237000Y-78877592D01*
X118237000Y-78602408D01*
X118183314Y-78332510D01*
X118078005Y-78078273D01*
X117925120Y-77849465D01*
X117730535Y-77654880D01*
X117501727Y-77501995D01*
X117247490Y-77396686D01*
X116977592Y-77343000D01*
X116702408Y-77343000D01*
X116432510Y-77396686D01*
X116178273Y-77501995D01*
X115949465Y-77654880D01*
X115754880Y-77849465D01*
X115601995Y-78078273D01*
X115496686Y-78332510D01*
X115443000Y-78602408D01*
X110617000Y-78602408D01*
X110563314Y-78332510D01*
X110458005Y-78078273D01*
X110305120Y-77849465D01*
X110110535Y-77654880D01*
X109881727Y-77501995D01*
X109627490Y-77396686D01*
X109357592Y-77343000D01*
X109082408Y-77343000D01*
X108812510Y-77396686D01*
X108558273Y-77501995D01*
X108329465Y-77654880D01*
X108134880Y-77849465D01*
X108134634Y-77849833D01*
X107440000Y-77155199D01*
X107440000Y-72252408D01*
X107823000Y-72252408D01*
X107823000Y-72527592D01*
X107876686Y-72797490D01*
X107981995Y-73051727D01*
X108134880Y-73280535D01*
X108329465Y-73475120D01*
X108558273Y-73628005D01*
X108812510Y-73733314D01*
X109082408Y-73787000D01*
X109357592Y-73787000D01*
X109627490Y-73733314D01*
X109881727Y-73628005D01*
X110110535Y-73475120D01*
X110305120Y-73280535D01*
X110458005Y-73051727D01*
X110563314Y-72797490D01*
X110617000Y-72527592D01*
X110617000Y-72252408D01*
X115443000Y-72252408D01*
X115443000Y-72527592D01*
X115496686Y-72797490D01*
X115601995Y-73051727D01*
X115754880Y-73280535D01*
X115949465Y-73475120D01*
X116178273Y-73628005D01*
X116432510Y-73733314D01*
X116702408Y-73787000D01*
X116977592Y-73787000D01*
X117247490Y-73733314D01*
X117501727Y-73628005D01*
X117730535Y-73475120D01*
X117925120Y-73280535D01*
X118078005Y-73051727D01*
X118183314Y-72797490D01*
X118237000Y-72527592D01*
X118237000Y-72252408D01*
X118183314Y-71982510D01*
X118078005Y-71728273D01*
X117925120Y-71499465D01*
X117730535Y-71304880D01*
X117501727Y-71151995D01*
X117247490Y-71046686D01*
X116977592Y-70993000D01*
X116702408Y-70993000D01*
X116432510Y-71046686D01*
X116178273Y-71151995D01*
X115949465Y-71304880D01*
X115754880Y-71499465D01*
X115601995Y-71728273D01*
X115496686Y-71982510D01*
X115443000Y-72252408D01*
X110617000Y-72252408D01*
X110586372Y-72098430D01*
X112074803Y-70610000D01*
X122625198Y-70610000D01*
X122211570Y-71023628D01*
X122057592Y-70993000D01*
X121782408Y-70993000D01*
X121512510Y-71046686D01*
X121258273Y-71151995D01*
X121029465Y-71304880D01*
X120834880Y-71499465D01*
X120747659Y-71630000D01*
X120687333Y-71630000D01*
X120650000Y-71626323D01*
X120612667Y-71630000D01*
X120501014Y-71640997D01*
X120357753Y-71684454D01*
X120225724Y-71755026D01*
X120109999Y-71849999D01*
X120086202Y-71878996D01*
X119504002Y-72461197D01*
X119474999Y-72484999D01*
X119419871Y-72552174D01*
X119380026Y-72600724D01*
X119336451Y-72682246D01*
X119309454Y-72732754D01*
X119265997Y-72876015D01*
X119255000Y-72987668D01*
X119255000Y-72987678D01*
X119251324Y-73025000D01*
X119255000Y-73062322D01*
X119255001Y-84417668D01*
X119251324Y-84455000D01*
X119255001Y-84492333D01*
X119262553Y-84569003D01*
X119265998Y-84603985D01*
X119309454Y-84747246D01*
X119380026Y-84879276D01*
X119425333Y-84934482D01*
X119475000Y-84995001D01*
X119503998Y-85018799D01*
X120553628Y-86068430D01*
X120523000Y-86222408D01*
X120523000Y-86497592D01*
X120576686Y-86767490D01*
X120681995Y-87021727D01*
X120834880Y-87250535D01*
X121029465Y-87445120D01*
X121119082Y-87505000D01*
X117640918Y-87505000D01*
X117730535Y-87445120D01*
X117925120Y-87250535D01*
X118078005Y-87021727D01*
X118183314Y-86767490D01*
X118237000Y-86497592D01*
X118237000Y-86222408D01*
X118183314Y-85952510D01*
X118078005Y-85698273D01*
X117925120Y-85469465D01*
X117730535Y-85274880D01*
X117501727Y-85121995D01*
X117247490Y-85016686D01*
X116977592Y-84963000D01*
X116702408Y-84963000D01*
X116432510Y-85016686D01*
X116178273Y-85121995D01*
X115949465Y-85274880D01*
X115754880Y-85469465D01*
X115601995Y-85698273D01*
X115496686Y-85952510D01*
X115443000Y-86222408D01*
X115443000Y-86497592D01*
X115496686Y-86767490D01*
X115601995Y-87021727D01*
X115754880Y-87250535D01*
X115949465Y-87445120D01*
X116039082Y-87505000D01*
X115249802Y-87505000D01*
X114863803Y-87119002D01*
X114840001Y-87089999D01*
X114724276Y-86995026D01*
X114592247Y-86924454D01*
X114448986Y-86880997D01*
X114337333Y-86870000D01*
X114337322Y-86870000D01*
X114300000Y-86866324D01*
X114262678Y-86870000D01*
X112074802Y-86870000D01*
X111053804Y-85849003D01*
X111030001Y-85819999D01*
X110914276Y-85725026D01*
X110782247Y-85654454D01*
X110638986Y-85610997D01*
X110527333Y-85600000D01*
X110527322Y-85600000D01*
X110490000Y-85596324D01*
X110452678Y-85600000D01*
X110392341Y-85600000D01*
X110305120Y-85469465D01*
X110110535Y-85274880D01*
X109881727Y-85121995D01*
X109627490Y-85016686D01*
X109357592Y-84963000D01*
X109082408Y-84963000D01*
X108812510Y-85016686D01*
X108558273Y-85121995D01*
X108329465Y-85274880D01*
X108134880Y-85469465D01*
X107981995Y-85698273D01*
X107876686Y-85952510D01*
X107823000Y-86222408D01*
X107823000Y-86497592D01*
X107876686Y-86767490D01*
X107981995Y-87021727D01*
X108134880Y-87250535D01*
X108329465Y-87445120D01*
X108558273Y-87598005D01*
X108812510Y-87703314D01*
X109082408Y-87757000D01*
X109357592Y-87757000D01*
X109627490Y-87703314D01*
X109881727Y-87598005D01*
X110110535Y-87445120D01*
X110305120Y-87250535D01*
X110305366Y-87250167D01*
X111000001Y-87944803D01*
X111000000Y-100015198D01*
X110305366Y-100709833D01*
X110305120Y-100709465D01*
X110110535Y-100514880D01*
X109881727Y-100361995D01*
X109627490Y-100256686D01*
X109357592Y-100203000D01*
X109082408Y-100203000D01*
X108812510Y-100256686D01*
X108558273Y-100361995D01*
X108329465Y-100514880D01*
X108134880Y-100709465D01*
X107981995Y-100938273D01*
X107876686Y-101192510D01*
X107823000Y-101462408D01*
X107823000Y-101737592D01*
X107876686Y-102007490D01*
X107981995Y-102261727D01*
X108134880Y-102490535D01*
X108329465Y-102685120D01*
X108558273Y-102838005D01*
X108812510Y-102943314D01*
X109082408Y-102997000D01*
X109357592Y-102997000D01*
X109627490Y-102943314D01*
X109881727Y-102838005D01*
X110110535Y-102685120D01*
X110305120Y-102490535D01*
X110392341Y-102360000D01*
X110452678Y-102360000D01*
X110490000Y-102363676D01*
X110527322Y-102360000D01*
X110527333Y-102360000D01*
X110638986Y-102349003D01*
X110782247Y-102305546D01*
X110914276Y-102234974D01*
X111030001Y-102140001D01*
X111053804Y-102110997D01*
X112271004Y-100893798D01*
X112300001Y-100870001D01*
X112394974Y-100754276D01*
X112465546Y-100622247D01*
X112509003Y-100478986D01*
X112520000Y-100367333D01*
X112520000Y-100367324D01*
X112523676Y-100330001D01*
X112520000Y-100292678D01*
X112520000Y-93842408D01*
X115443000Y-93842408D01*
X115443000Y-94117592D01*
X115496686Y-94387490D01*
X115601995Y-94641727D01*
X115754880Y-94870535D01*
X115949465Y-95065120D01*
X116178273Y-95218005D01*
X116432510Y-95323314D01*
X116702408Y-95377000D01*
X116977592Y-95377000D01*
X117247490Y-95323314D01*
X117501727Y-95218005D01*
X117730535Y-95065120D01*
X117925120Y-94870535D01*
X118078005Y-94641727D01*
X118183314Y-94387490D01*
X118237000Y-94117592D01*
X118237000Y-93842408D01*
X118183314Y-93572510D01*
X118078005Y-93318273D01*
X117925120Y-93089465D01*
X117730535Y-92894880D01*
X117501727Y-92741995D01*
X117247490Y-92636686D01*
X116977592Y-92583000D01*
X116702408Y-92583000D01*
X116432510Y-92636686D01*
X116178273Y-92741995D01*
X115949465Y-92894880D01*
X115754880Y-93089465D01*
X115601995Y-93318273D01*
X115496686Y-93572510D01*
X115443000Y-93842408D01*
X112520000Y-93842408D01*
X112520000Y-88390000D01*
X113985199Y-88390000D01*
X114371200Y-88776002D01*
X114394999Y-88805001D01*
X114423997Y-88828799D01*
X114510724Y-88899974D01*
X114642753Y-88970546D01*
X114786014Y-89014003D01*
X114935000Y-89028677D01*
X114972333Y-89025000D01*
X128232678Y-89025000D01*
X128270000Y-89028676D01*
X128307322Y-89025000D01*
X128307333Y-89025000D01*
X128418986Y-89014003D01*
X128562247Y-88970546D01*
X128694276Y-88899974D01*
X128810001Y-88805001D01*
X128833804Y-88775997D01*
X130284236Y-87325565D01*
X133834040Y-87325565D01*
X133901020Y-87565656D01*
X134150048Y-87682756D01*
X134417135Y-87749023D01*
X134692017Y-87761910D01*
X134964133Y-87720922D01*
X135223023Y-87627636D01*
X135338980Y-87565656D01*
X135405960Y-87325565D01*
X134620000Y-86539605D01*
X133834040Y-87325565D01*
X130284236Y-87325565D01*
X131177784Y-86432017D01*
X133218090Y-86432017D01*
X133259078Y-86704133D01*
X133352364Y-86963023D01*
X133414344Y-87078980D01*
X133654435Y-87145960D01*
X134440395Y-86360000D01*
X134799605Y-86360000D01*
X135585565Y-87145960D01*
X135825656Y-87078980D01*
X135942756Y-86829952D01*
X136009023Y-86562865D01*
X136021910Y-86287983D01*
X135980922Y-86015867D01*
X135887636Y-85756977D01*
X135825656Y-85641020D01*
X135585565Y-85574040D01*
X134799605Y-86360000D01*
X134440395Y-86360000D01*
X133654435Y-85574040D01*
X133414344Y-85641020D01*
X133297244Y-85890048D01*
X133230977Y-86157135D01*
X133218090Y-86432017D01*
X131177784Y-86432017D01*
X132394802Y-85215000D01*
X133884098Y-85215000D01*
X133834040Y-85394435D01*
X134620000Y-86180395D01*
X135405960Y-85394435D01*
X135355902Y-85215000D01*
X140020199Y-85215000D01*
X140873628Y-86068430D01*
X140843000Y-86222408D01*
X140843000Y-86497592D01*
X140896686Y-86767490D01*
X141001995Y-87021727D01*
X141154880Y-87250535D01*
X141349465Y-87445120D01*
X141578273Y-87598005D01*
X141832510Y-87703314D01*
X142102408Y-87757000D01*
X142377592Y-87757000D01*
X142647490Y-87703314D01*
X142901727Y-87598005D01*
X143130535Y-87445120D01*
X143325120Y-87250535D01*
X143412341Y-87120000D01*
X143830199Y-87120000D01*
X148028789Y-91318591D01*
X147992333Y-91315000D01*
X147992322Y-91315000D01*
X147955000Y-91311324D01*
X147917678Y-91315000D01*
X146087322Y-91315000D01*
X146049999Y-91311324D01*
X146012676Y-91315000D01*
X146012667Y-91315000D01*
X145901014Y-91325997D01*
X145757753Y-91369454D01*
X145625724Y-91440026D01*
X145509999Y-91534999D01*
X145486201Y-91563997D01*
X144268998Y-92781201D01*
X144240000Y-92804999D01*
X144216202Y-92833997D01*
X144216201Y-92833998D01*
X144145026Y-92920724D01*
X144074454Y-93052754D01*
X144061950Y-93093976D01*
X144030998Y-93196014D01*
X144027552Y-93230998D01*
X144016324Y-93345000D01*
X144020001Y-93382332D01*
X144020000Y-98745197D01*
X142531570Y-100233628D01*
X142377592Y-100203000D01*
X142102408Y-100203000D01*
X141832510Y-100256686D01*
X141578273Y-100361995D01*
X141349465Y-100514880D01*
X141154880Y-100709465D01*
X141001995Y-100938273D01*
X140896686Y-101192510D01*
X140843000Y-101462408D01*
X140843000Y-101737592D01*
X140896686Y-102007490D01*
X141001995Y-102261727D01*
X141154880Y-102490535D01*
X141349465Y-102685120D01*
X141578273Y-102838005D01*
X141832510Y-102943314D01*
X142102408Y-102997000D01*
X142377592Y-102997000D01*
X142647490Y-102943314D01*
X142901727Y-102838005D01*
X143130535Y-102685120D01*
X143325120Y-102490535D01*
X143478005Y-102261727D01*
X143583314Y-102007490D01*
X143637000Y-101737592D01*
X143637000Y-101462408D01*
X145923000Y-101462408D01*
X145923000Y-101737592D01*
X145976686Y-102007490D01*
X146081995Y-102261727D01*
X146234880Y-102490535D01*
X146429465Y-102685120D01*
X146658273Y-102838005D01*
X146912510Y-102943314D01*
X147182408Y-102997000D01*
X147457592Y-102997000D01*
X147727490Y-102943314D01*
X147981727Y-102838005D01*
X148210535Y-102685120D01*
X148405120Y-102490535D01*
X148558005Y-102261727D01*
X148663314Y-102007490D01*
X148717000Y-101737592D01*
X148717000Y-101462408D01*
X151003000Y-101462408D01*
X151003000Y-101737592D01*
X151056686Y-102007490D01*
X151161995Y-102261727D01*
X151314880Y-102490535D01*
X151509465Y-102685120D01*
X151738273Y-102838005D01*
X151992510Y-102943314D01*
X152262408Y-102997000D01*
X152537592Y-102997000D01*
X152807490Y-102943314D01*
X153061727Y-102838005D01*
X153290535Y-102685120D01*
X153485120Y-102490535D01*
X153638005Y-102261727D01*
X153743314Y-102007490D01*
X153797000Y-101737592D01*
X153797000Y-101462408D01*
X153743314Y-101192510D01*
X153638005Y-100938273D01*
X153485120Y-100709465D01*
X153290535Y-100514880D01*
X153061727Y-100361995D01*
X152807490Y-100256686D01*
X152537592Y-100203000D01*
X152262408Y-100203000D01*
X151992510Y-100256686D01*
X151738273Y-100361995D01*
X151509465Y-100514880D01*
X151314880Y-100709465D01*
X151161995Y-100938273D01*
X151056686Y-101192510D01*
X151003000Y-101462408D01*
X148717000Y-101462408D01*
X148663314Y-101192510D01*
X148558005Y-100938273D01*
X148405120Y-100709465D01*
X148210535Y-100514880D01*
X147981727Y-100361995D01*
X147727490Y-100256686D01*
X147457592Y-100203000D01*
X147182408Y-100203000D01*
X146912510Y-100256686D01*
X146658273Y-100361995D01*
X146429465Y-100514880D01*
X146234880Y-100709465D01*
X146081995Y-100938273D01*
X145976686Y-101192510D01*
X145923000Y-101462408D01*
X143637000Y-101462408D01*
X143606372Y-101308430D01*
X145291009Y-99623794D01*
X145320001Y-99600001D01*
X145343795Y-99571008D01*
X145343799Y-99571004D01*
X145414973Y-99484277D01*
X145414974Y-99484276D01*
X145485546Y-99352247D01*
X145529003Y-99208986D01*
X145540000Y-99097333D01*
X145540000Y-99097324D01*
X145543676Y-99060001D01*
X145540000Y-99022678D01*
X145540000Y-93659801D01*
X146364802Y-92835000D01*
X146519082Y-92835000D01*
X146429465Y-92894880D01*
X146234880Y-93089465D01*
X146081995Y-93318273D01*
X145976686Y-93572510D01*
X145923000Y-93842408D01*
X145923000Y-94117592D01*
X145976686Y-94387490D01*
X146081995Y-94641727D01*
X146234880Y-94870535D01*
X146429465Y-95065120D01*
X146658273Y-95218005D01*
X146912510Y-95323314D01*
X147182408Y-95377000D01*
X147457592Y-95377000D01*
X147611570Y-95346372D01*
X148713997Y-96448799D01*
X148714002Y-96448803D01*
X150566201Y-98301003D01*
X150589999Y-98330001D01*
X150705724Y-98424974D01*
X150837753Y-98495546D01*
X150981014Y-98539003D01*
X151092667Y-98550000D01*
X151092677Y-98550000D01*
X151130000Y-98553676D01*
X151167323Y-98550000D01*
X159982678Y-98550000D01*
X160020000Y-98553676D01*
X160057322Y-98550000D01*
X160057333Y-98550000D01*
X160168986Y-98539003D01*
X160312247Y-98495546D01*
X160444276Y-98424974D01*
X160560001Y-98330001D01*
X160583804Y-98300997D01*
X164465000Y-94419802D01*
X165170590Y-95125392D01*
X165129463Y-95175506D01*
X165070498Y-95285820D01*
X165034188Y-95405518D01*
X165021928Y-95530000D01*
X165021928Y-97510000D01*
X165034188Y-97634482D01*
X165070498Y-97754180D01*
X165129463Y-97864494D01*
X165208815Y-97961185D01*
X165305506Y-98040537D01*
X165415820Y-98099502D01*
X165535518Y-98135812D01*
X165660000Y-98148072D01*
X166880001Y-98148072D01*
X166880000Y-102595000D01*
X166570176Y-102595000D01*
X166331444Y-102618513D01*
X166025131Y-102711432D01*
X165742830Y-102862325D01*
X165495392Y-103065392D01*
X165292325Y-103312830D01*
X165141432Y-103595131D01*
X165048513Y-103901444D01*
X165017138Y-104220000D01*
X165048513Y-104538556D01*
X165141432Y-104844869D01*
X165292325Y-105127170D01*
X165495392Y-105374608D01*
X165742830Y-105577675D01*
X166025131Y-105728568D01*
X166331444Y-105821487D01*
X166570176Y-105845000D01*
X168709824Y-105845000D01*
X168948556Y-105821487D01*
X169254869Y-105728568D01*
X169537170Y-105577675D01*
X169784608Y-105374608D01*
X169987675Y-105127170D01*
X170055000Y-105001214D01*
X170055000Y-105730198D01*
X168193271Y-107591928D01*
X165660000Y-107591928D01*
X165535518Y-107604188D01*
X165415820Y-107640498D01*
X165305506Y-107699463D01*
X165208815Y-107778815D01*
X165129463Y-107875506D01*
X165070498Y-107985820D01*
X165034188Y-108105518D01*
X165021928Y-108230000D01*
X165021928Y-110210000D01*
X165034188Y-110334482D01*
X165070498Y-110454180D01*
X165129463Y-110564494D01*
X165208815Y-110661185D01*
X165305506Y-110740537D01*
X165415820Y-110799502D01*
X165535518Y-110835812D01*
X165660000Y-110848072D01*
X169620000Y-110848072D01*
X169744482Y-110835812D01*
X169864180Y-110799502D01*
X169974494Y-110740537D01*
X170071185Y-110661185D01*
X170150537Y-110564494D01*
X170209502Y-110454180D01*
X170245812Y-110334482D01*
X170258072Y-110210000D01*
X170258072Y-108230000D01*
X170245812Y-108105518D01*
X170209502Y-107985820D01*
X170150537Y-107875506D01*
X170109410Y-107825392D01*
X171325001Y-106609801D01*
X171325000Y-119700198D01*
X170500199Y-120525000D01*
X133664802Y-120525000D01*
X132840000Y-119700199D01*
X132840000Y-118674801D01*
X134056201Y-119891003D01*
X134079999Y-119920001D01*
X134195724Y-120014974D01*
X134327753Y-120085546D01*
X134471014Y-120129003D01*
X134582667Y-120140000D01*
X134582676Y-120140000D01*
X134619999Y-120143676D01*
X134657322Y-120140000D01*
X144742678Y-120140000D01*
X144780000Y-120143676D01*
X144817322Y-120140000D01*
X144817333Y-120140000D01*
X144928986Y-120129003D01*
X145072247Y-120085546D01*
X145204276Y-120014974D01*
X145320001Y-119920001D01*
X145343804Y-119890997D01*
X147979929Y-117254872D01*
X164770000Y-117254872D01*
X164770000Y-117695128D01*
X164855890Y-118126925D01*
X165024369Y-118533669D01*
X165268962Y-118899729D01*
X165580271Y-119211038D01*
X165946331Y-119455631D01*
X166353075Y-119624110D01*
X166784872Y-119710000D01*
X167225128Y-119710000D01*
X167656925Y-119624110D01*
X168063669Y-119455631D01*
X168429729Y-119211038D01*
X168741038Y-118899729D01*
X168985631Y-118533669D01*
X169154110Y-118126925D01*
X169240000Y-117695128D01*
X169240000Y-117254872D01*
X169154110Y-116823075D01*
X168985631Y-116416331D01*
X168741038Y-116050271D01*
X168429729Y-115738962D01*
X168063669Y-115494369D01*
X167656925Y-115325890D01*
X167225128Y-115240000D01*
X166784872Y-115240000D01*
X166353075Y-115325890D01*
X165946331Y-115494369D01*
X165580271Y-115738962D01*
X165268962Y-116050271D01*
X165024369Y-116416331D01*
X164855890Y-116823075D01*
X164770000Y-117254872D01*
X147979929Y-117254872D01*
X148465392Y-116769410D01*
X148515506Y-116810537D01*
X148625820Y-116869502D01*
X148745518Y-116905812D01*
X148870000Y-116918072D01*
X150850000Y-116918072D01*
X150974482Y-116905812D01*
X151094180Y-116869502D01*
X151204494Y-116810537D01*
X151301185Y-116731185D01*
X151380537Y-116634494D01*
X151439502Y-116524180D01*
X151475812Y-116404482D01*
X151488072Y-116280000D01*
X151488072Y-114427000D01*
X153235000Y-114427000D01*
X153235000Y-115417000D01*
X153291000Y-115731582D01*
X153407296Y-116029194D01*
X153579419Y-116298399D01*
X153800754Y-116528852D01*
X154062795Y-116711696D01*
X154355472Y-116839905D01*
X154481135Y-116870218D01*
X154733000Y-116750740D01*
X154733000Y-114427000D01*
X154987000Y-114427000D01*
X154987000Y-116750740D01*
X155238865Y-116870218D01*
X155364528Y-116839905D01*
X155657205Y-116711696D01*
X155919246Y-116528852D01*
X156140581Y-116298399D01*
X156312704Y-116029194D01*
X156429000Y-115731582D01*
X156485000Y-115417000D01*
X156485000Y-114427000D01*
X154987000Y-114427000D01*
X154733000Y-114427000D01*
X153235000Y-114427000D01*
X151488072Y-114427000D01*
X151488072Y-113183000D01*
X153235000Y-113183000D01*
X153235000Y-114173000D01*
X154733000Y-114173000D01*
X154733000Y-111849260D01*
X154987000Y-111849260D01*
X154987000Y-114173000D01*
X156485000Y-114173000D01*
X156485000Y-113183000D01*
X156429000Y-112868418D01*
X156312704Y-112570806D01*
X156140581Y-112301601D01*
X155919246Y-112071148D01*
X155657205Y-111888304D01*
X155364528Y-111760095D01*
X155238865Y-111729782D01*
X154987000Y-111849260D01*
X154733000Y-111849260D01*
X154481135Y-111729782D01*
X154355472Y-111760095D01*
X154062795Y-111888304D01*
X153800754Y-112071148D01*
X153579419Y-112301601D01*
X153407296Y-112570806D01*
X153291000Y-112868418D01*
X153235000Y-113183000D01*
X151488072Y-113183000D01*
X151488072Y-112320000D01*
X151475812Y-112195518D01*
X151439502Y-112075820D01*
X151380537Y-111965506D01*
X151301185Y-111868815D01*
X151204494Y-111789463D01*
X151094180Y-111730498D01*
X150974482Y-111694188D01*
X150850000Y-111681928D01*
X148870000Y-111681928D01*
X148745518Y-111694188D01*
X148625820Y-111730498D01*
X148515506Y-111789463D01*
X148418815Y-111868815D01*
X148339463Y-111965506D01*
X148280498Y-112075820D01*
X148244188Y-112195518D01*
X148231928Y-112320000D01*
X148231928Y-114853270D01*
X144465199Y-118620000D01*
X134934802Y-118620000D01*
X134110000Y-117795199D01*
X134110000Y-112320000D01*
X134261928Y-112320000D01*
X134261928Y-116280000D01*
X134274188Y-116404482D01*
X134310498Y-116524180D01*
X134369463Y-116634494D01*
X134448815Y-116731185D01*
X134545506Y-116810537D01*
X134655820Y-116869502D01*
X134775518Y-116905812D01*
X134900000Y-116918072D01*
X136880000Y-116918072D01*
X137004482Y-116905812D01*
X137124180Y-116869502D01*
X137234494Y-116810537D01*
X137331185Y-116731185D01*
X137410537Y-116634494D01*
X137469502Y-116524180D01*
X137505812Y-116404482D01*
X137518072Y-116280000D01*
X137518072Y-113230177D01*
X139265000Y-113230177D01*
X139265001Y-115369824D01*
X139288514Y-115608556D01*
X139381433Y-115914869D01*
X139532326Y-116197170D01*
X139735393Y-116444608D01*
X139982831Y-116647675D01*
X140265132Y-116798568D01*
X140571445Y-116891487D01*
X140890000Y-116922862D01*
X141208556Y-116891487D01*
X141514869Y-116798568D01*
X141797170Y-116647675D01*
X142044608Y-116444608D01*
X142247675Y-116197170D01*
X142398568Y-115914869D01*
X142491487Y-115608556D01*
X142515000Y-115369824D01*
X142515000Y-113230176D01*
X142491487Y-112991444D01*
X142398568Y-112685131D01*
X142247675Y-112402830D01*
X142044608Y-112155392D01*
X141797169Y-111952325D01*
X141514868Y-111801432D01*
X141208555Y-111708513D01*
X140890000Y-111677138D01*
X140571444Y-111708513D01*
X140265131Y-111801432D01*
X139982830Y-111952325D01*
X139735392Y-112155392D01*
X139532325Y-112402831D01*
X139381432Y-112685132D01*
X139288513Y-112991445D01*
X139265000Y-113230177D01*
X137518072Y-113230177D01*
X137518072Y-112320000D01*
X137505812Y-112195518D01*
X137469502Y-112075820D01*
X137410537Y-111965506D01*
X137331185Y-111868815D01*
X137234494Y-111789463D01*
X137124180Y-111730498D01*
X137004482Y-111694188D01*
X136880000Y-111681928D01*
X134900000Y-111681928D01*
X134775518Y-111694188D01*
X134655820Y-111730498D01*
X134545506Y-111789463D01*
X134448815Y-111868815D01*
X134369463Y-111965506D01*
X134310498Y-112075820D01*
X134274188Y-112195518D01*
X134261928Y-112320000D01*
X134110000Y-112320000D01*
X134110000Y-108899801D01*
X137036004Y-105973798D01*
X137065001Y-105950001D01*
X137109306Y-105896015D01*
X137159974Y-105834277D01*
X137230546Y-105702247D01*
X137255275Y-105620724D01*
X137274003Y-105558986D01*
X137285000Y-105447333D01*
X137285000Y-105447324D01*
X137288676Y-105410001D01*
X137285000Y-105372678D01*
X137285000Y-95922323D01*
X137288676Y-95885000D01*
X137285000Y-95847677D01*
X137285000Y-95847667D01*
X137274003Y-95736014D01*
X137230546Y-95592753D01*
X137159974Y-95460724D01*
X137065001Y-95344999D01*
X137036003Y-95321201D01*
X135986372Y-94271570D01*
X136017000Y-94117592D01*
X136017000Y-93842408D01*
X140843000Y-93842408D01*
X140843000Y-94117592D01*
X140896686Y-94387490D01*
X141001995Y-94641727D01*
X141154880Y-94870535D01*
X141349465Y-95065120D01*
X141578273Y-95218005D01*
X141832510Y-95323314D01*
X142102408Y-95377000D01*
X142377592Y-95377000D01*
X142647490Y-95323314D01*
X142901727Y-95218005D01*
X143130535Y-95065120D01*
X143325120Y-94870535D01*
X143478005Y-94641727D01*
X143583314Y-94387490D01*
X143637000Y-94117592D01*
X143637000Y-93842408D01*
X143583314Y-93572510D01*
X143478005Y-93318273D01*
X143325120Y-93089465D01*
X143130535Y-92894880D01*
X142901727Y-92741995D01*
X142647490Y-92636686D01*
X142377592Y-92583000D01*
X142102408Y-92583000D01*
X141832510Y-92636686D01*
X141578273Y-92741995D01*
X141349465Y-92894880D01*
X141154880Y-93089465D01*
X141001995Y-93318273D01*
X140896686Y-93572510D01*
X140843000Y-93842408D01*
X136017000Y-93842408D01*
X135963314Y-93572510D01*
X135858005Y-93318273D01*
X135705120Y-93089465D01*
X135510535Y-92894880D01*
X135281727Y-92741995D01*
X135027490Y-92636686D01*
X134757592Y-92583000D01*
X134482408Y-92583000D01*
X134328430Y-92613628D01*
X133278804Y-91564003D01*
X133255001Y-91534999D01*
X133139276Y-91440026D01*
X133007247Y-91369454D01*
X132863986Y-91325997D01*
X132752333Y-91315000D01*
X132752322Y-91315000D01*
X132715000Y-91311324D01*
X132677678Y-91315000D01*
X120052333Y-91315000D01*
X120015000Y-91311323D01*
X119977667Y-91315000D01*
X119866014Y-91325997D01*
X119722753Y-91369454D01*
X119590724Y-91440026D01*
X119474999Y-91534999D01*
X119451200Y-91563998D01*
X118868998Y-92146201D01*
X118840000Y-92169999D01*
X118816202Y-92198997D01*
X118816201Y-92198998D01*
X118745026Y-92285724D01*
X118674454Y-92417754D01*
X118671598Y-92427170D01*
X118630998Y-92561014D01*
X118627552Y-92595998D01*
X118616324Y-92710000D01*
X118620001Y-92747332D01*
X118620000Y-94596435D01*
X116328998Y-96887439D01*
X116300000Y-96911237D01*
X116276202Y-96940235D01*
X116276201Y-96940236D01*
X116205026Y-97026962D01*
X116134454Y-97158992D01*
X116104180Y-97258796D01*
X116090998Y-97302252D01*
X116080001Y-97413905D01*
X116076324Y-97451238D01*
X116080001Y-97488570D01*
X116080000Y-100427659D01*
X115949465Y-100514880D01*
X115754880Y-100709465D01*
X115601995Y-100938273D01*
X115496686Y-101192510D01*
X115443000Y-101462408D01*
X115443000Y-101737592D01*
X115496686Y-102007490D01*
X115601995Y-102261727D01*
X115754880Y-102490535D01*
X115949465Y-102685120D01*
X116178273Y-102838005D01*
X116432510Y-102943314D01*
X116702408Y-102997000D01*
X116977592Y-102997000D01*
X117247490Y-102943314D01*
X117501727Y-102838005D01*
X117730535Y-102685120D01*
X117925120Y-102490535D01*
X118078005Y-102261727D01*
X118183314Y-102007490D01*
X118237000Y-101737592D01*
X118237000Y-101462408D01*
X118183314Y-101192510D01*
X118078005Y-100938273D01*
X117925120Y-100709465D01*
X117730535Y-100514880D01*
X117600000Y-100427659D01*
X117600000Y-97766039D01*
X119891009Y-95475032D01*
X119920001Y-95451239D01*
X119943795Y-95422246D01*
X119943799Y-95422242D01*
X120014973Y-95335515D01*
X120014974Y-95335514D01*
X120085546Y-95203485D01*
X120129003Y-95060224D01*
X120140000Y-94948571D01*
X120140000Y-94948562D01*
X120143676Y-94911239D01*
X120140000Y-94873916D01*
X120140000Y-93024801D01*
X120329802Y-92835000D01*
X121119082Y-92835000D01*
X121029465Y-92894880D01*
X120834880Y-93089465D01*
X120681995Y-93318273D01*
X120576686Y-93572510D01*
X120523000Y-93842408D01*
X120523000Y-94117592D01*
X120576686Y-94387490D01*
X120681995Y-94641727D01*
X120834880Y-94870535D01*
X121029465Y-95065120D01*
X121258273Y-95218005D01*
X121512510Y-95323314D01*
X121782408Y-95377000D01*
X122057592Y-95377000D01*
X122211570Y-95346372D01*
X122495998Y-95630800D01*
X122496003Y-95630804D01*
X123065001Y-96199803D01*
X123065000Y-100799082D01*
X123005120Y-100709465D01*
X122810535Y-100514880D01*
X122581727Y-100361995D01*
X122327490Y-100256686D01*
X122057592Y-100203000D01*
X121782408Y-100203000D01*
X121512510Y-100256686D01*
X121258273Y-100361995D01*
X121029465Y-100514880D01*
X120834880Y-100709465D01*
X120681995Y-100938273D01*
X120576686Y-101192510D01*
X120523000Y-101462408D01*
X120523000Y-101737592D01*
X120576686Y-102007490D01*
X120681995Y-102261727D01*
X120834880Y-102490535D01*
X121029465Y-102685120D01*
X121258273Y-102838005D01*
X121512510Y-102943314D01*
X121782408Y-102997000D01*
X121988199Y-102997000D01*
X121408998Y-103576201D01*
X121380000Y-103599999D01*
X121356202Y-103628997D01*
X121356201Y-103628998D01*
X121285026Y-103715724D01*
X121214454Y-103847754D01*
X121170998Y-103991015D01*
X121156324Y-104140000D01*
X121160001Y-104177332D01*
X121160000Y-111681928D01*
X120930000Y-111681928D01*
X120805518Y-111694188D01*
X120685820Y-111730498D01*
X120575506Y-111789463D01*
X120478815Y-111868815D01*
X120399463Y-111965506D01*
X120340498Y-112075820D01*
X120304188Y-112195518D01*
X120291928Y-112320000D01*
X120291928Y-116280000D01*
X120304188Y-116404482D01*
X120340498Y-116524180D01*
X120399463Y-116634494D01*
X120478815Y-116731185D01*
X120575506Y-116810537D01*
X120685820Y-116869502D01*
X120805518Y-116905812D01*
X120930000Y-116918072D01*
X122910000Y-116918072D01*
X123034482Y-116905812D01*
X123154180Y-116869502D01*
X123264494Y-116810537D01*
X123361185Y-116731185D01*
X123440537Y-116634494D01*
X123499502Y-116524180D01*
X123535812Y-116404482D01*
X123548072Y-116280000D01*
X123548072Y-112320000D01*
X123535812Y-112195518D01*
X123499502Y-112075820D01*
X123440537Y-111965506D01*
X123361185Y-111868815D01*
X123264494Y-111789463D01*
X123154180Y-111730498D01*
X123034482Y-111694188D01*
X122910000Y-111681928D01*
X122680000Y-111681928D01*
X122680000Y-104454801D01*
X124336004Y-102798798D01*
X124365001Y-102775001D01*
X124459974Y-102659276D01*
X124460000Y-102659227D01*
X124460026Y-102659276D01*
X124481236Y-102685120D01*
X124554999Y-102775001D01*
X124584003Y-102798804D01*
X126160001Y-104374803D01*
X126160000Y-111873661D01*
X126012830Y-111952325D01*
X125765392Y-112155392D01*
X125562325Y-112402831D01*
X125411432Y-112685132D01*
X125396761Y-112733496D01*
X125372998Y-112752998D01*
X125278025Y-112868723D01*
X125207453Y-113000753D01*
X125163997Y-113144014D01*
X125149323Y-113292999D01*
X125163997Y-113441984D01*
X125207453Y-113585245D01*
X125278025Y-113717275D01*
X125295000Y-113737959D01*
X125295001Y-115369824D01*
X125318514Y-115608556D01*
X125411433Y-115914869D01*
X125562326Y-116197170D01*
X125765393Y-116444608D01*
X126012831Y-116647675D01*
X126295132Y-116798568D01*
X126601445Y-116891487D01*
X126920000Y-116922862D01*
X127238556Y-116891487D01*
X127544869Y-116798568D01*
X127827170Y-116647675D01*
X128074608Y-116444608D01*
X128277675Y-116197170D01*
X128428568Y-115914869D01*
X128521487Y-115608556D01*
X128545000Y-115369824D01*
X128545000Y-113230176D01*
X128521487Y-112991444D01*
X128428568Y-112685131D01*
X128277675Y-112402830D01*
X128074608Y-112155392D01*
X127827169Y-111952325D01*
X127680000Y-111873662D01*
X127680000Y-104097325D01*
X127683676Y-104060000D01*
X127680000Y-104022675D01*
X127680000Y-104022667D01*
X127669003Y-103911014D01*
X127625546Y-103767753D01*
X127554974Y-103635724D01*
X127460001Y-103519999D01*
X127431003Y-103496201D01*
X126931802Y-102997000D01*
X127137592Y-102997000D01*
X127407490Y-102943314D01*
X127661727Y-102838005D01*
X127890535Y-102685120D01*
X128085120Y-102490535D01*
X128238005Y-102261727D01*
X128343314Y-102007490D01*
X128397000Y-101737592D01*
X128397000Y-101462408D01*
X128343314Y-101192510D01*
X128238005Y-100938273D01*
X128085120Y-100709465D01*
X127890535Y-100514880D01*
X127661727Y-100361995D01*
X127407490Y-100256686D01*
X127137592Y-100203000D01*
X126862408Y-100203000D01*
X126592510Y-100256686D01*
X126338273Y-100361995D01*
X126109465Y-100514880D01*
X125914880Y-100709465D01*
X125855000Y-100799082D01*
X125855000Y-96199801D01*
X126476798Y-95578004D01*
X126476802Y-95577999D01*
X126708429Y-95346372D01*
X126862408Y-95377000D01*
X127137592Y-95377000D01*
X127407490Y-95323314D01*
X127661727Y-95218005D01*
X127890535Y-95065120D01*
X128085120Y-94870535D01*
X128238005Y-94641727D01*
X128343314Y-94387490D01*
X128397000Y-94117592D01*
X128397000Y-93842408D01*
X128343314Y-93572510D01*
X128238005Y-93318273D01*
X128085120Y-93089465D01*
X127890535Y-92894880D01*
X127800918Y-92835000D01*
X132400199Y-92835000D01*
X133253628Y-93688430D01*
X133223000Y-93842408D01*
X133223000Y-94117592D01*
X133276686Y-94387490D01*
X133381995Y-94641727D01*
X133534880Y-94870535D01*
X133729465Y-95065120D01*
X133958273Y-95218005D01*
X134212510Y-95323314D01*
X134482408Y-95377000D01*
X134757592Y-95377000D01*
X134911570Y-95346372D01*
X135765001Y-96199803D01*
X135765000Y-100799082D01*
X135705120Y-100709465D01*
X135510535Y-100514880D01*
X135281727Y-100361995D01*
X135027490Y-100256686D01*
X134757592Y-100203000D01*
X134482408Y-100203000D01*
X134212510Y-100256686D01*
X133958273Y-100361995D01*
X133729465Y-100514880D01*
X133534880Y-100709465D01*
X133381995Y-100938273D01*
X133276686Y-101192510D01*
X133223000Y-101462408D01*
X133223000Y-101737592D01*
X133253628Y-101891570D01*
X131569003Y-103576196D01*
X131539999Y-103599999D01*
X131510681Y-103635724D01*
X131445026Y-103715724D01*
X131417216Y-103767753D01*
X131374454Y-103847754D01*
X131330997Y-103991015D01*
X131320000Y-104102668D01*
X131320000Y-104102678D01*
X131316324Y-104140000D01*
X131320000Y-104177322D01*
X131320001Y-119977667D01*
X131316324Y-120015000D01*
X131320001Y-120052332D01*
X131320001Y-120052333D01*
X131330998Y-120163986D01*
X131344180Y-120207442D01*
X131374454Y-120307246D01*
X131445026Y-120439276D01*
X131515379Y-120525000D01*
X131540000Y-120555001D01*
X131568998Y-120578799D01*
X132786201Y-121796003D01*
X132809999Y-121825001D01*
X132925724Y-121919974D01*
X133057753Y-121990546D01*
X133201014Y-122034003D01*
X133312667Y-122045000D01*
X133312676Y-122045000D01*
X133349999Y-122048676D01*
X133387322Y-122045000D01*
X170777678Y-122045000D01*
X170815000Y-122048676D01*
X170852322Y-122045000D01*
X170852333Y-122045000D01*
X170963986Y-122034003D01*
X171107247Y-121990546D01*
X171239276Y-121919974D01*
X171355001Y-121825001D01*
X171378804Y-121795997D01*
X172596004Y-120578798D01*
X172625001Y-120555001D01*
X172719974Y-120439276D01*
X172790546Y-120307247D01*
X172834003Y-120163986D01*
X172845000Y-120052333D01*
X172845000Y-120052324D01*
X172848676Y-120015001D01*
X172845000Y-119977678D01*
X172845000Y-94017323D01*
X172848676Y-93980000D01*
X172845000Y-93942677D01*
X172845000Y-93942667D01*
X172834003Y-93831014D01*
X172790546Y-93687753D01*
X172732931Y-93579964D01*
X172719974Y-93555723D01*
X172648799Y-93468997D01*
X172625001Y-93439999D01*
X172596003Y-93416201D01*
X170937301Y-91757500D01*
X172596003Y-90098799D01*
X172625001Y-90075001D01*
X172677171Y-90011432D01*
X172719974Y-89959277D01*
X172790546Y-89827247D01*
X172834003Y-89683986D01*
X172845000Y-89572333D01*
X172845000Y-89572323D01*
X172848676Y-89535000D01*
X172845000Y-89497677D01*
X172845000Y-66872325D01*
X172848676Y-66835000D01*
X172845000Y-66797675D01*
X172845000Y-66797667D01*
X172834003Y-66686014D01*
X172790546Y-66542753D01*
X172719974Y-66410724D01*
X172625001Y-66294999D01*
X172596004Y-66271202D01*
X171933803Y-65609002D01*
X171910001Y-65579999D01*
X171794276Y-65485026D01*
X171662247Y-65414454D01*
X171518986Y-65370997D01*
X171407333Y-65360000D01*
X171407322Y-65360000D01*
X171370000Y-65356324D01*
X171332678Y-65360000D01*
X170066339Y-65360000D01*
X169987675Y-65212830D01*
X169784608Y-64965392D01*
X169537170Y-64762325D01*
X169254869Y-64611432D01*
X168948556Y-64518513D01*
X168709824Y-64495000D01*
X166570176Y-64495000D01*
X166331444Y-64518513D01*
X166025131Y-64611432D01*
X165742830Y-64762325D01*
X165495392Y-64965392D01*
X165292325Y-65212830D01*
X165141432Y-65495131D01*
X165048513Y-65801444D01*
X165017138Y-66120000D01*
X165048513Y-66438556D01*
X165141432Y-66744869D01*
X165292325Y-67027170D01*
X165495392Y-67274608D01*
X165742830Y-67477675D01*
X166025131Y-67628568D01*
X166331444Y-67721487D01*
X166570176Y-67745000D01*
X168709824Y-67745000D01*
X168948556Y-67721487D01*
X169254869Y-67628568D01*
X169537170Y-67477675D01*
X169784608Y-67274608D01*
X169987675Y-67027170D01*
X170066339Y-66880000D01*
X171055199Y-66880000D01*
X171325000Y-67149802D01*
X171325001Y-89220197D01*
X169962745Y-90582453D01*
X169784608Y-90365392D01*
X169537170Y-90162325D01*
X169254869Y-90011432D01*
X168948556Y-89918513D01*
X168709824Y-89895000D01*
X166570176Y-89895000D01*
X166331444Y-89918513D01*
X166025131Y-90011432D01*
X165860000Y-90099696D01*
X165860000Y-86439811D01*
X166851740Y-85448072D01*
X169620000Y-85448072D01*
X169744482Y-85435812D01*
X169864180Y-85399502D01*
X169974494Y-85340537D01*
X170071185Y-85261185D01*
X170150537Y-85164494D01*
X170209502Y-85054180D01*
X170245812Y-84934482D01*
X170258072Y-84810000D01*
X170258072Y-82830000D01*
X170245812Y-82705518D01*
X170209502Y-82585820D01*
X170150537Y-82475506D01*
X170071185Y-82378815D01*
X169974494Y-82299463D01*
X169864180Y-82240498D01*
X169744482Y-82204188D01*
X169620000Y-82191928D01*
X165660000Y-82191928D01*
X165535518Y-82204188D01*
X165415820Y-82240498D01*
X165305506Y-82299463D01*
X165225000Y-82365532D01*
X165225000Y-82229801D01*
X165622943Y-81831858D01*
X165627237Y-81830556D01*
X165759266Y-81759984D01*
X165874991Y-81665011D01*
X165898794Y-81636008D01*
X167089802Y-80445000D01*
X168709824Y-80445000D01*
X168948556Y-80421487D01*
X169254869Y-80328568D01*
X169537170Y-80177675D01*
X169784608Y-79974608D01*
X169987675Y-79727170D01*
X170138568Y-79444869D01*
X170231487Y-79138556D01*
X170262862Y-78820000D01*
X170231487Y-78501444D01*
X170138568Y-78195131D01*
X169987675Y-77912830D01*
X169784608Y-77665392D01*
X169537170Y-77462325D01*
X169254869Y-77311432D01*
X168948556Y-77218513D01*
X168709824Y-77195000D01*
X168400000Y-77195000D01*
X168400000Y-72748072D01*
X169620000Y-72748072D01*
X169744482Y-72735812D01*
X169864180Y-72699502D01*
X169974494Y-72640537D01*
X170071185Y-72561185D01*
X170150537Y-72464494D01*
X170209502Y-72354180D01*
X170245812Y-72234482D01*
X170258072Y-72110000D01*
X170258072Y-70130000D01*
X170245812Y-70005518D01*
X170209502Y-69885820D01*
X170150537Y-69775506D01*
X170071185Y-69678815D01*
X169974494Y-69599463D01*
X169864180Y-69540498D01*
X169744482Y-69504188D01*
X169620000Y-69491928D01*
X165660000Y-69491928D01*
X165535518Y-69504188D01*
X165415820Y-69540498D01*
X165305506Y-69599463D01*
X165208815Y-69678815D01*
X165170912Y-69725000D01*
X150532322Y-69725000D01*
X150494999Y-69721324D01*
X150457676Y-69725000D01*
X150457667Y-69725000D01*
X150346014Y-69735997D01*
X150202753Y-69779454D01*
X150070724Y-69850026D01*
X149954999Y-69944999D01*
X149931201Y-69973997D01*
X148713998Y-71191201D01*
X148685000Y-71214999D01*
X148661202Y-71243997D01*
X148661201Y-71243998D01*
X148590026Y-71330724D01*
X148519454Y-71462754D01*
X148494726Y-71544276D01*
X148476097Y-71605689D01*
X148405120Y-71499465D01*
X148210535Y-71304880D01*
X147981727Y-71151995D01*
X147727490Y-71046686D01*
X147457592Y-70993000D01*
X147182408Y-70993000D01*
X146912510Y-71046686D01*
X146658273Y-71151995D01*
X146429465Y-71304880D01*
X146234880Y-71499465D01*
X146081995Y-71728273D01*
X145976686Y-71982510D01*
X145923000Y-72252408D01*
X145923000Y-72527592D01*
X145976686Y-72797490D01*
X146081995Y-73051727D01*
X146234880Y-73280535D01*
X146429465Y-73475120D01*
X146658273Y-73628005D01*
X146912510Y-73733314D01*
X147182408Y-73787000D01*
X147457592Y-73787000D01*
X147727490Y-73733314D01*
X147981727Y-73628005D01*
X148210535Y-73475120D01*
X148405120Y-73280535D01*
X148465001Y-73190917D01*
X148465000Y-76520198D01*
X147611570Y-77373628D01*
X147457592Y-77343000D01*
X147182408Y-77343000D01*
X147028430Y-77373628D01*
X145978804Y-76324003D01*
X145955001Y-76294999D01*
X145839276Y-76200026D01*
X145707247Y-76129454D01*
X145563986Y-76085997D01*
X145452333Y-76075000D01*
X145452322Y-76075000D01*
X145415000Y-76071324D01*
X145377678Y-76075000D01*
X136839802Y-76075000D01*
X134551802Y-73787000D01*
X134757592Y-73787000D01*
X135027490Y-73733314D01*
X135281727Y-73628005D01*
X135510535Y-73475120D01*
X135705120Y-73280535D01*
X135858005Y-73051727D01*
X135963314Y-72797490D01*
X136017000Y-72527592D01*
X136017000Y-72252408D01*
X140843000Y-72252408D01*
X140843000Y-72527592D01*
X140896686Y-72797490D01*
X141001995Y-73051727D01*
X141154880Y-73280535D01*
X141349465Y-73475120D01*
X141578273Y-73628005D01*
X141832510Y-73733314D01*
X142102408Y-73787000D01*
X142377592Y-73787000D01*
X142647490Y-73733314D01*
X142901727Y-73628005D01*
X143130535Y-73475120D01*
X143325120Y-73280535D01*
X143478005Y-73051727D01*
X143583314Y-72797490D01*
X143637000Y-72527592D01*
X143637000Y-72252408D01*
X143583314Y-71982510D01*
X143478005Y-71728273D01*
X143325120Y-71499465D01*
X143130535Y-71304880D01*
X142901727Y-71151995D01*
X142647490Y-71046686D01*
X142377592Y-70993000D01*
X142102408Y-70993000D01*
X141832510Y-71046686D01*
X141578273Y-71151995D01*
X141349465Y-71304880D01*
X141154880Y-71499465D01*
X141001995Y-71728273D01*
X140896686Y-71982510D01*
X140843000Y-72252408D01*
X136017000Y-72252408D01*
X135963314Y-71982510D01*
X135858005Y-71728273D01*
X135705120Y-71499465D01*
X135510535Y-71304880D01*
X135281727Y-71151995D01*
X135027490Y-71046686D01*
X134757592Y-70993000D01*
X134482408Y-70993000D01*
X134328430Y-71023628D01*
X132643804Y-69339003D01*
X132620001Y-69309999D01*
X132504276Y-69215026D01*
X132372247Y-69144454D01*
X132228986Y-69100997D01*
X132117333Y-69090000D01*
X132117322Y-69090000D01*
X132080000Y-69086324D01*
X132042678Y-69090000D01*
X111797322Y-69090000D01*
X111759999Y-69086324D01*
X111722676Y-69090000D01*
X111722667Y-69090000D01*
X111611014Y-69100997D01*
X111467753Y-69144454D01*
X111335724Y-69215026D01*
X111335722Y-69215027D01*
X111335723Y-69215027D01*
X111248996Y-69286201D01*
X111248992Y-69286205D01*
X111219999Y-69309999D01*
X111196205Y-69338992D01*
X109511570Y-71023628D01*
X109357592Y-70993000D01*
X109082408Y-70993000D01*
X108812510Y-71046686D01*
X108558273Y-71151995D01*
X108329465Y-71304880D01*
X108134880Y-71499465D01*
X107981995Y-71728273D01*
X107876686Y-71982510D01*
X107823000Y-72252408D01*
X107440000Y-72252408D01*
X107440000Y-65084801D01*
X107823000Y-64701801D01*
X107823000Y-64907592D01*
X107876686Y-65177490D01*
X107981995Y-65431727D01*
X108134880Y-65660535D01*
X108329465Y-65855120D01*
X108558273Y-66008005D01*
X108812510Y-66113314D01*
X109082408Y-66167000D01*
X109357592Y-66167000D01*
X109627490Y-66113314D01*
X109881727Y-66008005D01*
X110110535Y-65855120D01*
X110305120Y-65660535D01*
X110458005Y-65431727D01*
X110563314Y-65177490D01*
X110617000Y-64907592D01*
X110617000Y-64632408D01*
X110586372Y-64478430D01*
X110870800Y-64194002D01*
X110870804Y-64193997D01*
X111439802Y-63625000D01*
X116039082Y-63625000D01*
X115949465Y-63684880D01*
X115754880Y-63879465D01*
X115601995Y-64108273D01*
X115496686Y-64362510D01*
X115443000Y-64632408D01*
X115443000Y-64907592D01*
X115496686Y-65177490D01*
X115601995Y-65431727D01*
X115754880Y-65660535D01*
X115949465Y-65855120D01*
X116178273Y-66008005D01*
X116432510Y-66113314D01*
X116702408Y-66167000D01*
X116977592Y-66167000D01*
X117247490Y-66113314D01*
X117501727Y-66008005D01*
X117730535Y-65855120D01*
X117925120Y-65660535D01*
X118078005Y-65431727D01*
X118183314Y-65177490D01*
X118237000Y-64907592D01*
X118237000Y-64632408D01*
X118183314Y-64362510D01*
X118078005Y-64108273D01*
X117925120Y-63879465D01*
X117730535Y-63684880D01*
X117640918Y-63625000D01*
X121119082Y-63625000D01*
X121029465Y-63684880D01*
X120834880Y-63879465D01*
X120681995Y-64108273D01*
X120576686Y-64362510D01*
X120523000Y-64632408D01*
X120523000Y-64907592D01*
X120576686Y-65177490D01*
X120681995Y-65431727D01*
X120834880Y-65660535D01*
X121029465Y-65855120D01*
X121258273Y-66008005D01*
X121512510Y-66113314D01*
X121782408Y-66167000D01*
X122057592Y-66167000D01*
X122327490Y-66113314D01*
X122581727Y-66008005D01*
X122810535Y-65855120D01*
X123005120Y-65660535D01*
X123158005Y-65431727D01*
X123263314Y-65177490D01*
X123317000Y-64907592D01*
X123317000Y-64632408D01*
X123263314Y-64362510D01*
X123158005Y-64108273D01*
X123005120Y-63879465D01*
X122810535Y-63684880D01*
X122720918Y-63625000D01*
X126199082Y-63625000D01*
X126109465Y-63684880D01*
X125914880Y-63879465D01*
X125761995Y-64108273D01*
X125656686Y-64362510D01*
X125603000Y-64632408D01*
X125603000Y-64907592D01*
X125656686Y-65177490D01*
X125761995Y-65431727D01*
X125914880Y-65660535D01*
X126109465Y-65855120D01*
X126338273Y-66008005D01*
X126592510Y-66113314D01*
X126862408Y-66167000D01*
X127137592Y-66167000D01*
X127407490Y-66113314D01*
X127661727Y-66008005D01*
X127890535Y-65855120D01*
X128085120Y-65660535D01*
X128238005Y-65431727D01*
X128343314Y-65177490D01*
X128397000Y-64907592D01*
X128397000Y-64632408D01*
X128343314Y-64362510D01*
X128238005Y-64108273D01*
X128085120Y-63879465D01*
X127890535Y-63684880D01*
X127800918Y-63625000D01*
X132400199Y-63625000D01*
X133253628Y-64478430D01*
X133223000Y-64632408D01*
X133223000Y-64907592D01*
X133276686Y-65177490D01*
X133381995Y-65431727D01*
X133534880Y-65660535D01*
X133729465Y-65855120D01*
X133958273Y-66008005D01*
X134212510Y-66113314D01*
X134482408Y-66167000D01*
X134757592Y-66167000D01*
X135027490Y-66113314D01*
X135281727Y-66008005D01*
X135510535Y-65855120D01*
X135705120Y-65660535D01*
X135858005Y-65431727D01*
X135963314Y-65177490D01*
X136017000Y-64907592D01*
X136017000Y-64632408D01*
X140843000Y-64632408D01*
X140843000Y-64907592D01*
X140896686Y-65177490D01*
X141001995Y-65431727D01*
X141154880Y-65660535D01*
X141349465Y-65855120D01*
X141578273Y-66008005D01*
X141832510Y-66113314D01*
X142102408Y-66167000D01*
X142377592Y-66167000D01*
X142647490Y-66113314D01*
X142901727Y-66008005D01*
X143130535Y-65855120D01*
X143325120Y-65660535D01*
X143478005Y-65431727D01*
X143583314Y-65177490D01*
X143637000Y-64907592D01*
X143637000Y-64632408D01*
X143583314Y-64362510D01*
X143478005Y-64108273D01*
X143325120Y-63879465D01*
X143130535Y-63684880D01*
X142901727Y-63531995D01*
X142647490Y-63426686D01*
X142377592Y-63373000D01*
X142102408Y-63373000D01*
X141832510Y-63426686D01*
X141578273Y-63531995D01*
X141349465Y-63684880D01*
X141154880Y-63879465D01*
X141001995Y-64108273D01*
X140896686Y-64362510D01*
X140843000Y-64632408D01*
X136017000Y-64632408D01*
X135963314Y-64362510D01*
X135858005Y-64108273D01*
X135705120Y-63879465D01*
X135510535Y-63684880D01*
X135281727Y-63531995D01*
X135027490Y-63426686D01*
X134757592Y-63373000D01*
X134482408Y-63373000D01*
X134328430Y-63403628D01*
X134099792Y-63174991D01*
X144650190Y-63174991D01*
X145953628Y-64478430D01*
X145923000Y-64632408D01*
X145923000Y-64907592D01*
X145976686Y-65177490D01*
X146081995Y-65431727D01*
X146234880Y-65660535D01*
X146429465Y-65855120D01*
X146658273Y-66008005D01*
X146912510Y-66113314D01*
X147182408Y-66167000D01*
X147457592Y-66167000D01*
X147727490Y-66113314D01*
X147981727Y-66008005D01*
X148210535Y-65855120D01*
X148405120Y-65660535D01*
X148558005Y-65431727D01*
X148663314Y-65177490D01*
X148717000Y-64907592D01*
X148717000Y-64632408D01*
X151003000Y-64632408D01*
X151003000Y-64907592D01*
X151056686Y-65177490D01*
X151161995Y-65431727D01*
X151314880Y-65660535D01*
X151509465Y-65855120D01*
X151738273Y-66008005D01*
X151992510Y-66113314D01*
X152262408Y-66167000D01*
X152537592Y-66167000D01*
X152807490Y-66113314D01*
X153061727Y-66008005D01*
X153290535Y-65855120D01*
X153485120Y-65660535D01*
X153638005Y-65431727D01*
X153743314Y-65177490D01*
X153797000Y-64907592D01*
X153797000Y-64632408D01*
X153743314Y-64362510D01*
X153638005Y-64108273D01*
X153485120Y-63879465D01*
X153290535Y-63684880D01*
X153061727Y-63531995D01*
X152807490Y-63426686D01*
X152537592Y-63373000D01*
X152262408Y-63373000D01*
X151992510Y-63426686D01*
X151738273Y-63531995D01*
X151509465Y-63684880D01*
X151314880Y-63879465D01*
X151161995Y-64108273D01*
X151056686Y-64362510D01*
X151003000Y-64632408D01*
X148717000Y-64632408D01*
X148663314Y-64362510D01*
X148558005Y-64108273D01*
X148405120Y-63879465D01*
X148210535Y-63684880D01*
X147981727Y-63531995D01*
X147727490Y-63426686D01*
X147457592Y-63373000D01*
X147182408Y-63373000D01*
X147028430Y-63403628D01*
X145528795Y-61903994D01*
X145504992Y-61874990D01*
X145389267Y-61780017D01*
X145257238Y-61709445D01*
X145113977Y-61665988D01*
X145002324Y-61654991D01*
X145002313Y-61654991D01*
X144964991Y-61651315D01*
X144927669Y-61654991D01*
X109072334Y-61654991D01*
X109035009Y-61651315D01*
X108997684Y-61654991D01*
X108997676Y-61654991D01*
X108886023Y-61665988D01*
X108742762Y-61709445D01*
X108610733Y-61780017D01*
X108495008Y-61874990D01*
X108471210Y-61903988D01*
X106169003Y-64206196D01*
X106139999Y-64229999D01*
X106084871Y-64297174D01*
X106045026Y-64345724D01*
X106036054Y-64362510D01*
X105974454Y-64477754D01*
X105930997Y-64621015D01*
X105920000Y-64732668D01*
X105920000Y-64732678D01*
X105916324Y-64770000D01*
X105537000Y-64770000D01*
X105537000Y-60104872D01*
X154610000Y-60104872D01*
X154610000Y-60545128D01*
X154695890Y-60976925D01*
X154864369Y-61383669D01*
X155108962Y-61749729D01*
X155420271Y-62061038D01*
X155786331Y-62305631D01*
X156193075Y-62474110D01*
X156624872Y-62560000D01*
X157065128Y-62560000D01*
X157496925Y-62474110D01*
X157903669Y-62305631D01*
X158269729Y-62061038D01*
X158581038Y-61749729D01*
X158825631Y-61383669D01*
X158994110Y-60976925D01*
X159080000Y-60545128D01*
X159080000Y-60104872D01*
X158994110Y-59673075D01*
X158825631Y-59266331D01*
X158581038Y-58900271D01*
X158269729Y-58588962D01*
X157903669Y-58344369D01*
X157496925Y-58175890D01*
X157065128Y-58090000D01*
X156624872Y-58090000D01*
X156193075Y-58175890D01*
X155786331Y-58344369D01*
X155420271Y-58588962D01*
X155108962Y-58900271D01*
X154864369Y-59266331D01*
X154695890Y-59673075D01*
X154610000Y-60104872D01*
X105537000Y-60104872D01*
X105537000Y-56007000D01*
X177038000Y-56007000D01*
X177038000Y-123063000D01*
%TA.AperFunction,Conductor*%
D17*
G36*
X177038000Y-123063000D02*
G01*
X105537000Y-123063000D01*
X105537000Y-116619872D01*
X108890000Y-116619872D01*
X108890000Y-117060128D01*
X108975890Y-117491925D01*
X109144369Y-117898669D01*
X109388962Y-118264729D01*
X109700271Y-118576038D01*
X110066331Y-118820631D01*
X110473075Y-118989110D01*
X110904872Y-119075000D01*
X111345128Y-119075000D01*
X111776925Y-118989110D01*
X112183669Y-118820631D01*
X112549729Y-118576038D01*
X112861038Y-118264729D01*
X113105631Y-117898669D01*
X113274110Y-117491925D01*
X113360000Y-117060128D01*
X113360000Y-116619872D01*
X113274110Y-116188075D01*
X113105631Y-115781331D01*
X112861038Y-115415271D01*
X112549729Y-115103962D01*
X112183669Y-114859369D01*
X111776925Y-114690890D01*
X111345128Y-114605000D01*
X110904872Y-114605000D01*
X110473075Y-114690890D01*
X110066331Y-114859369D01*
X109700271Y-115103962D01*
X109388962Y-115415271D01*
X109144369Y-115781331D01*
X108975890Y-116188075D01*
X108890000Y-116619872D01*
X105537000Y-116619872D01*
X105537000Y-64770000D01*
X105916324Y-64770000D01*
X105920000Y-64807322D01*
X105920001Y-77432668D01*
X105916324Y-77470000D01*
X105920001Y-77507333D01*
X105927553Y-77584003D01*
X105930998Y-77618985D01*
X105974454Y-77762246D01*
X106045026Y-77894276D01*
X106112362Y-77976324D01*
X106140000Y-78010001D01*
X106168998Y-78033799D01*
X106875198Y-78740000D01*
X106168998Y-79446201D01*
X106140000Y-79469999D01*
X106116202Y-79498997D01*
X106116201Y-79498998D01*
X106045026Y-79585724D01*
X105974454Y-79717754D01*
X105971598Y-79727170D01*
X105930998Y-79861014D01*
X105923272Y-79939454D01*
X105916324Y-80010000D01*
X105920001Y-80047332D01*
X105920000Y-91402667D01*
X105920000Y-92672677D01*
X105916324Y-92710000D01*
X105920000Y-92747322D01*
X105920000Y-92747332D01*
X105930997Y-92858985D01*
X105957086Y-92944990D01*
X105974454Y-93002246D01*
X106045026Y-93134276D01*
X106084871Y-93182826D01*
X106139999Y-93250001D01*
X106169003Y-93273804D01*
X107386200Y-94491002D01*
X107409999Y-94520001D01*
X107525724Y-94614974D01*
X107657753Y-94685546D01*
X107801014Y-94729003D01*
X107912667Y-94740000D01*
X107912676Y-94740000D01*
X107949999Y-94743676D01*
X107987322Y-94740000D01*
X108047659Y-94740000D01*
X108134880Y-94870535D01*
X108329465Y-95065120D01*
X108558273Y-95218005D01*
X108812510Y-95323314D01*
X109082408Y-95377000D01*
X109357592Y-95377000D01*
X109627490Y-95323314D01*
X109881727Y-95218005D01*
X110110535Y-95065120D01*
X110305120Y-94870535D01*
X110458005Y-94641727D01*
X110563314Y-94387490D01*
X110617000Y-94117592D01*
X110617000Y-93842408D01*
X110563314Y-93572510D01*
X110458005Y-93318273D01*
X110305120Y-93089465D01*
X110110535Y-92894880D01*
X109881727Y-92741995D01*
X109627490Y-92636686D01*
X109357592Y-92583000D01*
X109082408Y-92583000D01*
X108812510Y-92636686D01*
X108558273Y-92741995D01*
X108329465Y-92894880D01*
X108134880Y-93089465D01*
X108134634Y-93089833D01*
X107440000Y-92395199D01*
X107440000Y-80324801D01*
X108134634Y-79630167D01*
X108134880Y-79630535D01*
X108329465Y-79825120D01*
X108558273Y-79978005D01*
X108812510Y-80083314D01*
X109082408Y-80137000D01*
X109357592Y-80137000D01*
X109627490Y-80083314D01*
X109881727Y-79978005D01*
X110110535Y-79825120D01*
X110305120Y-79630535D01*
X110458005Y-79401727D01*
X110563314Y-79147490D01*
X110617000Y-78877592D01*
X110617000Y-78602408D01*
X115443000Y-78602408D01*
X115443000Y-78877592D01*
X115496686Y-79147490D01*
X115601995Y-79401727D01*
X115754880Y-79630535D01*
X115949465Y-79825120D01*
X116178273Y-79978005D01*
X116432510Y-80083314D01*
X116702408Y-80137000D01*
X116977592Y-80137000D01*
X117247490Y-80083314D01*
X117501727Y-79978005D01*
X117730535Y-79825120D01*
X117925120Y-79630535D01*
X118078005Y-79401727D01*
X118183314Y-79147490D01*
X118237000Y-78877592D01*
X118237000Y-78602408D01*
X118183314Y-78332510D01*
X118078005Y-78078273D01*
X117925120Y-77849465D01*
X117730535Y-77654880D01*
X117501727Y-77501995D01*
X117247490Y-77396686D01*
X116977592Y-77343000D01*
X116702408Y-77343000D01*
X116432510Y-77396686D01*
X116178273Y-77501995D01*
X115949465Y-77654880D01*
X115754880Y-77849465D01*
X115601995Y-78078273D01*
X115496686Y-78332510D01*
X115443000Y-78602408D01*
X110617000Y-78602408D01*
X110563314Y-78332510D01*
X110458005Y-78078273D01*
X110305120Y-77849465D01*
X110110535Y-77654880D01*
X109881727Y-77501995D01*
X109627490Y-77396686D01*
X109357592Y-77343000D01*
X109082408Y-77343000D01*
X108812510Y-77396686D01*
X108558273Y-77501995D01*
X108329465Y-77654880D01*
X108134880Y-77849465D01*
X108134634Y-77849833D01*
X107440000Y-77155199D01*
X107440000Y-72252408D01*
X107823000Y-72252408D01*
X107823000Y-72527592D01*
X107876686Y-72797490D01*
X107981995Y-73051727D01*
X108134880Y-73280535D01*
X108329465Y-73475120D01*
X108558273Y-73628005D01*
X108812510Y-73733314D01*
X109082408Y-73787000D01*
X109357592Y-73787000D01*
X109627490Y-73733314D01*
X109881727Y-73628005D01*
X110110535Y-73475120D01*
X110305120Y-73280535D01*
X110458005Y-73051727D01*
X110563314Y-72797490D01*
X110617000Y-72527592D01*
X110617000Y-72252408D01*
X115443000Y-72252408D01*
X115443000Y-72527592D01*
X115496686Y-72797490D01*
X115601995Y-73051727D01*
X115754880Y-73280535D01*
X115949465Y-73475120D01*
X116178273Y-73628005D01*
X116432510Y-73733314D01*
X116702408Y-73787000D01*
X116977592Y-73787000D01*
X117247490Y-73733314D01*
X117501727Y-73628005D01*
X117730535Y-73475120D01*
X117925120Y-73280535D01*
X118078005Y-73051727D01*
X118183314Y-72797490D01*
X118237000Y-72527592D01*
X118237000Y-72252408D01*
X118183314Y-71982510D01*
X118078005Y-71728273D01*
X117925120Y-71499465D01*
X117730535Y-71304880D01*
X117501727Y-71151995D01*
X117247490Y-71046686D01*
X116977592Y-70993000D01*
X116702408Y-70993000D01*
X116432510Y-71046686D01*
X116178273Y-71151995D01*
X115949465Y-71304880D01*
X115754880Y-71499465D01*
X115601995Y-71728273D01*
X115496686Y-71982510D01*
X115443000Y-72252408D01*
X110617000Y-72252408D01*
X110586372Y-72098430D01*
X112074803Y-70610000D01*
X122625198Y-70610000D01*
X122211570Y-71023628D01*
X122057592Y-70993000D01*
X121782408Y-70993000D01*
X121512510Y-71046686D01*
X121258273Y-71151995D01*
X121029465Y-71304880D01*
X120834880Y-71499465D01*
X120747659Y-71630000D01*
X120687333Y-71630000D01*
X120650000Y-71626323D01*
X120612667Y-71630000D01*
X120501014Y-71640997D01*
X120357753Y-71684454D01*
X120225724Y-71755026D01*
X120109999Y-71849999D01*
X120086202Y-71878996D01*
X119504002Y-72461197D01*
X119474999Y-72484999D01*
X119419871Y-72552174D01*
X119380026Y-72600724D01*
X119336451Y-72682246D01*
X119309454Y-72732754D01*
X119265997Y-72876015D01*
X119255000Y-72987668D01*
X119255000Y-72987678D01*
X119251324Y-73025000D01*
X119255000Y-73062322D01*
X119255001Y-84417668D01*
X119251324Y-84455000D01*
X119255001Y-84492333D01*
X119262553Y-84569003D01*
X119265998Y-84603985D01*
X119309454Y-84747246D01*
X119380026Y-84879276D01*
X119425333Y-84934482D01*
X119475000Y-84995001D01*
X119503998Y-85018799D01*
X120553628Y-86068430D01*
X120523000Y-86222408D01*
X120523000Y-86497592D01*
X120576686Y-86767490D01*
X120681995Y-87021727D01*
X120834880Y-87250535D01*
X121029465Y-87445120D01*
X121119082Y-87505000D01*
X117640918Y-87505000D01*
X117730535Y-87445120D01*
X117925120Y-87250535D01*
X118078005Y-87021727D01*
X118183314Y-86767490D01*
X118237000Y-86497592D01*
X118237000Y-86222408D01*
X118183314Y-85952510D01*
X118078005Y-85698273D01*
X117925120Y-85469465D01*
X117730535Y-85274880D01*
X117501727Y-85121995D01*
X117247490Y-85016686D01*
X116977592Y-84963000D01*
X116702408Y-84963000D01*
X116432510Y-85016686D01*
X116178273Y-85121995D01*
X115949465Y-85274880D01*
X115754880Y-85469465D01*
X115601995Y-85698273D01*
X115496686Y-85952510D01*
X115443000Y-86222408D01*
X115443000Y-86497592D01*
X115496686Y-86767490D01*
X115601995Y-87021727D01*
X115754880Y-87250535D01*
X115949465Y-87445120D01*
X116039082Y-87505000D01*
X115249802Y-87505000D01*
X114863803Y-87119002D01*
X114840001Y-87089999D01*
X114724276Y-86995026D01*
X114592247Y-86924454D01*
X114448986Y-86880997D01*
X114337333Y-86870000D01*
X114337322Y-86870000D01*
X114300000Y-86866324D01*
X114262678Y-86870000D01*
X112074802Y-86870000D01*
X111053804Y-85849003D01*
X111030001Y-85819999D01*
X110914276Y-85725026D01*
X110782247Y-85654454D01*
X110638986Y-85610997D01*
X110527333Y-85600000D01*
X110527322Y-85600000D01*
X110490000Y-85596324D01*
X110452678Y-85600000D01*
X110392341Y-85600000D01*
X110305120Y-85469465D01*
X110110535Y-85274880D01*
X109881727Y-85121995D01*
X109627490Y-85016686D01*
X109357592Y-84963000D01*
X109082408Y-84963000D01*
X108812510Y-85016686D01*
X108558273Y-85121995D01*
X108329465Y-85274880D01*
X108134880Y-85469465D01*
X107981995Y-85698273D01*
X107876686Y-85952510D01*
X107823000Y-86222408D01*
X107823000Y-86497592D01*
X107876686Y-86767490D01*
X107981995Y-87021727D01*
X108134880Y-87250535D01*
X108329465Y-87445120D01*
X108558273Y-87598005D01*
X108812510Y-87703314D01*
X109082408Y-87757000D01*
X109357592Y-87757000D01*
X109627490Y-87703314D01*
X109881727Y-87598005D01*
X110110535Y-87445120D01*
X110305120Y-87250535D01*
X110305366Y-87250167D01*
X111000001Y-87944803D01*
X111000000Y-100015198D01*
X110305366Y-100709833D01*
X110305120Y-100709465D01*
X110110535Y-100514880D01*
X109881727Y-100361995D01*
X109627490Y-100256686D01*
X109357592Y-100203000D01*
X109082408Y-100203000D01*
X108812510Y-100256686D01*
X108558273Y-100361995D01*
X108329465Y-100514880D01*
X108134880Y-100709465D01*
X107981995Y-100938273D01*
X107876686Y-101192510D01*
X107823000Y-101462408D01*
X107823000Y-101737592D01*
X107876686Y-102007490D01*
X107981995Y-102261727D01*
X108134880Y-102490535D01*
X108329465Y-102685120D01*
X108558273Y-102838005D01*
X108812510Y-102943314D01*
X109082408Y-102997000D01*
X109357592Y-102997000D01*
X109627490Y-102943314D01*
X109881727Y-102838005D01*
X110110535Y-102685120D01*
X110305120Y-102490535D01*
X110392341Y-102360000D01*
X110452678Y-102360000D01*
X110490000Y-102363676D01*
X110527322Y-102360000D01*
X110527333Y-102360000D01*
X110638986Y-102349003D01*
X110782247Y-102305546D01*
X110914276Y-102234974D01*
X111030001Y-102140001D01*
X111053804Y-102110997D01*
X112271004Y-100893798D01*
X112300001Y-100870001D01*
X112394974Y-100754276D01*
X112465546Y-100622247D01*
X112509003Y-100478986D01*
X112520000Y-100367333D01*
X112520000Y-100367324D01*
X112523676Y-100330001D01*
X112520000Y-100292678D01*
X112520000Y-93842408D01*
X115443000Y-93842408D01*
X115443000Y-94117592D01*
X115496686Y-94387490D01*
X115601995Y-94641727D01*
X115754880Y-94870535D01*
X115949465Y-95065120D01*
X116178273Y-95218005D01*
X116432510Y-95323314D01*
X116702408Y-95377000D01*
X116977592Y-95377000D01*
X117247490Y-95323314D01*
X117501727Y-95218005D01*
X117730535Y-95065120D01*
X117925120Y-94870535D01*
X118078005Y-94641727D01*
X118183314Y-94387490D01*
X118237000Y-94117592D01*
X118237000Y-93842408D01*
X118183314Y-93572510D01*
X118078005Y-93318273D01*
X117925120Y-93089465D01*
X117730535Y-92894880D01*
X117501727Y-92741995D01*
X117247490Y-92636686D01*
X116977592Y-92583000D01*
X116702408Y-92583000D01*
X116432510Y-92636686D01*
X116178273Y-92741995D01*
X115949465Y-92894880D01*
X115754880Y-93089465D01*
X115601995Y-93318273D01*
X115496686Y-93572510D01*
X115443000Y-93842408D01*
X112520000Y-93842408D01*
X112520000Y-88390000D01*
X113985199Y-88390000D01*
X114371200Y-88776002D01*
X114394999Y-88805001D01*
X114423997Y-88828799D01*
X114510724Y-88899974D01*
X114642753Y-88970546D01*
X114786014Y-89014003D01*
X114935000Y-89028677D01*
X114972333Y-89025000D01*
X128232678Y-89025000D01*
X128270000Y-89028676D01*
X128307322Y-89025000D01*
X128307333Y-89025000D01*
X128418986Y-89014003D01*
X128562247Y-88970546D01*
X128694276Y-88899974D01*
X128810001Y-88805001D01*
X128833804Y-88775997D01*
X130284236Y-87325565D01*
X133834040Y-87325565D01*
X133901020Y-87565656D01*
X134150048Y-87682756D01*
X134417135Y-87749023D01*
X134692017Y-87761910D01*
X134964133Y-87720922D01*
X135223023Y-87627636D01*
X135338980Y-87565656D01*
X135405960Y-87325565D01*
X134620000Y-86539605D01*
X133834040Y-87325565D01*
X130284236Y-87325565D01*
X131177784Y-86432017D01*
X133218090Y-86432017D01*
X133259078Y-86704133D01*
X133352364Y-86963023D01*
X133414344Y-87078980D01*
X133654435Y-87145960D01*
X134440395Y-86360000D01*
X134799605Y-86360000D01*
X135585565Y-87145960D01*
X135825656Y-87078980D01*
X135942756Y-86829952D01*
X136009023Y-86562865D01*
X136021910Y-86287983D01*
X135980922Y-86015867D01*
X135887636Y-85756977D01*
X135825656Y-85641020D01*
X135585565Y-85574040D01*
X134799605Y-86360000D01*
X134440395Y-86360000D01*
X133654435Y-85574040D01*
X133414344Y-85641020D01*
X133297244Y-85890048D01*
X133230977Y-86157135D01*
X133218090Y-86432017D01*
X131177784Y-86432017D01*
X132394802Y-85215000D01*
X133884098Y-85215000D01*
X133834040Y-85394435D01*
X134620000Y-86180395D01*
X135405960Y-85394435D01*
X135355902Y-85215000D01*
X140020199Y-85215000D01*
X140873628Y-86068430D01*
X140843000Y-86222408D01*
X140843000Y-86497592D01*
X140896686Y-86767490D01*
X141001995Y-87021727D01*
X141154880Y-87250535D01*
X141349465Y-87445120D01*
X141578273Y-87598005D01*
X141832510Y-87703314D01*
X142102408Y-87757000D01*
X142377592Y-87757000D01*
X142647490Y-87703314D01*
X142901727Y-87598005D01*
X143130535Y-87445120D01*
X143325120Y-87250535D01*
X143412341Y-87120000D01*
X143830199Y-87120000D01*
X148028789Y-91318591D01*
X147992333Y-91315000D01*
X147992322Y-91315000D01*
X147955000Y-91311324D01*
X147917678Y-91315000D01*
X146087322Y-91315000D01*
X146049999Y-91311324D01*
X146012676Y-91315000D01*
X146012667Y-91315000D01*
X145901014Y-91325997D01*
X145757753Y-91369454D01*
X145625724Y-91440026D01*
X145509999Y-91534999D01*
X145486201Y-91563997D01*
X144268998Y-92781201D01*
X144240000Y-92804999D01*
X144216202Y-92833997D01*
X144216201Y-92833998D01*
X144145026Y-92920724D01*
X144074454Y-93052754D01*
X144061950Y-93093976D01*
X144030998Y-93196014D01*
X144027552Y-93230998D01*
X144016324Y-93345000D01*
X144020001Y-93382332D01*
X144020000Y-98745197D01*
X142531570Y-100233628D01*
X142377592Y-100203000D01*
X142102408Y-100203000D01*
X141832510Y-100256686D01*
X141578273Y-100361995D01*
X141349465Y-100514880D01*
X141154880Y-100709465D01*
X141001995Y-100938273D01*
X140896686Y-101192510D01*
X140843000Y-101462408D01*
X140843000Y-101737592D01*
X140896686Y-102007490D01*
X141001995Y-102261727D01*
X141154880Y-102490535D01*
X141349465Y-102685120D01*
X141578273Y-102838005D01*
X141832510Y-102943314D01*
X142102408Y-102997000D01*
X142377592Y-102997000D01*
X142647490Y-102943314D01*
X142901727Y-102838005D01*
X143130535Y-102685120D01*
X143325120Y-102490535D01*
X143478005Y-102261727D01*
X143583314Y-102007490D01*
X143637000Y-101737592D01*
X143637000Y-101462408D01*
X145923000Y-101462408D01*
X145923000Y-101737592D01*
X145976686Y-102007490D01*
X146081995Y-102261727D01*
X146234880Y-102490535D01*
X146429465Y-102685120D01*
X146658273Y-102838005D01*
X146912510Y-102943314D01*
X147182408Y-102997000D01*
X147457592Y-102997000D01*
X147727490Y-102943314D01*
X147981727Y-102838005D01*
X148210535Y-102685120D01*
X148405120Y-102490535D01*
X148558005Y-102261727D01*
X148663314Y-102007490D01*
X148717000Y-101737592D01*
X148717000Y-101462408D01*
X151003000Y-101462408D01*
X151003000Y-101737592D01*
X151056686Y-102007490D01*
X151161995Y-102261727D01*
X151314880Y-102490535D01*
X151509465Y-102685120D01*
X151738273Y-102838005D01*
X151992510Y-102943314D01*
X152262408Y-102997000D01*
X152537592Y-102997000D01*
X152807490Y-102943314D01*
X153061727Y-102838005D01*
X153290535Y-102685120D01*
X153485120Y-102490535D01*
X153638005Y-102261727D01*
X153743314Y-102007490D01*
X153797000Y-101737592D01*
X153797000Y-101462408D01*
X153743314Y-101192510D01*
X153638005Y-100938273D01*
X153485120Y-100709465D01*
X153290535Y-100514880D01*
X153061727Y-100361995D01*
X152807490Y-100256686D01*
X152537592Y-100203000D01*
X152262408Y-100203000D01*
X151992510Y-100256686D01*
X151738273Y-100361995D01*
X151509465Y-100514880D01*
X151314880Y-100709465D01*
X151161995Y-100938273D01*
X151056686Y-101192510D01*
X151003000Y-101462408D01*
X148717000Y-101462408D01*
X148663314Y-101192510D01*
X148558005Y-100938273D01*
X148405120Y-100709465D01*
X148210535Y-100514880D01*
X147981727Y-100361995D01*
X147727490Y-100256686D01*
X147457592Y-100203000D01*
X147182408Y-100203000D01*
X146912510Y-100256686D01*
X146658273Y-100361995D01*
X146429465Y-100514880D01*
X146234880Y-100709465D01*
X146081995Y-100938273D01*
X145976686Y-101192510D01*
X145923000Y-101462408D01*
X143637000Y-101462408D01*
X143606372Y-101308430D01*
X145291009Y-99623794D01*
X145320001Y-99600001D01*
X145343795Y-99571008D01*
X145343799Y-99571004D01*
X145414973Y-99484277D01*
X145414974Y-99484276D01*
X145485546Y-99352247D01*
X145529003Y-99208986D01*
X145540000Y-99097333D01*
X145540000Y-99097324D01*
X145543676Y-99060001D01*
X145540000Y-99022678D01*
X145540000Y-93659801D01*
X146364802Y-92835000D01*
X146519082Y-92835000D01*
X146429465Y-92894880D01*
X146234880Y-93089465D01*
X146081995Y-93318273D01*
X145976686Y-93572510D01*
X145923000Y-93842408D01*
X145923000Y-94117592D01*
X145976686Y-94387490D01*
X146081995Y-94641727D01*
X146234880Y-94870535D01*
X146429465Y-95065120D01*
X146658273Y-95218005D01*
X146912510Y-95323314D01*
X147182408Y-95377000D01*
X147457592Y-95377000D01*
X147611570Y-95346372D01*
X148713997Y-96448799D01*
X148714002Y-96448803D01*
X150566201Y-98301003D01*
X150589999Y-98330001D01*
X150705724Y-98424974D01*
X150837753Y-98495546D01*
X150981014Y-98539003D01*
X151092667Y-98550000D01*
X151092677Y-98550000D01*
X151130000Y-98553676D01*
X151167323Y-98550000D01*
X159982678Y-98550000D01*
X160020000Y-98553676D01*
X160057322Y-98550000D01*
X160057333Y-98550000D01*
X160168986Y-98539003D01*
X160312247Y-98495546D01*
X160444276Y-98424974D01*
X160560001Y-98330001D01*
X160583804Y-98300997D01*
X164465000Y-94419802D01*
X165170590Y-95125392D01*
X165129463Y-95175506D01*
X165070498Y-95285820D01*
X165034188Y-95405518D01*
X165021928Y-95530000D01*
X165021928Y-97510000D01*
X165034188Y-97634482D01*
X165070498Y-97754180D01*
X165129463Y-97864494D01*
X165208815Y-97961185D01*
X165305506Y-98040537D01*
X165415820Y-98099502D01*
X165535518Y-98135812D01*
X165660000Y-98148072D01*
X166880001Y-98148072D01*
X166880000Y-102595000D01*
X166570176Y-102595000D01*
X166331444Y-102618513D01*
X166025131Y-102711432D01*
X165742830Y-102862325D01*
X165495392Y-103065392D01*
X165292325Y-103312830D01*
X165141432Y-103595131D01*
X165048513Y-103901444D01*
X165017138Y-104220000D01*
X165048513Y-104538556D01*
X165141432Y-104844869D01*
X165292325Y-105127170D01*
X165495392Y-105374608D01*
X165742830Y-105577675D01*
X166025131Y-105728568D01*
X166331444Y-105821487D01*
X166570176Y-105845000D01*
X168709824Y-105845000D01*
X168948556Y-105821487D01*
X169254869Y-105728568D01*
X169537170Y-105577675D01*
X169784608Y-105374608D01*
X169987675Y-105127170D01*
X170055000Y-105001214D01*
X170055000Y-105730198D01*
X168193271Y-107591928D01*
X165660000Y-107591928D01*
X165535518Y-107604188D01*
X165415820Y-107640498D01*
X165305506Y-107699463D01*
X165208815Y-107778815D01*
X165129463Y-107875506D01*
X165070498Y-107985820D01*
X165034188Y-108105518D01*
X165021928Y-108230000D01*
X165021928Y-110210000D01*
X165034188Y-110334482D01*
X165070498Y-110454180D01*
X165129463Y-110564494D01*
X165208815Y-110661185D01*
X165305506Y-110740537D01*
X165415820Y-110799502D01*
X165535518Y-110835812D01*
X165660000Y-110848072D01*
X169620000Y-110848072D01*
X169744482Y-110835812D01*
X169864180Y-110799502D01*
X169974494Y-110740537D01*
X170071185Y-110661185D01*
X170150537Y-110564494D01*
X170209502Y-110454180D01*
X170245812Y-110334482D01*
X170258072Y-110210000D01*
X170258072Y-108230000D01*
X170245812Y-108105518D01*
X170209502Y-107985820D01*
X170150537Y-107875506D01*
X170109410Y-107825392D01*
X171325001Y-106609801D01*
X171325000Y-119700198D01*
X170500199Y-120525000D01*
X133664802Y-120525000D01*
X132840000Y-119700199D01*
X132840000Y-118674801D01*
X134056201Y-119891003D01*
X134079999Y-119920001D01*
X134195724Y-120014974D01*
X134327753Y-120085546D01*
X134471014Y-120129003D01*
X134582667Y-120140000D01*
X134582676Y-120140000D01*
X134619999Y-120143676D01*
X134657322Y-120140000D01*
X144742678Y-120140000D01*
X144780000Y-120143676D01*
X144817322Y-120140000D01*
X144817333Y-120140000D01*
X144928986Y-120129003D01*
X145072247Y-120085546D01*
X145204276Y-120014974D01*
X145320001Y-119920001D01*
X145343804Y-119890997D01*
X147979929Y-117254872D01*
X164770000Y-117254872D01*
X164770000Y-117695128D01*
X164855890Y-118126925D01*
X165024369Y-118533669D01*
X165268962Y-118899729D01*
X165580271Y-119211038D01*
X165946331Y-119455631D01*
X166353075Y-119624110D01*
X166784872Y-119710000D01*
X167225128Y-119710000D01*
X167656925Y-119624110D01*
X168063669Y-119455631D01*
X168429729Y-119211038D01*
X168741038Y-118899729D01*
X168985631Y-118533669D01*
X169154110Y-118126925D01*
X169240000Y-117695128D01*
X169240000Y-117254872D01*
X169154110Y-116823075D01*
X168985631Y-116416331D01*
X168741038Y-116050271D01*
X168429729Y-115738962D01*
X168063669Y-115494369D01*
X167656925Y-115325890D01*
X167225128Y-115240000D01*
X166784872Y-115240000D01*
X166353075Y-115325890D01*
X165946331Y-115494369D01*
X165580271Y-115738962D01*
X165268962Y-116050271D01*
X165024369Y-116416331D01*
X164855890Y-116823075D01*
X164770000Y-117254872D01*
X147979929Y-117254872D01*
X148465392Y-116769410D01*
X148515506Y-116810537D01*
X148625820Y-116869502D01*
X148745518Y-116905812D01*
X148870000Y-116918072D01*
X150850000Y-116918072D01*
X150974482Y-116905812D01*
X151094180Y-116869502D01*
X151204494Y-116810537D01*
X151301185Y-116731185D01*
X151380537Y-116634494D01*
X151439502Y-116524180D01*
X151475812Y-116404482D01*
X151488072Y-116280000D01*
X151488072Y-114427000D01*
X153235000Y-114427000D01*
X153235000Y-115417000D01*
X153291000Y-115731582D01*
X153407296Y-116029194D01*
X153579419Y-116298399D01*
X153800754Y-116528852D01*
X154062795Y-116711696D01*
X154355472Y-116839905D01*
X154481135Y-116870218D01*
X154733000Y-116750740D01*
X154733000Y-114427000D01*
X154987000Y-114427000D01*
X154987000Y-116750740D01*
X155238865Y-116870218D01*
X155364528Y-116839905D01*
X155657205Y-116711696D01*
X155919246Y-116528852D01*
X156140581Y-116298399D01*
X156312704Y-116029194D01*
X156429000Y-115731582D01*
X156485000Y-115417000D01*
X156485000Y-114427000D01*
X154987000Y-114427000D01*
X154733000Y-114427000D01*
X153235000Y-114427000D01*
X151488072Y-114427000D01*
X151488072Y-113183000D01*
X153235000Y-113183000D01*
X153235000Y-114173000D01*
X154733000Y-114173000D01*
X154733000Y-111849260D01*
X154987000Y-111849260D01*
X154987000Y-114173000D01*
X156485000Y-114173000D01*
X156485000Y-113183000D01*
X156429000Y-112868418D01*
X156312704Y-112570806D01*
X156140581Y-112301601D01*
X155919246Y-112071148D01*
X155657205Y-111888304D01*
X155364528Y-111760095D01*
X155238865Y-111729782D01*
X154987000Y-111849260D01*
X154733000Y-111849260D01*
X154481135Y-111729782D01*
X154355472Y-111760095D01*
X154062795Y-111888304D01*
X153800754Y-112071148D01*
X153579419Y-112301601D01*
X153407296Y-112570806D01*
X153291000Y-112868418D01*
X153235000Y-113183000D01*
X151488072Y-113183000D01*
X151488072Y-112320000D01*
X151475812Y-112195518D01*
X151439502Y-112075820D01*
X151380537Y-111965506D01*
X151301185Y-111868815D01*
X151204494Y-111789463D01*
X151094180Y-111730498D01*
X150974482Y-111694188D01*
X150850000Y-111681928D01*
X148870000Y-111681928D01*
X148745518Y-111694188D01*
X148625820Y-111730498D01*
X148515506Y-111789463D01*
X148418815Y-111868815D01*
X148339463Y-111965506D01*
X148280498Y-112075820D01*
X148244188Y-112195518D01*
X148231928Y-112320000D01*
X148231928Y-114853270D01*
X144465199Y-118620000D01*
X134934802Y-118620000D01*
X134110000Y-117795199D01*
X134110000Y-112320000D01*
X134261928Y-112320000D01*
X134261928Y-116280000D01*
X134274188Y-116404482D01*
X134310498Y-116524180D01*
X134369463Y-116634494D01*
X134448815Y-116731185D01*
X134545506Y-116810537D01*
X134655820Y-116869502D01*
X134775518Y-116905812D01*
X134900000Y-116918072D01*
X136880000Y-116918072D01*
X137004482Y-116905812D01*
X137124180Y-116869502D01*
X137234494Y-116810537D01*
X137331185Y-116731185D01*
X137410537Y-116634494D01*
X137469502Y-116524180D01*
X137505812Y-116404482D01*
X137518072Y-116280000D01*
X137518072Y-113230177D01*
X139265000Y-113230177D01*
X139265001Y-115369824D01*
X139288514Y-115608556D01*
X139381433Y-115914869D01*
X139532326Y-116197170D01*
X139735393Y-116444608D01*
X139982831Y-116647675D01*
X140265132Y-116798568D01*
X140571445Y-116891487D01*
X140890000Y-116922862D01*
X141208556Y-116891487D01*
X141514869Y-116798568D01*
X141797170Y-116647675D01*
X142044608Y-116444608D01*
X142247675Y-116197170D01*
X142398568Y-115914869D01*
X142491487Y-115608556D01*
X142515000Y-115369824D01*
X142515000Y-113230176D01*
X142491487Y-112991444D01*
X142398568Y-112685131D01*
X142247675Y-112402830D01*
X142044608Y-112155392D01*
X141797169Y-111952325D01*
X141514868Y-111801432D01*
X141208555Y-111708513D01*
X140890000Y-111677138D01*
X140571444Y-111708513D01*
X140265131Y-111801432D01*
X139982830Y-111952325D01*
X139735392Y-112155392D01*
X139532325Y-112402831D01*
X139381432Y-112685132D01*
X139288513Y-112991445D01*
X139265000Y-113230177D01*
X137518072Y-113230177D01*
X137518072Y-112320000D01*
X137505812Y-112195518D01*
X137469502Y-112075820D01*
X137410537Y-111965506D01*
X137331185Y-111868815D01*
X137234494Y-111789463D01*
X137124180Y-111730498D01*
X137004482Y-111694188D01*
X136880000Y-111681928D01*
X134900000Y-111681928D01*
X134775518Y-111694188D01*
X134655820Y-111730498D01*
X134545506Y-111789463D01*
X134448815Y-111868815D01*
X134369463Y-111965506D01*
X134310498Y-112075820D01*
X134274188Y-112195518D01*
X134261928Y-112320000D01*
X134110000Y-112320000D01*
X134110000Y-108899801D01*
X137036004Y-105973798D01*
X137065001Y-105950001D01*
X137109306Y-105896015D01*
X137159974Y-105834277D01*
X137230546Y-105702247D01*
X137255275Y-105620724D01*
X137274003Y-105558986D01*
X137285000Y-105447333D01*
X137285000Y-105447324D01*
X137288676Y-105410001D01*
X137285000Y-105372678D01*
X137285000Y-95922323D01*
X137288676Y-95885000D01*
X137285000Y-95847677D01*
X137285000Y-95847667D01*
X137274003Y-95736014D01*
X137230546Y-95592753D01*
X137159974Y-95460724D01*
X137065001Y-95344999D01*
X137036003Y-95321201D01*
X135986372Y-94271570D01*
X136017000Y-94117592D01*
X136017000Y-93842408D01*
X140843000Y-93842408D01*
X140843000Y-94117592D01*
X140896686Y-94387490D01*
X141001995Y-94641727D01*
X141154880Y-94870535D01*
X141349465Y-95065120D01*
X141578273Y-95218005D01*
X141832510Y-95323314D01*
X142102408Y-95377000D01*
X142377592Y-95377000D01*
X142647490Y-95323314D01*
X142901727Y-95218005D01*
X143130535Y-95065120D01*
X143325120Y-94870535D01*
X143478005Y-94641727D01*
X143583314Y-94387490D01*
X143637000Y-94117592D01*
X143637000Y-93842408D01*
X143583314Y-93572510D01*
X143478005Y-93318273D01*
X143325120Y-93089465D01*
X143130535Y-92894880D01*
X142901727Y-92741995D01*
X142647490Y-92636686D01*
X142377592Y-92583000D01*
X142102408Y-92583000D01*
X141832510Y-92636686D01*
X141578273Y-92741995D01*
X141349465Y-92894880D01*
X141154880Y-93089465D01*
X141001995Y-93318273D01*
X140896686Y-93572510D01*
X140843000Y-93842408D01*
X136017000Y-93842408D01*
X135963314Y-93572510D01*
X135858005Y-93318273D01*
X135705120Y-93089465D01*
X135510535Y-92894880D01*
X135281727Y-92741995D01*
X135027490Y-92636686D01*
X134757592Y-92583000D01*
X134482408Y-92583000D01*
X134328430Y-92613628D01*
X133278804Y-91564003D01*
X133255001Y-91534999D01*
X133139276Y-91440026D01*
X133007247Y-91369454D01*
X132863986Y-91325997D01*
X132752333Y-91315000D01*
X132752322Y-91315000D01*
X132715000Y-91311324D01*
X132677678Y-91315000D01*
X120052333Y-91315000D01*
X120015000Y-91311323D01*
X119977667Y-91315000D01*
X119866014Y-91325997D01*
X119722753Y-91369454D01*
X119590724Y-91440026D01*
X119474999Y-91534999D01*
X119451200Y-91563998D01*
X118868998Y-92146201D01*
X118840000Y-92169999D01*
X118816202Y-92198997D01*
X118816201Y-92198998D01*
X118745026Y-92285724D01*
X118674454Y-92417754D01*
X118671598Y-92427170D01*
X118630998Y-92561014D01*
X118627552Y-92595998D01*
X118616324Y-92710000D01*
X118620001Y-92747332D01*
X118620000Y-94596435D01*
X116328998Y-96887439D01*
X116300000Y-96911237D01*
X116276202Y-96940235D01*
X116276201Y-96940236D01*
X116205026Y-97026962D01*
X116134454Y-97158992D01*
X116104180Y-97258796D01*
X116090998Y-97302252D01*
X116080001Y-97413905D01*
X116076324Y-97451238D01*
X116080001Y-97488570D01*
X116080000Y-100427659D01*
X115949465Y-100514880D01*
X115754880Y-100709465D01*
X115601995Y-100938273D01*
X115496686Y-101192510D01*
X115443000Y-101462408D01*
X115443000Y-101737592D01*
X115496686Y-102007490D01*
X115601995Y-102261727D01*
X115754880Y-102490535D01*
X115949465Y-102685120D01*
X116178273Y-102838005D01*
X116432510Y-102943314D01*
X116702408Y-102997000D01*
X116977592Y-102997000D01*
X117247490Y-102943314D01*
X117501727Y-102838005D01*
X117730535Y-102685120D01*
X117925120Y-102490535D01*
X118078005Y-102261727D01*
X118183314Y-102007490D01*
X118237000Y-101737592D01*
X118237000Y-101462408D01*
X118183314Y-101192510D01*
X118078005Y-100938273D01*
X117925120Y-100709465D01*
X117730535Y-100514880D01*
X117600000Y-100427659D01*
X117600000Y-97766039D01*
X119891009Y-95475032D01*
X119920001Y-95451239D01*
X119943795Y-95422246D01*
X119943799Y-95422242D01*
X120014973Y-95335515D01*
X120014974Y-95335514D01*
X120085546Y-95203485D01*
X120129003Y-95060224D01*
X120140000Y-94948571D01*
X120140000Y-94948562D01*
X120143676Y-94911239D01*
X120140000Y-94873916D01*
X120140000Y-93024801D01*
X120329802Y-92835000D01*
X121119082Y-92835000D01*
X121029465Y-92894880D01*
X120834880Y-93089465D01*
X120681995Y-93318273D01*
X120576686Y-93572510D01*
X120523000Y-93842408D01*
X120523000Y-94117592D01*
X120576686Y-94387490D01*
X120681995Y-94641727D01*
X120834880Y-94870535D01*
X121029465Y-95065120D01*
X121258273Y-95218005D01*
X121512510Y-95323314D01*
X121782408Y-95377000D01*
X122057592Y-95377000D01*
X122211570Y-95346372D01*
X122495998Y-95630800D01*
X122496003Y-95630804D01*
X123065001Y-96199803D01*
X123065000Y-100799082D01*
X123005120Y-100709465D01*
X122810535Y-100514880D01*
X122581727Y-100361995D01*
X122327490Y-100256686D01*
X122057592Y-100203000D01*
X121782408Y-100203000D01*
X121512510Y-100256686D01*
X121258273Y-100361995D01*
X121029465Y-100514880D01*
X120834880Y-100709465D01*
X120681995Y-100938273D01*
X120576686Y-101192510D01*
X120523000Y-101462408D01*
X120523000Y-101737592D01*
X120576686Y-102007490D01*
X120681995Y-102261727D01*
X120834880Y-102490535D01*
X121029465Y-102685120D01*
X121258273Y-102838005D01*
X121512510Y-102943314D01*
X121782408Y-102997000D01*
X121988199Y-102997000D01*
X121408998Y-103576201D01*
X121380000Y-103599999D01*
X121356202Y-103628997D01*
X121356201Y-103628998D01*
X121285026Y-103715724D01*
X121214454Y-103847754D01*
X121170998Y-103991015D01*
X121156324Y-104140000D01*
X121160001Y-104177332D01*
X121160000Y-111681928D01*
X120930000Y-111681928D01*
X120805518Y-111694188D01*
X120685820Y-111730498D01*
X120575506Y-111789463D01*
X120478815Y-111868815D01*
X120399463Y-111965506D01*
X120340498Y-112075820D01*
X120304188Y-112195518D01*
X120291928Y-112320000D01*
X120291928Y-116280000D01*
X120304188Y-116404482D01*
X120340498Y-116524180D01*
X120399463Y-116634494D01*
X120478815Y-116731185D01*
X120575506Y-116810537D01*
X120685820Y-116869502D01*
X120805518Y-116905812D01*
X120930000Y-116918072D01*
X122910000Y-116918072D01*
X123034482Y-116905812D01*
X123154180Y-116869502D01*
X123264494Y-116810537D01*
X123361185Y-116731185D01*
X123440537Y-116634494D01*
X123499502Y-116524180D01*
X123535812Y-116404482D01*
X123548072Y-116280000D01*
X123548072Y-112320000D01*
X123535812Y-112195518D01*
X123499502Y-112075820D01*
X123440537Y-111965506D01*
X123361185Y-111868815D01*
X123264494Y-111789463D01*
X123154180Y-111730498D01*
X123034482Y-111694188D01*
X122910000Y-111681928D01*
X122680000Y-111681928D01*
X122680000Y-104454801D01*
X124336004Y-102798798D01*
X124365001Y-102775001D01*
X124459974Y-102659276D01*
X124460000Y-102659227D01*
X124460026Y-102659276D01*
X124481236Y-102685120D01*
X124554999Y-102775001D01*
X124584003Y-102798804D01*
X126160001Y-104374803D01*
X126160000Y-111873661D01*
X126012830Y-111952325D01*
X125765392Y-112155392D01*
X125562325Y-112402831D01*
X125411432Y-112685132D01*
X125396761Y-112733496D01*
X125372998Y-112752998D01*
X125278025Y-112868723D01*
X125207453Y-113000753D01*
X125163997Y-113144014D01*
X125149323Y-113292999D01*
X125163997Y-113441984D01*
X125207453Y-113585245D01*
X125278025Y-113717275D01*
X125295000Y-113737959D01*
X125295001Y-115369824D01*
X125318514Y-115608556D01*
X125411433Y-115914869D01*
X125562326Y-116197170D01*
X125765393Y-116444608D01*
X126012831Y-116647675D01*
X126295132Y-116798568D01*
X126601445Y-116891487D01*
X126920000Y-116922862D01*
X127238556Y-116891487D01*
X127544869Y-116798568D01*
X127827170Y-116647675D01*
X128074608Y-116444608D01*
X128277675Y-116197170D01*
X128428568Y-115914869D01*
X128521487Y-115608556D01*
X128545000Y-115369824D01*
X128545000Y-113230176D01*
X128521487Y-112991444D01*
X128428568Y-112685131D01*
X128277675Y-112402830D01*
X128074608Y-112155392D01*
X127827169Y-111952325D01*
X127680000Y-111873662D01*
X127680000Y-104097325D01*
X127683676Y-104060000D01*
X127680000Y-104022675D01*
X127680000Y-104022667D01*
X127669003Y-103911014D01*
X127625546Y-103767753D01*
X127554974Y-103635724D01*
X127460001Y-103519999D01*
X127431003Y-103496201D01*
X126931802Y-102997000D01*
X127137592Y-102997000D01*
X127407490Y-102943314D01*
X127661727Y-102838005D01*
X127890535Y-102685120D01*
X128085120Y-102490535D01*
X128238005Y-102261727D01*
X128343314Y-102007490D01*
X128397000Y-101737592D01*
X128397000Y-101462408D01*
X128343314Y-101192510D01*
X128238005Y-100938273D01*
X128085120Y-100709465D01*
X127890535Y-100514880D01*
X127661727Y-100361995D01*
X127407490Y-100256686D01*
X127137592Y-100203000D01*
X126862408Y-100203000D01*
X126592510Y-100256686D01*
X126338273Y-100361995D01*
X126109465Y-100514880D01*
X125914880Y-100709465D01*
X125855000Y-100799082D01*
X125855000Y-96199801D01*
X126476798Y-95578004D01*
X126476802Y-95577999D01*
X126708429Y-95346372D01*
X126862408Y-95377000D01*
X127137592Y-95377000D01*
X127407490Y-95323314D01*
X127661727Y-95218005D01*
X127890535Y-95065120D01*
X128085120Y-94870535D01*
X128238005Y-94641727D01*
X128343314Y-94387490D01*
X128397000Y-94117592D01*
X128397000Y-93842408D01*
X128343314Y-93572510D01*
X128238005Y-93318273D01*
X128085120Y-93089465D01*
X127890535Y-92894880D01*
X127800918Y-92835000D01*
X132400199Y-92835000D01*
X133253628Y-93688430D01*
X133223000Y-93842408D01*
X133223000Y-94117592D01*
X133276686Y-94387490D01*
X133381995Y-94641727D01*
X133534880Y-94870535D01*
X133729465Y-95065120D01*
X133958273Y-95218005D01*
X134212510Y-95323314D01*
X134482408Y-95377000D01*
X134757592Y-95377000D01*
X134911570Y-95346372D01*
X135765001Y-96199803D01*
X135765000Y-100799082D01*
X135705120Y-100709465D01*
X135510535Y-100514880D01*
X135281727Y-100361995D01*
X135027490Y-100256686D01*
X134757592Y-100203000D01*
X134482408Y-100203000D01*
X134212510Y-100256686D01*
X133958273Y-100361995D01*
X133729465Y-100514880D01*
X133534880Y-100709465D01*
X133381995Y-100938273D01*
X133276686Y-101192510D01*
X133223000Y-101462408D01*
X133223000Y-101737592D01*
X133253628Y-101891570D01*
X131569003Y-103576196D01*
X131539999Y-103599999D01*
X131510681Y-103635724D01*
X131445026Y-103715724D01*
X131417216Y-103767753D01*
X131374454Y-103847754D01*
X131330997Y-103991015D01*
X131320000Y-104102668D01*
X131320000Y-104102678D01*
X131316324Y-104140000D01*
X131320000Y-104177322D01*
X131320001Y-119977667D01*
X131316324Y-120015000D01*
X131320001Y-120052332D01*
X131320001Y-120052333D01*
X131330998Y-120163986D01*
X131344180Y-120207442D01*
X131374454Y-120307246D01*
X131445026Y-120439276D01*
X131515379Y-120525000D01*
X131540000Y-120555001D01*
X131568998Y-120578799D01*
X132786201Y-121796003D01*
X132809999Y-121825001D01*
X132925724Y-121919974D01*
X133057753Y-121990546D01*
X133201014Y-122034003D01*
X133312667Y-122045000D01*
X133312676Y-122045000D01*
X133349999Y-122048676D01*
X133387322Y-122045000D01*
X170777678Y-122045000D01*
X170815000Y-122048676D01*
X170852322Y-122045000D01*
X170852333Y-122045000D01*
X170963986Y-122034003D01*
X171107247Y-121990546D01*
X171239276Y-121919974D01*
X171355001Y-121825001D01*
X171378804Y-121795997D01*
X172596004Y-120578798D01*
X172625001Y-120555001D01*
X172719974Y-120439276D01*
X172790546Y-120307247D01*
X172834003Y-120163986D01*
X172845000Y-120052333D01*
X172845000Y-120052324D01*
X172848676Y-120015001D01*
X172845000Y-119977678D01*
X172845000Y-94017323D01*
X172848676Y-93980000D01*
X172845000Y-93942677D01*
X172845000Y-93942667D01*
X172834003Y-93831014D01*
X172790546Y-93687753D01*
X172732931Y-93579964D01*
X172719974Y-93555723D01*
X172648799Y-93468997D01*
X172625001Y-93439999D01*
X172596003Y-93416201D01*
X170937301Y-91757500D01*
X172596003Y-90098799D01*
X172625001Y-90075001D01*
X172677171Y-90011432D01*
X172719974Y-89959277D01*
X172790546Y-89827247D01*
X172834003Y-89683986D01*
X172845000Y-89572333D01*
X172845000Y-89572323D01*
X172848676Y-89535000D01*
X172845000Y-89497677D01*
X172845000Y-66872325D01*
X172848676Y-66835000D01*
X172845000Y-66797675D01*
X172845000Y-66797667D01*
X172834003Y-66686014D01*
X172790546Y-66542753D01*
X172719974Y-66410724D01*
X172625001Y-66294999D01*
X172596004Y-66271202D01*
X171933803Y-65609002D01*
X171910001Y-65579999D01*
X171794276Y-65485026D01*
X171662247Y-65414454D01*
X171518986Y-65370997D01*
X171407333Y-65360000D01*
X171407322Y-65360000D01*
X171370000Y-65356324D01*
X171332678Y-65360000D01*
X170066339Y-65360000D01*
X169987675Y-65212830D01*
X169784608Y-64965392D01*
X169537170Y-64762325D01*
X169254869Y-64611432D01*
X168948556Y-64518513D01*
X168709824Y-64495000D01*
X166570176Y-64495000D01*
X166331444Y-64518513D01*
X166025131Y-64611432D01*
X165742830Y-64762325D01*
X165495392Y-64965392D01*
X165292325Y-65212830D01*
X165141432Y-65495131D01*
X165048513Y-65801444D01*
X165017138Y-66120000D01*
X165048513Y-66438556D01*
X165141432Y-66744869D01*
X165292325Y-67027170D01*
X165495392Y-67274608D01*
X165742830Y-67477675D01*
X166025131Y-67628568D01*
X166331444Y-67721487D01*
X166570176Y-67745000D01*
X168709824Y-67745000D01*
X168948556Y-67721487D01*
X169254869Y-67628568D01*
X169537170Y-67477675D01*
X169784608Y-67274608D01*
X169987675Y-67027170D01*
X170066339Y-66880000D01*
X171055199Y-66880000D01*
X171325000Y-67149802D01*
X171325001Y-89220197D01*
X169962745Y-90582453D01*
X169784608Y-90365392D01*
X169537170Y-90162325D01*
X169254869Y-90011432D01*
X168948556Y-89918513D01*
X168709824Y-89895000D01*
X166570176Y-89895000D01*
X166331444Y-89918513D01*
X166025131Y-90011432D01*
X165860000Y-90099696D01*
X165860000Y-86439811D01*
X166851740Y-85448072D01*
X169620000Y-85448072D01*
X169744482Y-85435812D01*
X169864180Y-85399502D01*
X169974494Y-85340537D01*
X170071185Y-85261185D01*
X170150537Y-85164494D01*
X170209502Y-85054180D01*
X170245812Y-84934482D01*
X170258072Y-84810000D01*
X170258072Y-82830000D01*
X170245812Y-82705518D01*
X170209502Y-82585820D01*
X170150537Y-82475506D01*
X170071185Y-82378815D01*
X169974494Y-82299463D01*
X169864180Y-82240498D01*
X169744482Y-82204188D01*
X169620000Y-82191928D01*
X165660000Y-82191928D01*
X165535518Y-82204188D01*
X165415820Y-82240498D01*
X165305506Y-82299463D01*
X165225000Y-82365532D01*
X165225000Y-82229801D01*
X165622943Y-81831858D01*
X165627237Y-81830556D01*
X165759266Y-81759984D01*
X165874991Y-81665011D01*
X165898794Y-81636008D01*
X167089802Y-80445000D01*
X168709824Y-80445000D01*
X168948556Y-80421487D01*
X169254869Y-80328568D01*
X169537170Y-80177675D01*
X169784608Y-79974608D01*
X169987675Y-79727170D01*
X170138568Y-79444869D01*
X170231487Y-79138556D01*
X170262862Y-78820000D01*
X170231487Y-78501444D01*
X170138568Y-78195131D01*
X169987675Y-77912830D01*
X169784608Y-77665392D01*
X169537170Y-77462325D01*
X169254869Y-77311432D01*
X168948556Y-77218513D01*
X168709824Y-77195000D01*
X168400000Y-77195000D01*
X168400000Y-72748072D01*
X169620000Y-72748072D01*
X169744482Y-72735812D01*
X169864180Y-72699502D01*
X169974494Y-72640537D01*
X170071185Y-72561185D01*
X170150537Y-72464494D01*
X170209502Y-72354180D01*
X170245812Y-72234482D01*
X170258072Y-72110000D01*
X170258072Y-70130000D01*
X170245812Y-70005518D01*
X170209502Y-69885820D01*
X170150537Y-69775506D01*
X170071185Y-69678815D01*
X169974494Y-69599463D01*
X169864180Y-69540498D01*
X169744482Y-69504188D01*
X169620000Y-69491928D01*
X165660000Y-69491928D01*
X165535518Y-69504188D01*
X165415820Y-69540498D01*
X165305506Y-69599463D01*
X165208815Y-69678815D01*
X165170912Y-69725000D01*
X150532322Y-69725000D01*
X150494999Y-69721324D01*
X150457676Y-69725000D01*
X150457667Y-69725000D01*
X150346014Y-69735997D01*
X150202753Y-69779454D01*
X150070724Y-69850026D01*
X149954999Y-69944999D01*
X149931201Y-69973997D01*
X148713998Y-71191201D01*
X148685000Y-71214999D01*
X148661202Y-71243997D01*
X148661201Y-71243998D01*
X148590026Y-71330724D01*
X148519454Y-71462754D01*
X148494726Y-71544276D01*
X148476097Y-71605689D01*
X148405120Y-71499465D01*
X148210535Y-71304880D01*
X147981727Y-71151995D01*
X147727490Y-71046686D01*
X147457592Y-70993000D01*
X147182408Y-70993000D01*
X146912510Y-71046686D01*
X146658273Y-71151995D01*
X146429465Y-71304880D01*
X146234880Y-71499465D01*
X146081995Y-71728273D01*
X145976686Y-71982510D01*
X145923000Y-72252408D01*
X145923000Y-72527592D01*
X145976686Y-72797490D01*
X146081995Y-73051727D01*
X146234880Y-73280535D01*
X146429465Y-73475120D01*
X146658273Y-73628005D01*
X146912510Y-73733314D01*
X147182408Y-73787000D01*
X147457592Y-73787000D01*
X147727490Y-73733314D01*
X147981727Y-73628005D01*
X148210535Y-73475120D01*
X148405120Y-73280535D01*
X148465001Y-73190917D01*
X148465000Y-76520198D01*
X147611570Y-77373628D01*
X147457592Y-77343000D01*
X147182408Y-77343000D01*
X147028430Y-77373628D01*
X145978804Y-76324003D01*
X145955001Y-76294999D01*
X145839276Y-76200026D01*
X145707247Y-76129454D01*
X145563986Y-76085997D01*
X145452333Y-76075000D01*
X145452322Y-76075000D01*
X145415000Y-76071324D01*
X145377678Y-76075000D01*
X136839802Y-76075000D01*
X134551802Y-73787000D01*
X134757592Y-73787000D01*
X135027490Y-73733314D01*
X135281727Y-73628005D01*
X135510535Y-73475120D01*
X135705120Y-73280535D01*
X135858005Y-73051727D01*
X135963314Y-72797490D01*
X136017000Y-72527592D01*
X136017000Y-72252408D01*
X140843000Y-72252408D01*
X140843000Y-72527592D01*
X140896686Y-72797490D01*
X141001995Y-73051727D01*
X141154880Y-73280535D01*
X141349465Y-73475120D01*
X141578273Y-73628005D01*
X141832510Y-73733314D01*
X142102408Y-73787000D01*
X142377592Y-73787000D01*
X142647490Y-73733314D01*
X142901727Y-73628005D01*
X143130535Y-73475120D01*
X143325120Y-73280535D01*
X143478005Y-73051727D01*
X143583314Y-72797490D01*
X143637000Y-72527592D01*
X143637000Y-72252408D01*
X143583314Y-71982510D01*
X143478005Y-71728273D01*
X143325120Y-71499465D01*
X143130535Y-71304880D01*
X142901727Y-71151995D01*
X142647490Y-71046686D01*
X142377592Y-70993000D01*
X142102408Y-70993000D01*
X141832510Y-71046686D01*
X141578273Y-71151995D01*
X141349465Y-71304880D01*
X141154880Y-71499465D01*
X141001995Y-71728273D01*
X140896686Y-71982510D01*
X140843000Y-72252408D01*
X136017000Y-72252408D01*
X135963314Y-71982510D01*
X135858005Y-71728273D01*
X135705120Y-71499465D01*
X135510535Y-71304880D01*
X135281727Y-71151995D01*
X135027490Y-71046686D01*
X134757592Y-70993000D01*
X134482408Y-70993000D01*
X134328430Y-71023628D01*
X132643804Y-69339003D01*
X132620001Y-69309999D01*
X132504276Y-69215026D01*
X132372247Y-69144454D01*
X132228986Y-69100997D01*
X132117333Y-69090000D01*
X132117322Y-69090000D01*
X132080000Y-69086324D01*
X132042678Y-69090000D01*
X111797322Y-69090000D01*
X111759999Y-69086324D01*
X111722676Y-69090000D01*
X111722667Y-69090000D01*
X111611014Y-69100997D01*
X111467753Y-69144454D01*
X111335724Y-69215026D01*
X111335722Y-69215027D01*
X111335723Y-69215027D01*
X111248996Y-69286201D01*
X111248992Y-69286205D01*
X111219999Y-69309999D01*
X111196205Y-69338992D01*
X109511570Y-71023628D01*
X109357592Y-70993000D01*
X109082408Y-70993000D01*
X108812510Y-71046686D01*
X108558273Y-71151995D01*
X108329465Y-71304880D01*
X108134880Y-71499465D01*
X107981995Y-71728273D01*
X107876686Y-71982510D01*
X107823000Y-72252408D01*
X107440000Y-72252408D01*
X107440000Y-65084801D01*
X107823000Y-64701801D01*
X107823000Y-64907592D01*
X107876686Y-65177490D01*
X107981995Y-65431727D01*
X108134880Y-65660535D01*
X108329465Y-65855120D01*
X108558273Y-66008005D01*
X108812510Y-66113314D01*
X109082408Y-66167000D01*
X109357592Y-66167000D01*
X109627490Y-66113314D01*
X109881727Y-66008005D01*
X110110535Y-65855120D01*
X110305120Y-65660535D01*
X110458005Y-65431727D01*
X110563314Y-65177490D01*
X110617000Y-64907592D01*
X110617000Y-64632408D01*
X110586372Y-64478430D01*
X110870800Y-64194002D01*
X110870804Y-64193997D01*
X111439802Y-63625000D01*
X116039082Y-63625000D01*
X115949465Y-63684880D01*
X115754880Y-63879465D01*
X115601995Y-64108273D01*
X115496686Y-64362510D01*
X115443000Y-64632408D01*
X115443000Y-64907592D01*
X115496686Y-65177490D01*
X115601995Y-65431727D01*
X115754880Y-65660535D01*
X115949465Y-65855120D01*
X116178273Y-66008005D01*
X116432510Y-66113314D01*
X116702408Y-66167000D01*
X116977592Y-66167000D01*
X117247490Y-66113314D01*
X117501727Y-66008005D01*
X117730535Y-65855120D01*
X117925120Y-65660535D01*
X118078005Y-65431727D01*
X118183314Y-65177490D01*
X118237000Y-64907592D01*
X118237000Y-64632408D01*
X118183314Y-64362510D01*
X118078005Y-64108273D01*
X117925120Y-63879465D01*
X117730535Y-63684880D01*
X117640918Y-63625000D01*
X121119082Y-63625000D01*
X121029465Y-63684880D01*
X120834880Y-63879465D01*
X120681995Y-64108273D01*
X120576686Y-64362510D01*
X120523000Y-64632408D01*
X120523000Y-64907592D01*
X120576686Y-65177490D01*
X120681995Y-65431727D01*
X120834880Y-65660535D01*
X121029465Y-65855120D01*
X121258273Y-66008005D01*
X121512510Y-66113314D01*
X121782408Y-66167000D01*
X122057592Y-66167000D01*
X122327490Y-66113314D01*
X122581727Y-66008005D01*
X122810535Y-65855120D01*
X123005120Y-65660535D01*
X123158005Y-65431727D01*
X123263314Y-65177490D01*
X123317000Y-64907592D01*
X123317000Y-64632408D01*
X123263314Y-64362510D01*
X123158005Y-64108273D01*
X123005120Y-63879465D01*
X122810535Y-63684880D01*
X122720918Y-63625000D01*
X126199082Y-63625000D01*
X126109465Y-63684880D01*
X125914880Y-63879465D01*
X125761995Y-64108273D01*
X125656686Y-64362510D01*
X125603000Y-64632408D01*
X125603000Y-64907592D01*
X125656686Y-65177490D01*
X125761995Y-65431727D01*
X125914880Y-65660535D01*
X126109465Y-65855120D01*
X126338273Y-66008005D01*
X126592510Y-66113314D01*
X126862408Y-66167000D01*
X127137592Y-66167000D01*
X127407490Y-66113314D01*
X127661727Y-66008005D01*
X127890535Y-65855120D01*
X128085120Y-65660535D01*
X128238005Y-65431727D01*
X128343314Y-65177490D01*
X128397000Y-64907592D01*
X128397000Y-64632408D01*
X128343314Y-64362510D01*
X128238005Y-64108273D01*
X128085120Y-63879465D01*
X127890535Y-63684880D01*
X127800918Y-63625000D01*
X132400199Y-63625000D01*
X133253628Y-64478430D01*
X133223000Y-64632408D01*
X133223000Y-64907592D01*
X133276686Y-65177490D01*
X133381995Y-65431727D01*
X133534880Y-65660535D01*
X133729465Y-65855120D01*
X133958273Y-66008005D01*
X134212510Y-66113314D01*
X134482408Y-66167000D01*
X134757592Y-66167000D01*
X135027490Y-66113314D01*
X135281727Y-66008005D01*
X135510535Y-65855120D01*
X135705120Y-65660535D01*
X135858005Y-65431727D01*
X135963314Y-65177490D01*
X136017000Y-64907592D01*
X136017000Y-64632408D01*
X140843000Y-64632408D01*
X140843000Y-64907592D01*
X140896686Y-65177490D01*
X141001995Y-65431727D01*
X141154880Y-65660535D01*
X141349465Y-65855120D01*
X141578273Y-66008005D01*
X141832510Y-66113314D01*
X142102408Y-66167000D01*
X142377592Y-66167000D01*
X142647490Y-66113314D01*
X142901727Y-66008005D01*
X143130535Y-65855120D01*
X143325120Y-65660535D01*
X143478005Y-65431727D01*
X143583314Y-65177490D01*
X143637000Y-64907592D01*
X143637000Y-64632408D01*
X143583314Y-64362510D01*
X143478005Y-64108273D01*
X143325120Y-63879465D01*
X143130535Y-63684880D01*
X142901727Y-63531995D01*
X142647490Y-63426686D01*
X142377592Y-63373000D01*
X142102408Y-63373000D01*
X141832510Y-63426686D01*
X141578273Y-63531995D01*
X141349465Y-63684880D01*
X141154880Y-63879465D01*
X141001995Y-64108273D01*
X140896686Y-64362510D01*
X140843000Y-64632408D01*
X136017000Y-64632408D01*
X135963314Y-64362510D01*
X135858005Y-64108273D01*
X135705120Y-63879465D01*
X135510535Y-63684880D01*
X135281727Y-63531995D01*
X135027490Y-63426686D01*
X134757592Y-63373000D01*
X134482408Y-63373000D01*
X134328430Y-63403628D01*
X134099792Y-63174991D01*
X144650190Y-63174991D01*
X145953628Y-64478430D01*
X145923000Y-64632408D01*
X145923000Y-64907592D01*
X145976686Y-65177490D01*
X146081995Y-65431727D01*
X146234880Y-65660535D01*
X146429465Y-65855120D01*
X146658273Y-66008005D01*
X146912510Y-66113314D01*
X147182408Y-66167000D01*
X147457592Y-66167000D01*
X147727490Y-66113314D01*
X147981727Y-66008005D01*
X148210535Y-65855120D01*
X148405120Y-65660535D01*
X148558005Y-65431727D01*
X148663314Y-65177490D01*
X148717000Y-64907592D01*
X148717000Y-64632408D01*
X151003000Y-64632408D01*
X151003000Y-64907592D01*
X151056686Y-65177490D01*
X151161995Y-65431727D01*
X151314880Y-65660535D01*
X151509465Y-65855120D01*
X151738273Y-66008005D01*
X151992510Y-66113314D01*
X152262408Y-66167000D01*
X152537592Y-66167000D01*
X152807490Y-66113314D01*
X153061727Y-66008005D01*
X153290535Y-65855120D01*
X153485120Y-65660535D01*
X153638005Y-65431727D01*
X153743314Y-65177490D01*
X153797000Y-64907592D01*
X153797000Y-64632408D01*
X153743314Y-64362510D01*
X153638005Y-64108273D01*
X153485120Y-63879465D01*
X153290535Y-63684880D01*
X153061727Y-63531995D01*
X152807490Y-63426686D01*
X152537592Y-63373000D01*
X152262408Y-63373000D01*
X151992510Y-63426686D01*
X151738273Y-63531995D01*
X151509465Y-63684880D01*
X151314880Y-63879465D01*
X151161995Y-64108273D01*
X151056686Y-64362510D01*
X151003000Y-64632408D01*
X148717000Y-64632408D01*
X148663314Y-64362510D01*
X148558005Y-64108273D01*
X148405120Y-63879465D01*
X148210535Y-63684880D01*
X147981727Y-63531995D01*
X147727490Y-63426686D01*
X147457592Y-63373000D01*
X147182408Y-63373000D01*
X147028430Y-63403628D01*
X145528795Y-61903994D01*
X145504992Y-61874990D01*
X145389267Y-61780017D01*
X145257238Y-61709445D01*
X145113977Y-61665988D01*
X145002324Y-61654991D01*
X145002313Y-61654991D01*
X144964991Y-61651315D01*
X144927669Y-61654991D01*
X109072334Y-61654991D01*
X109035009Y-61651315D01*
X108997684Y-61654991D01*
X108997676Y-61654991D01*
X108886023Y-61665988D01*
X108742762Y-61709445D01*
X108610733Y-61780017D01*
X108495008Y-61874990D01*
X108471210Y-61903988D01*
X106169003Y-64206196D01*
X106139999Y-64229999D01*
X106084871Y-64297174D01*
X106045026Y-64345724D01*
X106036054Y-64362510D01*
X105974454Y-64477754D01*
X105930997Y-64621015D01*
X105920000Y-64732668D01*
X105920000Y-64732678D01*
X105916324Y-64770000D01*
X105537000Y-64770000D01*
X105537000Y-60104872D01*
X154610000Y-60104872D01*
X154610000Y-60545128D01*
X154695890Y-60976925D01*
X154864369Y-61383669D01*
X155108962Y-61749729D01*
X155420271Y-62061038D01*
X155786331Y-62305631D01*
X156193075Y-62474110D01*
X156624872Y-62560000D01*
X157065128Y-62560000D01*
X157496925Y-62474110D01*
X157903669Y-62305631D01*
X158269729Y-62061038D01*
X158581038Y-61749729D01*
X158825631Y-61383669D01*
X158994110Y-60976925D01*
X159080000Y-60545128D01*
X159080000Y-60104872D01*
X158994110Y-59673075D01*
X158825631Y-59266331D01*
X158581038Y-58900271D01*
X158269729Y-58588962D01*
X157903669Y-58344369D01*
X157496925Y-58175890D01*
X157065128Y-58090000D01*
X156624872Y-58090000D01*
X156193075Y-58175890D01*
X155786331Y-58344369D01*
X155420271Y-58588962D01*
X155108962Y-58900271D01*
X154864369Y-59266331D01*
X154695890Y-59673075D01*
X154610000Y-60104872D01*
X105537000Y-60104872D01*
X105537000Y-56007000D01*
X177038000Y-56007000D01*
X177038000Y-123063000D01*
G37*
%TD.AperFunction*%
%TD*%
M02*
