%TF.GenerationSoftware,KiCad,Pcbnew,(5.1.7)-1*%
%TF.CreationDate,2021-07-10T18:44:26+02:00*%
%TF.ProjectId,p_ytka_podno_nik,70427974-6b61-45f7-906f-646e6f5b6e69,rev?*%
%TF.SameCoordinates,Original*%
%TF.FileFunction,Other,Fab,Top*%
%FSLAX46Y46*%
G04 Gerber Fmt 4.6, Leading zero omitted, Abs format (unit mm)*
G04 Created by KiCad (PCBNEW (5.1.7)-1) date 2021-07-10 18:44:26*
%MOMM*%
%LPD*%
G01*
G04 APERTURE LIST*
%ADD10C,0.100000*%
%ADD11C,0.150000*%
G04 APERTURE END LIST*
D10*
%TO.C,J3*%
X139250000Y-114050000D02*
X142560000Y-114050000D01*
X138870000Y-114050000D02*
X139250000Y-114050000D01*
X142940000Y-114050000D02*
X142560000Y-114050000D01*
X142560000Y-113660000D02*
X139250000Y-113660000D01*
X143500000Y-113660000D02*
X142560000Y-113660000D01*
X137550000Y-113660000D02*
X139250000Y-113660000D01*
X134250000Y-113660000D02*
X137550000Y-113660000D01*
X133310000Y-113660000D02*
X134250000Y-113660000D01*
X137550000Y-114050000D02*
X134250000Y-114050000D01*
X137930000Y-114050000D02*
X137550000Y-114050000D01*
X133870000Y-114050000D02*
X134250000Y-114050000D01*
X134400000Y-109980000D02*
X137450000Y-109350000D01*
X134270000Y-109850000D02*
X137330000Y-109220000D01*
X139410000Y-109980000D02*
X142450000Y-109350000D01*
X139280000Y-109850000D02*
X142330000Y-109220000D01*
X137930000Y-108330000D02*
X133870000Y-108330000D01*
X133870000Y-110870000D02*
X133870000Y-108330000D01*
X137930000Y-110870000D02*
X133870000Y-110870000D01*
X137930000Y-110870000D02*
X137930000Y-108330000D01*
X142940000Y-110870000D02*
X138870000Y-110870000D01*
X142940000Y-108330000D02*
X142940000Y-110870000D01*
X138870000Y-108330000D02*
X142940000Y-108330000D01*
X138870000Y-110870000D02*
X138870000Y-108330000D01*
X143500000Y-111130000D02*
X143500000Y-112650000D01*
X133310000Y-111130000D02*
X133310000Y-108080000D01*
X133310000Y-111130000D02*
X143500000Y-111130000D01*
X143500000Y-113660000D02*
X143500000Y-118360000D01*
X143500000Y-112650000D02*
X143500000Y-113660000D01*
X133310000Y-113660000D02*
X133310000Y-111130000D01*
X133310000Y-120520000D02*
X133310000Y-113660000D01*
X142560000Y-114810000D02*
X142170000Y-114810000D01*
X139250000Y-114810000D02*
X139630000Y-114810000D01*
X137550000Y-114810000D02*
X137170000Y-114810000D01*
X134250000Y-114810000D02*
X134630000Y-114810000D01*
X134250000Y-117980000D02*
X134250000Y-114810000D01*
X137550000Y-117980000D02*
X134250000Y-117980000D01*
X137550000Y-117980000D02*
X137550000Y-114810000D01*
X139250000Y-117980000D02*
X139250000Y-114810000D01*
X142560000Y-117980000D02*
X139250000Y-117980000D01*
X142560000Y-117980000D02*
X142560000Y-114810000D01*
X133870000Y-118620000D02*
X133870000Y-120520000D01*
X137930000Y-118620000D02*
X137930000Y-114050000D01*
X137930000Y-118620000D02*
X133870000Y-118620000D01*
X142940000Y-118620000D02*
X142940000Y-120520000D01*
X138870000Y-118620000D02*
X138870000Y-114050000D01*
X138870000Y-118620000D02*
X142940000Y-118620000D01*
X133870000Y-120520000D02*
X137930000Y-120520000D01*
X133310000Y-120520000D02*
X133870000Y-120520000D01*
X133870000Y-114050000D02*
X133870000Y-118620000D01*
X137930000Y-120520000D02*
X138870000Y-120520000D01*
X137930000Y-120520000D02*
X137930000Y-118620000D01*
X142940000Y-120520000D02*
X143500000Y-120520000D01*
X138870000Y-120520000D02*
X142940000Y-120520000D01*
X142940000Y-114050000D02*
X142940000Y-118620000D01*
X138870000Y-120520000D02*
X138870000Y-118620000D01*
X144000000Y-118110000D02*
X144000000Y-119760000D01*
X143500000Y-118360000D02*
X143500000Y-119510000D01*
X144000000Y-118110000D02*
X143500000Y-118360000D01*
X143500000Y-119510000D02*
X143500000Y-120520000D01*
X144000000Y-119760000D02*
X143500000Y-119510000D01*
X144000000Y-112900000D02*
X143500000Y-112650000D01*
X144000000Y-108080000D02*
X144000000Y-112900000D01*
X143500000Y-108080000D02*
X144000000Y-108080000D01*
X143500000Y-108080000D02*
X133310000Y-108080000D01*
X143500000Y-108080000D02*
X143500000Y-111130000D01*
X139630000Y-116840000D02*
X139630000Y-114050000D01*
X139630000Y-114050000D02*
X142170000Y-114050000D01*
X142170000Y-116840000D02*
X142170000Y-114050000D01*
X139630000Y-116840000D02*
X142170000Y-116840000D01*
X134630000Y-116840000D02*
X134630000Y-114050000D01*
X134630000Y-114050000D02*
X137170000Y-114050000D01*
X137170000Y-116840000D02*
X137170000Y-114050000D01*
X134630000Y-116840000D02*
X137170000Y-116840000D01*
X134327028Y-109241301D02*
G75*
G03*
X134470000Y-110170000I432972J-408699D01*
G01*
X137429976Y-109228466D02*
G75*
G03*
X134270000Y-109300000I-1549976J-1361534D01*
G01*
X134430171Y-110141418D02*
G75*
G03*
X137420000Y-110180000I1519829J1911418D01*
G01*
X137375620Y-110213996D02*
G75*
G03*
X137420000Y-109250000I-455620J503996D01*
G01*
X139327028Y-109241301D02*
G75*
G03*
X139470000Y-110170000I432972J-408699D01*
G01*
X142428239Y-109238313D02*
G75*
G03*
X139280000Y-109300000I-1548239J-1351687D01*
G01*
X139437667Y-110131737D02*
G75*
G03*
X142420000Y-110180000I1522333J1901737D01*
G01*
X142375532Y-110223995D02*
G75*
G03*
X142430000Y-109250000I-455532J513995D01*
G01*
%TO.C,J1*%
X167390000Y-80460000D02*
X167390000Y-77150000D01*
X167390000Y-80840000D02*
X167390000Y-80460000D01*
X167390000Y-76770000D02*
X167390000Y-77150000D01*
X167000000Y-77150000D02*
X167000000Y-80460000D01*
X167000000Y-76210000D02*
X167000000Y-77150000D01*
X167000000Y-82160000D02*
X167000000Y-80460000D01*
X167000000Y-85460000D02*
X167000000Y-82160000D01*
X167000000Y-86400000D02*
X167000000Y-85460000D01*
X167390000Y-82160000D02*
X167390000Y-85460000D01*
X167390000Y-81780000D02*
X167390000Y-82160000D01*
X167390000Y-85840000D02*
X167390000Y-85460000D01*
X163320000Y-85310000D02*
X162690000Y-82260000D01*
X163190000Y-85440000D02*
X162560000Y-82380000D01*
X163320000Y-80300000D02*
X162690000Y-77260000D01*
X163190000Y-80430000D02*
X162560000Y-77380000D01*
X161670000Y-81780000D02*
X161670000Y-85840000D01*
X164210000Y-85840000D02*
X161670000Y-85840000D01*
X164210000Y-81780000D02*
X164210000Y-85840000D01*
X164210000Y-81780000D02*
X161670000Y-81780000D01*
X164210000Y-76770000D02*
X164210000Y-80840000D01*
X161670000Y-76770000D02*
X164210000Y-76770000D01*
X161670000Y-80840000D02*
X161670000Y-76770000D01*
X164210000Y-80840000D02*
X161670000Y-80840000D01*
X164470000Y-76210000D02*
X165990000Y-76210000D01*
X164470000Y-86400000D02*
X161420000Y-86400000D01*
X164470000Y-86400000D02*
X164470000Y-76210000D01*
X167000000Y-76210000D02*
X171700000Y-76210000D01*
X165990000Y-76210000D02*
X167000000Y-76210000D01*
X167000000Y-86400000D02*
X164470000Y-86400000D01*
X173860000Y-86400000D02*
X167000000Y-86400000D01*
X168150000Y-77150000D02*
X168150000Y-77540000D01*
X168150000Y-80460000D02*
X168150000Y-80080000D01*
X168150000Y-82160000D02*
X168150000Y-82540000D01*
X168150000Y-85460000D02*
X168150000Y-85080000D01*
X171320000Y-85460000D02*
X168150000Y-85460000D01*
X171320000Y-82160000D02*
X171320000Y-85460000D01*
X171320000Y-82160000D02*
X168150000Y-82160000D01*
X171320000Y-80460000D02*
X168150000Y-80460000D01*
X171320000Y-77150000D02*
X171320000Y-80460000D01*
X171320000Y-77150000D02*
X168150000Y-77150000D01*
X171960000Y-85840000D02*
X173860000Y-85840000D01*
X171960000Y-81780000D02*
X167390000Y-81780000D01*
X171960000Y-81780000D02*
X171960000Y-85840000D01*
X171960000Y-76770000D02*
X173860000Y-76770000D01*
X171960000Y-80840000D02*
X167390000Y-80840000D01*
X171960000Y-80840000D02*
X171960000Y-76770000D01*
X173860000Y-85840000D02*
X173860000Y-81780000D01*
X173860000Y-86400000D02*
X173860000Y-85840000D01*
X167390000Y-85840000D02*
X171960000Y-85840000D01*
X173860000Y-81780000D02*
X173860000Y-80840000D01*
X173860000Y-81780000D02*
X171960000Y-81780000D01*
X173860000Y-76770000D02*
X173860000Y-76210000D01*
X173860000Y-80840000D02*
X173860000Y-76770000D01*
X167390000Y-76770000D02*
X171960000Y-76770000D01*
X173860000Y-80840000D02*
X171960000Y-80840000D01*
X171450000Y-75710000D02*
X173100000Y-75710000D01*
X171700000Y-76210000D02*
X172850000Y-76210000D01*
X171450000Y-75710000D02*
X171700000Y-76210000D01*
X172850000Y-76210000D02*
X173860000Y-76210000D01*
X173100000Y-75710000D02*
X172850000Y-76210000D01*
X166240000Y-75710000D02*
X165990000Y-76210000D01*
X161420000Y-75710000D02*
X166240000Y-75710000D01*
X161420000Y-76210000D02*
X161420000Y-75710000D01*
X161420000Y-76210000D02*
X161420000Y-86400000D01*
X161420000Y-76210000D02*
X164470000Y-76210000D01*
X170180000Y-80080000D02*
X167390000Y-80080000D01*
X167390000Y-80080000D02*
X167390000Y-77540000D01*
X170180000Y-77540000D02*
X167390000Y-77540000D01*
X170180000Y-80080000D02*
X170180000Y-77540000D01*
X170180000Y-85080000D02*
X167390000Y-85080000D01*
X167390000Y-85080000D02*
X167390000Y-82540000D01*
X170180000Y-82540000D02*
X167390000Y-82540000D01*
X170180000Y-85080000D02*
X170180000Y-82540000D01*
X162581301Y-85382972D02*
G75*
G03*
X163510000Y-85240000I408699J432972D01*
G01*
X162568466Y-82280024D02*
G75*
G03*
X162640000Y-85440000I1361534J-1549976D01*
G01*
X163481418Y-85279829D02*
G75*
G03*
X163520000Y-82290000I-1911418J1519829D01*
G01*
X163553996Y-82334380D02*
G75*
G03*
X162590000Y-82290000I-503996J-455620D01*
G01*
X162581301Y-80382972D02*
G75*
G03*
X163510000Y-80240000I408699J432972D01*
G01*
X162578313Y-77281761D02*
G75*
G03*
X162640000Y-80430000I1351687J-1548239D01*
G01*
X163471737Y-80272333D02*
G75*
G03*
X163520000Y-77290000I-1901737J1522333D01*
G01*
X163563995Y-77334468D02*
G75*
G03*
X162590000Y-77280000I-513995J-455532D01*
G01*
%TO.C,J7*%
X167390000Y-93160000D02*
X167390000Y-89850000D01*
X167390000Y-93540000D02*
X167390000Y-93160000D01*
X167390000Y-89470000D02*
X167390000Y-89850000D01*
X167000000Y-89850000D02*
X167000000Y-93160000D01*
X167000000Y-88910000D02*
X167000000Y-89850000D01*
X167000000Y-94860000D02*
X167000000Y-93160000D01*
X167000000Y-98160000D02*
X167000000Y-94860000D01*
X167000000Y-99100000D02*
X167000000Y-98160000D01*
X167390000Y-94860000D02*
X167390000Y-98160000D01*
X167390000Y-94480000D02*
X167390000Y-94860000D01*
X167390000Y-98540000D02*
X167390000Y-98160000D01*
X163320000Y-98010000D02*
X162690000Y-94960000D01*
X163190000Y-98140000D02*
X162560000Y-95080000D01*
X163320000Y-93000000D02*
X162690000Y-89960000D01*
X163190000Y-93130000D02*
X162560000Y-90080000D01*
X161670000Y-94480000D02*
X161670000Y-98540000D01*
X164210000Y-98540000D02*
X161670000Y-98540000D01*
X164210000Y-94480000D02*
X164210000Y-98540000D01*
X164210000Y-94480000D02*
X161670000Y-94480000D01*
X164210000Y-89470000D02*
X164210000Y-93540000D01*
X161670000Y-89470000D02*
X164210000Y-89470000D01*
X161670000Y-93540000D02*
X161670000Y-89470000D01*
X164210000Y-93540000D02*
X161670000Y-93540000D01*
X164470000Y-88910000D02*
X165990000Y-88910000D01*
X164470000Y-99100000D02*
X161420000Y-99100000D01*
X164470000Y-99100000D02*
X164470000Y-88910000D01*
X167000000Y-88910000D02*
X171700000Y-88910000D01*
X165990000Y-88910000D02*
X167000000Y-88910000D01*
X167000000Y-99100000D02*
X164470000Y-99100000D01*
X173860000Y-99100000D02*
X167000000Y-99100000D01*
X168150000Y-89850000D02*
X168150000Y-90240000D01*
X168150000Y-93160000D02*
X168150000Y-92780000D01*
X168150000Y-94860000D02*
X168150000Y-95240000D01*
X168150000Y-98160000D02*
X168150000Y-97780000D01*
X171320000Y-98160000D02*
X168150000Y-98160000D01*
X171320000Y-94860000D02*
X171320000Y-98160000D01*
X171320000Y-94860000D02*
X168150000Y-94860000D01*
X171320000Y-93160000D02*
X168150000Y-93160000D01*
X171320000Y-89850000D02*
X171320000Y-93160000D01*
X171320000Y-89850000D02*
X168150000Y-89850000D01*
X171960000Y-98540000D02*
X173860000Y-98540000D01*
X171960000Y-94480000D02*
X167390000Y-94480000D01*
X171960000Y-94480000D02*
X171960000Y-98540000D01*
X171960000Y-89470000D02*
X173860000Y-89470000D01*
X171960000Y-93540000D02*
X167390000Y-93540000D01*
X171960000Y-93540000D02*
X171960000Y-89470000D01*
X173860000Y-98540000D02*
X173860000Y-94480000D01*
X173860000Y-99100000D02*
X173860000Y-98540000D01*
X167390000Y-98540000D02*
X171960000Y-98540000D01*
X173860000Y-94480000D02*
X173860000Y-93540000D01*
X173860000Y-94480000D02*
X171960000Y-94480000D01*
X173860000Y-89470000D02*
X173860000Y-88910000D01*
X173860000Y-93540000D02*
X173860000Y-89470000D01*
X167390000Y-89470000D02*
X171960000Y-89470000D01*
X173860000Y-93540000D02*
X171960000Y-93540000D01*
X171450000Y-88410000D02*
X173100000Y-88410000D01*
X171700000Y-88910000D02*
X172850000Y-88910000D01*
X171450000Y-88410000D02*
X171700000Y-88910000D01*
X172850000Y-88910000D02*
X173860000Y-88910000D01*
X173100000Y-88410000D02*
X172850000Y-88910000D01*
X166240000Y-88410000D02*
X165990000Y-88910000D01*
X161420000Y-88410000D02*
X166240000Y-88410000D01*
X161420000Y-88910000D02*
X161420000Y-88410000D01*
X161420000Y-88910000D02*
X161420000Y-99100000D01*
X161420000Y-88910000D02*
X164470000Y-88910000D01*
X170180000Y-92780000D02*
X167390000Y-92780000D01*
X167390000Y-92780000D02*
X167390000Y-90240000D01*
X170180000Y-90240000D02*
X167390000Y-90240000D01*
X170180000Y-92780000D02*
X170180000Y-90240000D01*
X170180000Y-97780000D02*
X167390000Y-97780000D01*
X167390000Y-97780000D02*
X167390000Y-95240000D01*
X170180000Y-95240000D02*
X167390000Y-95240000D01*
X170180000Y-97780000D02*
X170180000Y-95240000D01*
X162581301Y-98082972D02*
G75*
G03*
X163510000Y-97940000I408699J432972D01*
G01*
X162568466Y-94980024D02*
G75*
G03*
X162640000Y-98140000I1361534J-1549976D01*
G01*
X163481418Y-97979829D02*
G75*
G03*
X163520000Y-94990000I-1911418J1519829D01*
G01*
X163553996Y-95034380D02*
G75*
G03*
X162590000Y-94990000I-503996J-455620D01*
G01*
X162581301Y-93082972D02*
G75*
G03*
X163510000Y-92940000I408699J432972D01*
G01*
X162578313Y-89981761D02*
G75*
G03*
X162640000Y-93130000I1351687J-1548239D01*
G01*
X163471737Y-92972333D02*
G75*
G03*
X163520000Y-89990000I-1901737J1522333D01*
G01*
X163563995Y-90034468D02*
G75*
G03*
X162590000Y-89980000I-513995J-455532D01*
G01*
%TO.C,J6*%
X163563995Y-64634468D02*
G75*
G03*
X162590000Y-64580000I-513995J-455532D01*
G01*
X163471737Y-67572333D02*
G75*
G03*
X163520000Y-64590000I-1901737J1522333D01*
G01*
X162578313Y-64581761D02*
G75*
G03*
X162640000Y-67730000I1351687J-1548239D01*
G01*
X162581301Y-67682972D02*
G75*
G03*
X163510000Y-67540000I408699J432972D01*
G01*
X163553996Y-69634380D02*
G75*
G03*
X162590000Y-69590000I-503996J-455620D01*
G01*
X163481418Y-72579829D02*
G75*
G03*
X163520000Y-69590000I-1911418J1519829D01*
G01*
X162568466Y-69580024D02*
G75*
G03*
X162640000Y-72740000I1361534J-1549976D01*
G01*
X162581301Y-72682972D02*
G75*
G03*
X163510000Y-72540000I408699J432972D01*
G01*
X170180000Y-72380000D02*
X170180000Y-69840000D01*
X170180000Y-69840000D02*
X167390000Y-69840000D01*
X167390000Y-72380000D02*
X167390000Y-69840000D01*
X170180000Y-72380000D02*
X167390000Y-72380000D01*
X170180000Y-67380000D02*
X170180000Y-64840000D01*
X170180000Y-64840000D02*
X167390000Y-64840000D01*
X167390000Y-67380000D02*
X167390000Y-64840000D01*
X170180000Y-67380000D02*
X167390000Y-67380000D01*
X161420000Y-63510000D02*
X164470000Y-63510000D01*
X161420000Y-63510000D02*
X161420000Y-73700000D01*
X161420000Y-63510000D02*
X161420000Y-63010000D01*
X161420000Y-63010000D02*
X166240000Y-63010000D01*
X166240000Y-63010000D02*
X165990000Y-63510000D01*
X173100000Y-63010000D02*
X172850000Y-63510000D01*
X172850000Y-63510000D02*
X173860000Y-63510000D01*
X171450000Y-63010000D02*
X171700000Y-63510000D01*
X171700000Y-63510000D02*
X172850000Y-63510000D01*
X171450000Y-63010000D02*
X173100000Y-63010000D01*
X173860000Y-68140000D02*
X171960000Y-68140000D01*
X167390000Y-64070000D02*
X171960000Y-64070000D01*
X173860000Y-68140000D02*
X173860000Y-64070000D01*
X173860000Y-64070000D02*
X173860000Y-63510000D01*
X173860000Y-69080000D02*
X171960000Y-69080000D01*
X173860000Y-69080000D02*
X173860000Y-68140000D01*
X167390000Y-73140000D02*
X171960000Y-73140000D01*
X173860000Y-73700000D02*
X173860000Y-73140000D01*
X173860000Y-73140000D02*
X173860000Y-69080000D01*
X171960000Y-68140000D02*
X171960000Y-64070000D01*
X171960000Y-68140000D02*
X167390000Y-68140000D01*
X171960000Y-64070000D02*
X173860000Y-64070000D01*
X171960000Y-69080000D02*
X171960000Y-73140000D01*
X171960000Y-69080000D02*
X167390000Y-69080000D01*
X171960000Y-73140000D02*
X173860000Y-73140000D01*
X171320000Y-64450000D02*
X168150000Y-64450000D01*
X171320000Y-64450000D02*
X171320000Y-67760000D01*
X171320000Y-67760000D02*
X168150000Y-67760000D01*
X171320000Y-69460000D02*
X168150000Y-69460000D01*
X171320000Y-69460000D02*
X171320000Y-72760000D01*
X171320000Y-72760000D02*
X168150000Y-72760000D01*
X168150000Y-72760000D02*
X168150000Y-72380000D01*
X168150000Y-69460000D02*
X168150000Y-69840000D01*
X168150000Y-67760000D02*
X168150000Y-67380000D01*
X168150000Y-64450000D02*
X168150000Y-64840000D01*
X173860000Y-73700000D02*
X167000000Y-73700000D01*
X167000000Y-73700000D02*
X164470000Y-73700000D01*
X165990000Y-63510000D02*
X167000000Y-63510000D01*
X167000000Y-63510000D02*
X171700000Y-63510000D01*
X164470000Y-73700000D02*
X164470000Y-63510000D01*
X164470000Y-73700000D02*
X161420000Y-73700000D01*
X164470000Y-63510000D02*
X165990000Y-63510000D01*
X164210000Y-68140000D02*
X161670000Y-68140000D01*
X161670000Y-68140000D02*
X161670000Y-64070000D01*
X161670000Y-64070000D02*
X164210000Y-64070000D01*
X164210000Y-64070000D02*
X164210000Y-68140000D01*
X164210000Y-69080000D02*
X161670000Y-69080000D01*
X164210000Y-69080000D02*
X164210000Y-73140000D01*
X164210000Y-73140000D02*
X161670000Y-73140000D01*
X161670000Y-69080000D02*
X161670000Y-73140000D01*
X163190000Y-67730000D02*
X162560000Y-64680000D01*
X163320000Y-67600000D02*
X162690000Y-64560000D01*
X163190000Y-72740000D02*
X162560000Y-69680000D01*
X163320000Y-72610000D02*
X162690000Y-69560000D01*
X167390000Y-73140000D02*
X167390000Y-72760000D01*
X167390000Y-69080000D02*
X167390000Y-69460000D01*
X167390000Y-69460000D02*
X167390000Y-72760000D01*
X167000000Y-73700000D02*
X167000000Y-72760000D01*
X167000000Y-72760000D02*
X167000000Y-69460000D01*
X167000000Y-69460000D02*
X167000000Y-67760000D01*
X167000000Y-63510000D02*
X167000000Y-64450000D01*
X167000000Y-64450000D02*
X167000000Y-67760000D01*
X167390000Y-64070000D02*
X167390000Y-64450000D01*
X167390000Y-68140000D02*
X167390000Y-67760000D01*
X167390000Y-67760000D02*
X167390000Y-64450000D01*
%TO.C,J5*%
X153220000Y-114050000D02*
X156530000Y-114050000D01*
X152840000Y-114050000D02*
X153220000Y-114050000D01*
X156910000Y-114050000D02*
X156530000Y-114050000D01*
X156530000Y-113660000D02*
X153220000Y-113660000D01*
X157470000Y-113660000D02*
X156530000Y-113660000D01*
X151520000Y-113660000D02*
X153220000Y-113660000D01*
X148220000Y-113660000D02*
X151520000Y-113660000D01*
X147280000Y-113660000D02*
X148220000Y-113660000D01*
X151520000Y-114050000D02*
X148220000Y-114050000D01*
X151900000Y-114050000D02*
X151520000Y-114050000D01*
X147840000Y-114050000D02*
X148220000Y-114050000D01*
X148370000Y-109980000D02*
X151420000Y-109350000D01*
X148240000Y-109850000D02*
X151300000Y-109220000D01*
X153380000Y-109980000D02*
X156420000Y-109350000D01*
X153250000Y-109850000D02*
X156300000Y-109220000D01*
X151900000Y-108330000D02*
X147840000Y-108330000D01*
X147840000Y-110870000D02*
X147840000Y-108330000D01*
X151900000Y-110870000D02*
X147840000Y-110870000D01*
X151900000Y-110870000D02*
X151900000Y-108330000D01*
X156910000Y-110870000D02*
X152840000Y-110870000D01*
X156910000Y-108330000D02*
X156910000Y-110870000D01*
X152840000Y-108330000D02*
X156910000Y-108330000D01*
X152840000Y-110870000D02*
X152840000Y-108330000D01*
X157470000Y-111130000D02*
X157470000Y-112650000D01*
X147280000Y-111130000D02*
X147280000Y-108080000D01*
X147280000Y-111130000D02*
X157470000Y-111130000D01*
X157470000Y-113660000D02*
X157470000Y-118360000D01*
X157470000Y-112650000D02*
X157470000Y-113660000D01*
X147280000Y-113660000D02*
X147280000Y-111130000D01*
X147280000Y-120520000D02*
X147280000Y-113660000D01*
X156530000Y-114810000D02*
X156140000Y-114810000D01*
X153220000Y-114810000D02*
X153600000Y-114810000D01*
X151520000Y-114810000D02*
X151140000Y-114810000D01*
X148220000Y-114810000D02*
X148600000Y-114810000D01*
X148220000Y-117980000D02*
X148220000Y-114810000D01*
X151520000Y-117980000D02*
X148220000Y-117980000D01*
X151520000Y-117980000D02*
X151520000Y-114810000D01*
X153220000Y-117980000D02*
X153220000Y-114810000D01*
X156530000Y-117980000D02*
X153220000Y-117980000D01*
X156530000Y-117980000D02*
X156530000Y-114810000D01*
X147840000Y-118620000D02*
X147840000Y-120520000D01*
X151900000Y-118620000D02*
X151900000Y-114050000D01*
X151900000Y-118620000D02*
X147840000Y-118620000D01*
X156910000Y-118620000D02*
X156910000Y-120520000D01*
X152840000Y-118620000D02*
X152840000Y-114050000D01*
X152840000Y-118620000D02*
X156910000Y-118620000D01*
X147840000Y-120520000D02*
X151900000Y-120520000D01*
X147280000Y-120520000D02*
X147840000Y-120520000D01*
X147840000Y-114050000D02*
X147840000Y-118620000D01*
X151900000Y-120520000D02*
X152840000Y-120520000D01*
X151900000Y-120520000D02*
X151900000Y-118620000D01*
X156910000Y-120520000D02*
X157470000Y-120520000D01*
X152840000Y-120520000D02*
X156910000Y-120520000D01*
X156910000Y-114050000D02*
X156910000Y-118620000D01*
X152840000Y-120520000D02*
X152840000Y-118620000D01*
X157970000Y-118110000D02*
X157970000Y-119760000D01*
X157470000Y-118360000D02*
X157470000Y-119510000D01*
X157970000Y-118110000D02*
X157470000Y-118360000D01*
X157470000Y-119510000D02*
X157470000Y-120520000D01*
X157970000Y-119760000D02*
X157470000Y-119510000D01*
X157970000Y-112900000D02*
X157470000Y-112650000D01*
X157970000Y-108080000D02*
X157970000Y-112900000D01*
X157470000Y-108080000D02*
X157970000Y-108080000D01*
X157470000Y-108080000D02*
X147280000Y-108080000D01*
X157470000Y-108080000D02*
X157470000Y-111130000D01*
X153600000Y-116840000D02*
X153600000Y-114050000D01*
X153600000Y-114050000D02*
X156140000Y-114050000D01*
X156140000Y-116840000D02*
X156140000Y-114050000D01*
X153600000Y-116840000D02*
X156140000Y-116840000D01*
X148600000Y-116840000D02*
X148600000Y-114050000D01*
X148600000Y-114050000D02*
X151140000Y-114050000D01*
X151140000Y-116840000D02*
X151140000Y-114050000D01*
X148600000Y-116840000D02*
X151140000Y-116840000D01*
X148297028Y-109241301D02*
G75*
G03*
X148440000Y-110170000I432972J-408699D01*
G01*
X151399976Y-109228466D02*
G75*
G03*
X148240000Y-109300000I-1549976J-1361534D01*
G01*
X148400171Y-110141418D02*
G75*
G03*
X151390000Y-110180000I1519829J1911418D01*
G01*
X151345620Y-110213996D02*
G75*
G03*
X151390000Y-109250000I-455620J503996D01*
G01*
X153297028Y-109241301D02*
G75*
G03*
X153440000Y-110170000I432972J-408699D01*
G01*
X156398239Y-109238313D02*
G75*
G03*
X153250000Y-109300000I-1548239J-1351687D01*
G01*
X153407667Y-110131737D02*
G75*
G03*
X156390000Y-110180000I1522333J1901737D01*
G01*
X156345532Y-110223995D02*
G75*
G03*
X156400000Y-109250000I-455532J513995D01*
G01*
%TO.C,J4*%
X125280000Y-114050000D02*
X128590000Y-114050000D01*
X124900000Y-114050000D02*
X125280000Y-114050000D01*
X128970000Y-114050000D02*
X128590000Y-114050000D01*
X128590000Y-113660000D02*
X125280000Y-113660000D01*
X129530000Y-113660000D02*
X128590000Y-113660000D01*
X123580000Y-113660000D02*
X125280000Y-113660000D01*
X120280000Y-113660000D02*
X123580000Y-113660000D01*
X119340000Y-113660000D02*
X120280000Y-113660000D01*
X123580000Y-114050000D02*
X120280000Y-114050000D01*
X123960000Y-114050000D02*
X123580000Y-114050000D01*
X119900000Y-114050000D02*
X120280000Y-114050000D01*
X120430000Y-109980000D02*
X123480000Y-109350000D01*
X120300000Y-109850000D02*
X123360000Y-109220000D01*
X125440000Y-109980000D02*
X128480000Y-109350000D01*
X125310000Y-109850000D02*
X128360000Y-109220000D01*
X123960000Y-108330000D02*
X119900000Y-108330000D01*
X119900000Y-110870000D02*
X119900000Y-108330000D01*
X123960000Y-110870000D02*
X119900000Y-110870000D01*
X123960000Y-110870000D02*
X123960000Y-108330000D01*
X128970000Y-110870000D02*
X124900000Y-110870000D01*
X128970000Y-108330000D02*
X128970000Y-110870000D01*
X124900000Y-108330000D02*
X128970000Y-108330000D01*
X124900000Y-110870000D02*
X124900000Y-108330000D01*
X129530000Y-111130000D02*
X129530000Y-112650000D01*
X119340000Y-111130000D02*
X119340000Y-108080000D01*
X119340000Y-111130000D02*
X129530000Y-111130000D01*
X129530000Y-113660000D02*
X129530000Y-118360000D01*
X129530000Y-112650000D02*
X129530000Y-113660000D01*
X119340000Y-113660000D02*
X119340000Y-111130000D01*
X119340000Y-120520000D02*
X119340000Y-113660000D01*
X128590000Y-114810000D02*
X128200000Y-114810000D01*
X125280000Y-114810000D02*
X125660000Y-114810000D01*
X123580000Y-114810000D02*
X123200000Y-114810000D01*
X120280000Y-114810000D02*
X120660000Y-114810000D01*
X120280000Y-117980000D02*
X120280000Y-114810000D01*
X123580000Y-117980000D02*
X120280000Y-117980000D01*
X123580000Y-117980000D02*
X123580000Y-114810000D01*
X125280000Y-117980000D02*
X125280000Y-114810000D01*
X128590000Y-117980000D02*
X125280000Y-117980000D01*
X128590000Y-117980000D02*
X128590000Y-114810000D01*
X119900000Y-118620000D02*
X119900000Y-120520000D01*
X123960000Y-118620000D02*
X123960000Y-114050000D01*
X123960000Y-118620000D02*
X119900000Y-118620000D01*
X128970000Y-118620000D02*
X128970000Y-120520000D01*
X124900000Y-118620000D02*
X124900000Y-114050000D01*
X124900000Y-118620000D02*
X128970000Y-118620000D01*
X119900000Y-120520000D02*
X123960000Y-120520000D01*
X119340000Y-120520000D02*
X119900000Y-120520000D01*
X119900000Y-114050000D02*
X119900000Y-118620000D01*
X123960000Y-120520000D02*
X124900000Y-120520000D01*
X123960000Y-120520000D02*
X123960000Y-118620000D01*
X128970000Y-120520000D02*
X129530000Y-120520000D01*
X124900000Y-120520000D02*
X128970000Y-120520000D01*
X128970000Y-114050000D02*
X128970000Y-118620000D01*
X124900000Y-120520000D02*
X124900000Y-118620000D01*
X130030000Y-118110000D02*
X130030000Y-119760000D01*
X129530000Y-118360000D02*
X129530000Y-119510000D01*
X130030000Y-118110000D02*
X129530000Y-118360000D01*
X129530000Y-119510000D02*
X129530000Y-120520000D01*
X130030000Y-119760000D02*
X129530000Y-119510000D01*
X130030000Y-112900000D02*
X129530000Y-112650000D01*
X130030000Y-108080000D02*
X130030000Y-112900000D01*
X129530000Y-108080000D02*
X130030000Y-108080000D01*
X129530000Y-108080000D02*
X119340000Y-108080000D01*
X129530000Y-108080000D02*
X129530000Y-111130000D01*
X125660000Y-116840000D02*
X125660000Y-114050000D01*
X125660000Y-114050000D02*
X128200000Y-114050000D01*
X128200000Y-116840000D02*
X128200000Y-114050000D01*
X125660000Y-116840000D02*
X128200000Y-116840000D01*
X120660000Y-116840000D02*
X120660000Y-114050000D01*
X120660000Y-114050000D02*
X123200000Y-114050000D01*
X123200000Y-116840000D02*
X123200000Y-114050000D01*
X120660000Y-116840000D02*
X123200000Y-116840000D01*
X120357028Y-109241301D02*
G75*
G03*
X120500000Y-110170000I432972J-408699D01*
G01*
X123459976Y-109228466D02*
G75*
G03*
X120300000Y-109300000I-1549976J-1361534D01*
G01*
X120460171Y-110141418D02*
G75*
G03*
X123450000Y-110180000I1519829J1911418D01*
G01*
X123405620Y-110213996D02*
G75*
G03*
X123450000Y-109250000I-455620J503996D01*
G01*
X125357028Y-109241301D02*
G75*
G03*
X125500000Y-110170000I432972J-408699D01*
G01*
X128458239Y-109238313D02*
G75*
G03*
X125310000Y-109300000I-1548239J-1351687D01*
G01*
X125467667Y-110131737D02*
G75*
G03*
X128450000Y-110180000I1522333J1901737D01*
G01*
X128405532Y-110223995D02*
G75*
G03*
X128460000Y-109250000I-455532J513995D01*
G01*
%TO.C,J2*%
X167390000Y-105860000D02*
X167390000Y-102550000D01*
X167390000Y-106240000D02*
X167390000Y-105860000D01*
X167390000Y-102170000D02*
X167390000Y-102550000D01*
X167000000Y-102550000D02*
X167000000Y-105860000D01*
X167000000Y-101610000D02*
X167000000Y-102550000D01*
X167000000Y-107560000D02*
X167000000Y-105860000D01*
X167000000Y-110860000D02*
X167000000Y-107560000D01*
X167000000Y-111800000D02*
X167000000Y-110860000D01*
X167390000Y-107560000D02*
X167390000Y-110860000D01*
X167390000Y-107180000D02*
X167390000Y-107560000D01*
X167390000Y-111240000D02*
X167390000Y-110860000D01*
X163320000Y-110710000D02*
X162690000Y-107660000D01*
X163190000Y-110840000D02*
X162560000Y-107780000D01*
X163320000Y-105700000D02*
X162690000Y-102660000D01*
X163190000Y-105830000D02*
X162560000Y-102780000D01*
X161670000Y-107180000D02*
X161670000Y-111240000D01*
X164210000Y-111240000D02*
X161670000Y-111240000D01*
X164210000Y-107180000D02*
X164210000Y-111240000D01*
X164210000Y-107180000D02*
X161670000Y-107180000D01*
X164210000Y-102170000D02*
X164210000Y-106240000D01*
X161670000Y-102170000D02*
X164210000Y-102170000D01*
X161670000Y-106240000D02*
X161670000Y-102170000D01*
X164210000Y-106240000D02*
X161670000Y-106240000D01*
X164470000Y-101610000D02*
X165990000Y-101610000D01*
X164470000Y-111800000D02*
X161420000Y-111800000D01*
X164470000Y-111800000D02*
X164470000Y-101610000D01*
X167000000Y-101610000D02*
X171700000Y-101610000D01*
X165990000Y-101610000D02*
X167000000Y-101610000D01*
X167000000Y-111800000D02*
X164470000Y-111800000D01*
X173860000Y-111800000D02*
X167000000Y-111800000D01*
X168150000Y-102550000D02*
X168150000Y-102940000D01*
X168150000Y-105860000D02*
X168150000Y-105480000D01*
X168150000Y-107560000D02*
X168150000Y-107940000D01*
X168150000Y-110860000D02*
X168150000Y-110480000D01*
X171320000Y-110860000D02*
X168150000Y-110860000D01*
X171320000Y-107560000D02*
X171320000Y-110860000D01*
X171320000Y-107560000D02*
X168150000Y-107560000D01*
X171320000Y-105860000D02*
X168150000Y-105860000D01*
X171320000Y-102550000D02*
X171320000Y-105860000D01*
X171320000Y-102550000D02*
X168150000Y-102550000D01*
X171960000Y-111240000D02*
X173860000Y-111240000D01*
X171960000Y-107180000D02*
X167390000Y-107180000D01*
X171960000Y-107180000D02*
X171960000Y-111240000D01*
X171960000Y-102170000D02*
X173860000Y-102170000D01*
X171960000Y-106240000D02*
X167390000Y-106240000D01*
X171960000Y-106240000D02*
X171960000Y-102170000D01*
X173860000Y-111240000D02*
X173860000Y-107180000D01*
X173860000Y-111800000D02*
X173860000Y-111240000D01*
X167390000Y-111240000D02*
X171960000Y-111240000D01*
X173860000Y-107180000D02*
X173860000Y-106240000D01*
X173860000Y-107180000D02*
X171960000Y-107180000D01*
X173860000Y-102170000D02*
X173860000Y-101610000D01*
X173860000Y-106240000D02*
X173860000Y-102170000D01*
X167390000Y-102170000D02*
X171960000Y-102170000D01*
X173860000Y-106240000D02*
X171960000Y-106240000D01*
X171450000Y-101110000D02*
X173100000Y-101110000D01*
X171700000Y-101610000D02*
X172850000Y-101610000D01*
X171450000Y-101110000D02*
X171700000Y-101610000D01*
X172850000Y-101610000D02*
X173860000Y-101610000D01*
X173100000Y-101110000D02*
X172850000Y-101610000D01*
X166240000Y-101110000D02*
X165990000Y-101610000D01*
X161420000Y-101110000D02*
X166240000Y-101110000D01*
X161420000Y-101610000D02*
X161420000Y-101110000D01*
X161420000Y-101610000D02*
X161420000Y-111800000D01*
X161420000Y-101610000D02*
X164470000Y-101610000D01*
X170180000Y-105480000D02*
X167390000Y-105480000D01*
X167390000Y-105480000D02*
X167390000Y-102940000D01*
X170180000Y-102940000D02*
X167390000Y-102940000D01*
X170180000Y-105480000D02*
X170180000Y-102940000D01*
X170180000Y-110480000D02*
X167390000Y-110480000D01*
X167390000Y-110480000D02*
X167390000Y-107940000D01*
X170180000Y-107940000D02*
X167390000Y-107940000D01*
X170180000Y-110480000D02*
X170180000Y-107940000D01*
X162581301Y-110782972D02*
G75*
G03*
X163510000Y-110640000I408699J432972D01*
G01*
X162568466Y-107680024D02*
G75*
G03*
X162640000Y-110840000I1361534J-1549976D01*
G01*
X163481418Y-110679829D02*
G75*
G03*
X163520000Y-107690000I-1911418J1519829D01*
G01*
X163553996Y-107734380D02*
G75*
G03*
X162590000Y-107690000I-503996J-455620D01*
G01*
X162581301Y-105782972D02*
G75*
G03*
X163510000Y-105640000I408699J432972D01*
G01*
X162578313Y-102681761D02*
G75*
G03*
X162640000Y-105830000I1351687J-1548239D01*
G01*
X163471737Y-105672333D02*
G75*
G03*
X163520000Y-102690000I-1901737J1522333D01*
G01*
X163563995Y-102734468D02*
G75*
G03*
X162590000Y-102680000I-513995J-455532D01*
G01*
%TD*%
%TO.C,REF\u002A\u002A*%
D11*
X147725952Y-64977380D02*
X147725952Y-63977380D01*
X148059285Y-64691666D01*
X148392619Y-63977380D01*
X148392619Y-64977380D01*
X149011666Y-64977380D02*
X148916428Y-64929761D01*
X148868809Y-64882142D01*
X148821190Y-64786904D01*
X148821190Y-64501190D01*
X148868809Y-64405952D01*
X148916428Y-64358333D01*
X149011666Y-64310714D01*
X149154523Y-64310714D01*
X149249761Y-64358333D01*
X149297380Y-64405952D01*
X149345000Y-64501190D01*
X149345000Y-64786904D01*
X149297380Y-64882142D01*
X149249761Y-64929761D01*
X149154523Y-64977380D01*
X149011666Y-64977380D01*
X150202142Y-64310714D02*
X150202142Y-64977380D01*
X149773571Y-64310714D02*
X149773571Y-64834523D01*
X149821190Y-64929761D01*
X149916428Y-64977380D01*
X150059285Y-64977380D01*
X150154523Y-64929761D01*
X150202142Y-64882142D01*
X150678333Y-64310714D02*
X150678333Y-64977380D01*
X150678333Y-64405952D02*
X150725952Y-64358333D01*
X150821190Y-64310714D01*
X150964047Y-64310714D01*
X151059285Y-64358333D01*
X151106904Y-64453571D01*
X151106904Y-64977380D01*
X151440238Y-64310714D02*
X151821190Y-64310714D01*
X151583095Y-63977380D02*
X151583095Y-64834523D01*
X151630714Y-64929761D01*
X151725952Y-64977380D01*
X151821190Y-64977380D01*
X152154523Y-64977380D02*
X152154523Y-64310714D01*
X152154523Y-63977380D02*
X152106904Y-64025000D01*
X152154523Y-64072619D01*
X152202142Y-64025000D01*
X152154523Y-63977380D01*
X152154523Y-64072619D01*
X152630714Y-64310714D02*
X152630714Y-64977380D01*
X152630714Y-64405952D02*
X152678333Y-64358333D01*
X152773571Y-64310714D01*
X152916428Y-64310714D01*
X153011666Y-64358333D01*
X153059285Y-64453571D01*
X153059285Y-64977380D01*
X153964047Y-64310714D02*
X153964047Y-65120238D01*
X153916428Y-65215476D01*
X153868809Y-65263095D01*
X153773571Y-65310714D01*
X153630714Y-65310714D01*
X153535476Y-65263095D01*
X153964047Y-64929761D02*
X153868809Y-64977380D01*
X153678333Y-64977380D01*
X153583095Y-64929761D01*
X153535476Y-64882142D01*
X153487857Y-64786904D01*
X153487857Y-64501190D01*
X153535476Y-64405952D01*
X153583095Y-64358333D01*
X153678333Y-64310714D01*
X153868809Y-64310714D01*
X153964047Y-64358333D01*
X154440238Y-64977380D02*
X154440238Y-63977380D01*
X154440238Y-64453571D02*
X155011666Y-64453571D01*
X155011666Y-64977380D02*
X155011666Y-63977380D01*
X155630714Y-64977380D02*
X155535476Y-64929761D01*
X155487857Y-64882142D01*
X155440238Y-64786904D01*
X155440238Y-64501190D01*
X155487857Y-64405952D01*
X155535476Y-64358333D01*
X155630714Y-64310714D01*
X155773571Y-64310714D01*
X155868809Y-64358333D01*
X155916428Y-64405952D01*
X155964047Y-64501190D01*
X155964047Y-64786904D01*
X155916428Y-64882142D01*
X155868809Y-64929761D01*
X155773571Y-64977380D01*
X155630714Y-64977380D01*
X156535476Y-64977380D02*
X156440238Y-64929761D01*
X156392619Y-64834523D01*
X156392619Y-63977380D01*
X157297380Y-64929761D02*
X157202142Y-64977380D01*
X157011666Y-64977380D01*
X156916428Y-64929761D01*
X156868809Y-64834523D01*
X156868809Y-64453571D01*
X156916428Y-64358333D01*
X157011666Y-64310714D01*
X157202142Y-64310714D01*
X157297380Y-64358333D01*
X157345000Y-64453571D01*
X157345000Y-64548809D01*
X156868809Y-64644047D01*
X157535476Y-65072619D02*
X158297380Y-65072619D01*
X158440238Y-63977380D02*
X159059285Y-63977380D01*
X158725952Y-64358333D01*
X158868809Y-64358333D01*
X158964047Y-64405952D01*
X159011666Y-64453571D01*
X159059285Y-64548809D01*
X159059285Y-64786904D01*
X159011666Y-64882142D01*
X158964047Y-64929761D01*
X158868809Y-64977380D01*
X158583095Y-64977380D01*
X158487857Y-64929761D01*
X158440238Y-64882142D01*
X159487857Y-64882142D02*
X159535476Y-64929761D01*
X159487857Y-64977380D01*
X159440238Y-64929761D01*
X159487857Y-64882142D01*
X159487857Y-64977380D01*
X159916428Y-64072619D02*
X159964047Y-64025000D01*
X160059285Y-63977380D01*
X160297380Y-63977380D01*
X160392619Y-64025000D01*
X160440238Y-64072619D01*
X160487857Y-64167857D01*
X160487857Y-64263095D01*
X160440238Y-64405952D01*
X159868809Y-64977380D01*
X160487857Y-64977380D01*
X160916428Y-64977380D02*
X160916428Y-64310714D01*
X160916428Y-64405952D02*
X160964047Y-64358333D01*
X161059285Y-64310714D01*
X161202142Y-64310714D01*
X161297380Y-64358333D01*
X161345000Y-64453571D01*
X161345000Y-64977380D01*
X161345000Y-64453571D02*
X161392619Y-64358333D01*
X161487857Y-64310714D01*
X161630714Y-64310714D01*
X161725952Y-64358333D01*
X161773571Y-64453571D01*
X161773571Y-64977380D01*
X162249761Y-64977380D02*
X162249761Y-64310714D01*
X162249761Y-64405952D02*
X162297380Y-64358333D01*
X162392619Y-64310714D01*
X162535476Y-64310714D01*
X162630714Y-64358333D01*
X162678333Y-64453571D01*
X162678333Y-64977380D01*
X162678333Y-64453571D02*
X162725952Y-64358333D01*
X162821190Y-64310714D01*
X162964047Y-64310714D01*
X163059285Y-64358333D01*
X163106904Y-64453571D01*
X163106904Y-64977380D01*
X163345000Y-65072619D02*
X164106904Y-65072619D01*
X164345000Y-64977380D02*
X164345000Y-63977380D01*
X164678333Y-64691666D01*
X165011666Y-63977380D01*
X165011666Y-64977380D01*
X165392619Y-63977380D02*
X166011666Y-63977380D01*
X165678333Y-64358333D01*
X165821190Y-64358333D01*
X165916428Y-64405952D01*
X165964047Y-64453571D01*
X166011666Y-64548809D01*
X166011666Y-64786904D01*
X165964047Y-64882142D01*
X165916428Y-64929761D01*
X165821190Y-64977380D01*
X165535476Y-64977380D01*
X165440238Y-64929761D01*
X165392619Y-64882142D01*
X155811666Y-60777380D02*
X155478333Y-60301190D01*
X155240238Y-60777380D02*
X155240238Y-59777380D01*
X155621190Y-59777380D01*
X155716428Y-59825000D01*
X155764047Y-59872619D01*
X155811666Y-59967857D01*
X155811666Y-60110714D01*
X155764047Y-60205952D01*
X155716428Y-60253571D01*
X155621190Y-60301190D01*
X155240238Y-60301190D01*
X156240238Y-60253571D02*
X156573571Y-60253571D01*
X156716428Y-60777380D02*
X156240238Y-60777380D01*
X156240238Y-59777380D01*
X156716428Y-59777380D01*
X157478333Y-60253571D02*
X157145000Y-60253571D01*
X157145000Y-60777380D02*
X157145000Y-59777380D01*
X157621190Y-59777380D01*
X158145000Y-59777380D02*
X158145000Y-60015476D01*
X157906904Y-59920238D02*
X158145000Y-60015476D01*
X158383095Y-59920238D01*
X158002142Y-60205952D02*
X158145000Y-60015476D01*
X158287857Y-60205952D01*
X158906904Y-59777380D02*
X158906904Y-60015476D01*
X158668809Y-59920238D02*
X158906904Y-60015476D01*
X159145000Y-59920238D01*
X158764047Y-60205952D02*
X158906904Y-60015476D01*
X159049761Y-60205952D01*
X157885952Y-122127380D02*
X157885952Y-121127380D01*
X158219285Y-121841666D01*
X158552619Y-121127380D01*
X158552619Y-122127380D01*
X159171666Y-122127380D02*
X159076428Y-122079761D01*
X159028809Y-122032142D01*
X158981190Y-121936904D01*
X158981190Y-121651190D01*
X159028809Y-121555952D01*
X159076428Y-121508333D01*
X159171666Y-121460714D01*
X159314523Y-121460714D01*
X159409761Y-121508333D01*
X159457380Y-121555952D01*
X159505000Y-121651190D01*
X159505000Y-121936904D01*
X159457380Y-122032142D01*
X159409761Y-122079761D01*
X159314523Y-122127380D01*
X159171666Y-122127380D01*
X160362142Y-121460714D02*
X160362142Y-122127380D01*
X159933571Y-121460714D02*
X159933571Y-121984523D01*
X159981190Y-122079761D01*
X160076428Y-122127380D01*
X160219285Y-122127380D01*
X160314523Y-122079761D01*
X160362142Y-122032142D01*
X160838333Y-121460714D02*
X160838333Y-122127380D01*
X160838333Y-121555952D02*
X160885952Y-121508333D01*
X160981190Y-121460714D01*
X161124047Y-121460714D01*
X161219285Y-121508333D01*
X161266904Y-121603571D01*
X161266904Y-122127380D01*
X161600238Y-121460714D02*
X161981190Y-121460714D01*
X161743095Y-121127380D02*
X161743095Y-121984523D01*
X161790714Y-122079761D01*
X161885952Y-122127380D01*
X161981190Y-122127380D01*
X162314523Y-122127380D02*
X162314523Y-121460714D01*
X162314523Y-121127380D02*
X162266904Y-121175000D01*
X162314523Y-121222619D01*
X162362142Y-121175000D01*
X162314523Y-121127380D01*
X162314523Y-121222619D01*
X162790714Y-121460714D02*
X162790714Y-122127380D01*
X162790714Y-121555952D02*
X162838333Y-121508333D01*
X162933571Y-121460714D01*
X163076428Y-121460714D01*
X163171666Y-121508333D01*
X163219285Y-121603571D01*
X163219285Y-122127380D01*
X164124047Y-121460714D02*
X164124047Y-122270238D01*
X164076428Y-122365476D01*
X164028809Y-122413095D01*
X163933571Y-122460714D01*
X163790714Y-122460714D01*
X163695476Y-122413095D01*
X164124047Y-122079761D02*
X164028809Y-122127380D01*
X163838333Y-122127380D01*
X163743095Y-122079761D01*
X163695476Y-122032142D01*
X163647857Y-121936904D01*
X163647857Y-121651190D01*
X163695476Y-121555952D01*
X163743095Y-121508333D01*
X163838333Y-121460714D01*
X164028809Y-121460714D01*
X164124047Y-121508333D01*
X164600238Y-122127380D02*
X164600238Y-121127380D01*
X164600238Y-121603571D02*
X165171666Y-121603571D01*
X165171666Y-122127380D02*
X165171666Y-121127380D01*
X165790714Y-122127380D02*
X165695476Y-122079761D01*
X165647857Y-122032142D01*
X165600238Y-121936904D01*
X165600238Y-121651190D01*
X165647857Y-121555952D01*
X165695476Y-121508333D01*
X165790714Y-121460714D01*
X165933571Y-121460714D01*
X166028809Y-121508333D01*
X166076428Y-121555952D01*
X166124047Y-121651190D01*
X166124047Y-121936904D01*
X166076428Y-122032142D01*
X166028809Y-122079761D01*
X165933571Y-122127380D01*
X165790714Y-122127380D01*
X166695476Y-122127380D02*
X166600238Y-122079761D01*
X166552619Y-121984523D01*
X166552619Y-121127380D01*
X167457380Y-122079761D02*
X167362142Y-122127380D01*
X167171666Y-122127380D01*
X167076428Y-122079761D01*
X167028809Y-121984523D01*
X167028809Y-121603571D01*
X167076428Y-121508333D01*
X167171666Y-121460714D01*
X167362142Y-121460714D01*
X167457380Y-121508333D01*
X167505000Y-121603571D01*
X167505000Y-121698809D01*
X167028809Y-121794047D01*
X167695476Y-122222619D02*
X168457380Y-122222619D01*
X168600238Y-121127380D02*
X169219285Y-121127380D01*
X168885952Y-121508333D01*
X169028809Y-121508333D01*
X169124047Y-121555952D01*
X169171666Y-121603571D01*
X169219285Y-121698809D01*
X169219285Y-121936904D01*
X169171666Y-122032142D01*
X169124047Y-122079761D01*
X169028809Y-122127380D01*
X168743095Y-122127380D01*
X168647857Y-122079761D01*
X168600238Y-122032142D01*
X169647857Y-122032142D02*
X169695476Y-122079761D01*
X169647857Y-122127380D01*
X169600238Y-122079761D01*
X169647857Y-122032142D01*
X169647857Y-122127380D01*
X170076428Y-121222619D02*
X170124047Y-121175000D01*
X170219285Y-121127380D01*
X170457380Y-121127380D01*
X170552619Y-121175000D01*
X170600238Y-121222619D01*
X170647857Y-121317857D01*
X170647857Y-121413095D01*
X170600238Y-121555952D01*
X170028809Y-122127380D01*
X170647857Y-122127380D01*
X171076428Y-122127380D02*
X171076428Y-121460714D01*
X171076428Y-121555952D02*
X171124047Y-121508333D01*
X171219285Y-121460714D01*
X171362142Y-121460714D01*
X171457380Y-121508333D01*
X171505000Y-121603571D01*
X171505000Y-122127380D01*
X171505000Y-121603571D02*
X171552619Y-121508333D01*
X171647857Y-121460714D01*
X171790714Y-121460714D01*
X171885952Y-121508333D01*
X171933571Y-121603571D01*
X171933571Y-122127380D01*
X172409761Y-122127380D02*
X172409761Y-121460714D01*
X172409761Y-121555952D02*
X172457380Y-121508333D01*
X172552619Y-121460714D01*
X172695476Y-121460714D01*
X172790714Y-121508333D01*
X172838333Y-121603571D01*
X172838333Y-122127380D01*
X172838333Y-121603571D02*
X172885952Y-121508333D01*
X172981190Y-121460714D01*
X173124047Y-121460714D01*
X173219285Y-121508333D01*
X173266904Y-121603571D01*
X173266904Y-122127380D01*
X173505000Y-122222619D02*
X174266904Y-122222619D01*
X174505000Y-122127380D02*
X174505000Y-121127380D01*
X174838333Y-121841666D01*
X175171666Y-121127380D01*
X175171666Y-122127380D01*
X175552619Y-121127380D02*
X176171666Y-121127380D01*
X175838333Y-121508333D01*
X175981190Y-121508333D01*
X176076428Y-121555952D01*
X176124047Y-121603571D01*
X176171666Y-121698809D01*
X176171666Y-121936904D01*
X176124047Y-122032142D01*
X176076428Y-122079761D01*
X175981190Y-122127380D01*
X175695476Y-122127380D01*
X175600238Y-122079761D01*
X175552619Y-122032142D01*
X165971666Y-117927380D02*
X165638333Y-117451190D01*
X165400238Y-117927380D02*
X165400238Y-116927380D01*
X165781190Y-116927380D01*
X165876428Y-116975000D01*
X165924047Y-117022619D01*
X165971666Y-117117857D01*
X165971666Y-117260714D01*
X165924047Y-117355952D01*
X165876428Y-117403571D01*
X165781190Y-117451190D01*
X165400238Y-117451190D01*
X166400238Y-117403571D02*
X166733571Y-117403571D01*
X166876428Y-117927380D02*
X166400238Y-117927380D01*
X166400238Y-116927380D01*
X166876428Y-116927380D01*
X167638333Y-117403571D02*
X167305000Y-117403571D01*
X167305000Y-117927380D02*
X167305000Y-116927380D01*
X167781190Y-116927380D01*
X168305000Y-116927380D02*
X168305000Y-117165476D01*
X168066904Y-117070238D02*
X168305000Y-117165476D01*
X168543095Y-117070238D01*
X168162142Y-117355952D02*
X168305000Y-117165476D01*
X168447857Y-117355952D01*
X169066904Y-116927380D02*
X169066904Y-117165476D01*
X168828809Y-117070238D02*
X169066904Y-117165476D01*
X169305000Y-117070238D01*
X168924047Y-117355952D02*
X169066904Y-117165476D01*
X169209761Y-117355952D01*
X102005952Y-121492380D02*
X102005952Y-120492380D01*
X102339285Y-121206666D01*
X102672619Y-120492380D01*
X102672619Y-121492380D01*
X103291666Y-121492380D02*
X103196428Y-121444761D01*
X103148809Y-121397142D01*
X103101190Y-121301904D01*
X103101190Y-121016190D01*
X103148809Y-120920952D01*
X103196428Y-120873333D01*
X103291666Y-120825714D01*
X103434523Y-120825714D01*
X103529761Y-120873333D01*
X103577380Y-120920952D01*
X103624999Y-121016190D01*
X103624999Y-121301904D01*
X103577380Y-121397142D01*
X103529761Y-121444761D01*
X103434523Y-121492380D01*
X103291666Y-121492380D01*
X104482142Y-120825714D02*
X104482142Y-121492380D01*
X104053571Y-120825714D02*
X104053571Y-121349523D01*
X104101190Y-121444761D01*
X104196428Y-121492380D01*
X104339285Y-121492380D01*
X104434523Y-121444761D01*
X104482142Y-121397142D01*
X104958333Y-120825714D02*
X104958333Y-121492380D01*
X104958333Y-120920952D02*
X105005952Y-120873333D01*
X105101190Y-120825714D01*
X105244047Y-120825714D01*
X105339285Y-120873333D01*
X105386904Y-120968571D01*
X105386904Y-121492380D01*
X105720238Y-120825714D02*
X106101190Y-120825714D01*
X105863095Y-120492380D02*
X105863095Y-121349523D01*
X105910714Y-121444761D01*
X106005952Y-121492380D01*
X106101190Y-121492380D01*
X106434523Y-121492380D02*
X106434523Y-120825714D01*
X106434523Y-120492380D02*
X106386904Y-120540000D01*
X106434523Y-120587619D01*
X106482142Y-120540000D01*
X106434523Y-120492380D01*
X106434523Y-120587619D01*
X106910714Y-120825714D02*
X106910714Y-121492380D01*
X106910714Y-120920952D02*
X106958333Y-120873333D01*
X107053571Y-120825714D01*
X107196428Y-120825714D01*
X107291666Y-120873333D01*
X107339285Y-120968571D01*
X107339285Y-121492380D01*
X108244047Y-120825714D02*
X108244047Y-121635238D01*
X108196428Y-121730476D01*
X108148809Y-121778095D01*
X108053571Y-121825714D01*
X107910714Y-121825714D01*
X107815476Y-121778095D01*
X108244047Y-121444761D02*
X108148809Y-121492380D01*
X107958333Y-121492380D01*
X107863095Y-121444761D01*
X107815476Y-121397142D01*
X107767857Y-121301904D01*
X107767857Y-121016190D01*
X107815476Y-120920952D01*
X107863095Y-120873333D01*
X107958333Y-120825714D01*
X108148809Y-120825714D01*
X108244047Y-120873333D01*
X108720238Y-121492380D02*
X108720238Y-120492380D01*
X108720238Y-120968571D02*
X109291666Y-120968571D01*
X109291666Y-121492380D02*
X109291666Y-120492380D01*
X109910714Y-121492380D02*
X109815476Y-121444761D01*
X109767857Y-121397142D01*
X109720238Y-121301904D01*
X109720238Y-121016190D01*
X109767857Y-120920952D01*
X109815476Y-120873333D01*
X109910714Y-120825714D01*
X110053571Y-120825714D01*
X110148809Y-120873333D01*
X110196428Y-120920952D01*
X110244047Y-121016190D01*
X110244047Y-121301904D01*
X110196428Y-121397142D01*
X110148809Y-121444761D01*
X110053571Y-121492380D01*
X109910714Y-121492380D01*
X110815476Y-121492380D02*
X110720238Y-121444761D01*
X110672619Y-121349523D01*
X110672619Y-120492380D01*
X111577380Y-121444761D02*
X111482142Y-121492380D01*
X111291666Y-121492380D01*
X111196428Y-121444761D01*
X111148809Y-121349523D01*
X111148809Y-120968571D01*
X111196428Y-120873333D01*
X111291666Y-120825714D01*
X111482142Y-120825714D01*
X111577380Y-120873333D01*
X111624999Y-120968571D01*
X111624999Y-121063809D01*
X111148809Y-121159047D01*
X111815476Y-121587619D02*
X112577380Y-121587619D01*
X112720238Y-120492380D02*
X113339285Y-120492380D01*
X113005952Y-120873333D01*
X113148809Y-120873333D01*
X113244047Y-120920952D01*
X113291666Y-120968571D01*
X113339285Y-121063809D01*
X113339285Y-121301904D01*
X113291666Y-121397142D01*
X113244047Y-121444761D01*
X113148809Y-121492380D01*
X112863095Y-121492380D01*
X112767857Y-121444761D01*
X112720238Y-121397142D01*
X113767857Y-121397142D02*
X113815476Y-121444761D01*
X113767857Y-121492380D01*
X113720238Y-121444761D01*
X113767857Y-121397142D01*
X113767857Y-121492380D01*
X114196428Y-120587619D02*
X114244047Y-120540000D01*
X114339285Y-120492380D01*
X114577380Y-120492380D01*
X114672619Y-120540000D01*
X114720238Y-120587619D01*
X114767857Y-120682857D01*
X114767857Y-120778095D01*
X114720238Y-120920952D01*
X114148809Y-121492380D01*
X114767857Y-121492380D01*
X115196428Y-121492380D02*
X115196428Y-120825714D01*
X115196428Y-120920952D02*
X115244047Y-120873333D01*
X115339285Y-120825714D01*
X115482142Y-120825714D01*
X115577380Y-120873333D01*
X115624999Y-120968571D01*
X115624999Y-121492380D01*
X115624999Y-120968571D02*
X115672619Y-120873333D01*
X115767857Y-120825714D01*
X115910714Y-120825714D01*
X116005952Y-120873333D01*
X116053571Y-120968571D01*
X116053571Y-121492380D01*
X116529761Y-121492380D02*
X116529761Y-120825714D01*
X116529761Y-120920952D02*
X116577380Y-120873333D01*
X116672619Y-120825714D01*
X116815476Y-120825714D01*
X116910714Y-120873333D01*
X116958333Y-120968571D01*
X116958333Y-121492380D01*
X116958333Y-120968571D02*
X117005952Y-120873333D01*
X117101190Y-120825714D01*
X117244047Y-120825714D01*
X117339285Y-120873333D01*
X117386904Y-120968571D01*
X117386904Y-121492380D01*
X117624999Y-121587619D02*
X118386904Y-121587619D01*
X118624999Y-121492380D02*
X118624999Y-120492380D01*
X118958333Y-121206666D01*
X119291666Y-120492380D01*
X119291666Y-121492380D01*
X119672619Y-120492380D02*
X120291666Y-120492380D01*
X119958333Y-120873333D01*
X120101190Y-120873333D01*
X120196428Y-120920952D01*
X120244047Y-120968571D01*
X120291666Y-121063809D01*
X120291666Y-121301904D01*
X120244047Y-121397142D01*
X120196428Y-121444761D01*
X120101190Y-121492380D01*
X119815476Y-121492380D01*
X119720238Y-121444761D01*
X119672619Y-121397142D01*
X110091666Y-117292380D02*
X109758333Y-116816190D01*
X109520238Y-117292380D02*
X109520238Y-116292380D01*
X109901190Y-116292380D01*
X109996428Y-116340000D01*
X110044047Y-116387619D01*
X110091666Y-116482857D01*
X110091666Y-116625714D01*
X110044047Y-116720952D01*
X109996428Y-116768571D01*
X109901190Y-116816190D01*
X109520238Y-116816190D01*
X110520238Y-116768571D02*
X110853571Y-116768571D01*
X110996428Y-117292380D02*
X110520238Y-117292380D01*
X110520238Y-116292380D01*
X110996428Y-116292380D01*
X111758333Y-116768571D02*
X111425000Y-116768571D01*
X111425000Y-117292380D02*
X111425000Y-116292380D01*
X111901190Y-116292380D01*
X112425000Y-116292380D02*
X112425000Y-116530476D01*
X112186904Y-116435238D02*
X112425000Y-116530476D01*
X112663095Y-116435238D01*
X112282142Y-116720952D02*
X112425000Y-116530476D01*
X112567857Y-116720952D01*
X113186904Y-116292380D02*
X113186904Y-116530476D01*
X112948809Y-116435238D02*
X113186904Y-116530476D01*
X113425000Y-116435238D01*
X113044047Y-116720952D02*
X113186904Y-116530476D01*
X113329761Y-116720952D01*
%TO.C,K5*%
X140049523Y-89352380D02*
X140049523Y-88352380D01*
X140620952Y-89352380D01*
X140620952Y-88352380D01*
X141525714Y-88685714D02*
X141525714Y-89352380D01*
X141287619Y-88304761D02*
X141049523Y-89019047D01*
X141668571Y-89019047D01*
X142240000Y-88352380D02*
X142335238Y-88352380D01*
X142430476Y-88400000D01*
X142478095Y-88447619D01*
X142525714Y-88542857D01*
X142573333Y-88733333D01*
X142573333Y-88971428D01*
X142525714Y-89161904D01*
X142478095Y-89257142D01*
X142430476Y-89304761D01*
X142335238Y-89352380D01*
X142240000Y-89352380D01*
X142144761Y-89304761D01*
X142097142Y-89257142D01*
X142049523Y-89161904D01*
X142001904Y-88971428D01*
X142001904Y-88733333D01*
X142049523Y-88542857D01*
X142097142Y-88447619D01*
X142144761Y-88400000D01*
X142240000Y-88352380D01*
X142906666Y-88352380D02*
X143573333Y-88352380D01*
X143144761Y-89352380D01*
X144097142Y-88780952D02*
X144001904Y-88733333D01*
X143954285Y-88685714D01*
X143906666Y-88590476D01*
X143906666Y-88542857D01*
X143954285Y-88447619D01*
X144001904Y-88400000D01*
X144097142Y-88352380D01*
X144287619Y-88352380D01*
X144382857Y-88400000D01*
X144430476Y-88447619D01*
X144478095Y-88542857D01*
X144478095Y-88590476D01*
X144430476Y-88685714D01*
X144382857Y-88733333D01*
X144287619Y-88780952D01*
X144097142Y-88780952D01*
X144001904Y-88828571D01*
X143954285Y-88876190D01*
X143906666Y-88971428D01*
X143906666Y-89161904D01*
X143954285Y-89257142D01*
X144001904Y-89304761D01*
X144097142Y-89352380D01*
X144287619Y-89352380D01*
X144382857Y-89304761D01*
X144430476Y-89257142D01*
X144478095Y-89161904D01*
X144478095Y-88971428D01*
X144430476Y-88876190D01*
X144382857Y-88828571D01*
X144287619Y-88780952D01*
%TO.C,J3*%
X136503333Y-123007380D02*
X136503333Y-122007380D01*
X137074761Y-123007380D02*
X136646190Y-122435952D01*
X137074761Y-122007380D02*
X136503333Y-122578809D01*
X137408095Y-122007380D02*
X138027142Y-122007380D01*
X137693809Y-122388333D01*
X137836666Y-122388333D01*
X137931904Y-122435952D01*
X137979523Y-122483571D01*
X138027142Y-122578809D01*
X138027142Y-122816904D01*
X137979523Y-122912142D01*
X137931904Y-122959761D01*
X137836666Y-123007380D01*
X137550952Y-123007380D01*
X137455714Y-122959761D01*
X137408095Y-122912142D01*
X138217619Y-123102619D02*
X138979523Y-123102619D01*
X139217619Y-123007380D02*
X139217619Y-122007380D01*
X139789047Y-123007380D01*
X139789047Y-122007380D01*
X140455714Y-122007380D02*
X140646190Y-122007380D01*
X140741428Y-122055000D01*
X140836666Y-122150238D01*
X140884285Y-122340714D01*
X140884285Y-122674047D01*
X140836666Y-122864523D01*
X140741428Y-122959761D01*
X140646190Y-123007380D01*
X140455714Y-123007380D01*
X140360476Y-122959761D01*
X140265238Y-122864523D01*
X140217619Y-122674047D01*
X140217619Y-122340714D01*
X140265238Y-122150238D01*
X140360476Y-122055000D01*
X140455714Y-122007380D01*
X138731666Y-111752380D02*
X138731666Y-112466666D01*
X138684047Y-112609523D01*
X138588809Y-112704761D01*
X138445952Y-112752380D01*
X138350714Y-112752380D01*
X139112619Y-111752380D02*
X139731666Y-111752380D01*
X139398333Y-112133333D01*
X139541190Y-112133333D01*
X139636428Y-112180952D01*
X139684047Y-112228571D01*
X139731666Y-112323809D01*
X139731666Y-112561904D01*
X139684047Y-112657142D01*
X139636428Y-112704761D01*
X139541190Y-112752380D01*
X139255476Y-112752380D01*
X139160238Y-112704761D01*
X139112619Y-112657142D01*
%TO.C,J1*%
X175175714Y-85373333D02*
X176175714Y-85373333D01*
X175223333Y-85373333D02*
X175175714Y-85278095D01*
X175175714Y-85087619D01*
X175223333Y-84992380D01*
X175270952Y-84944761D01*
X175366190Y-84897142D01*
X175651904Y-84897142D01*
X175747142Y-84944761D01*
X175794761Y-84992380D01*
X175842380Y-85087619D01*
X175842380Y-85278095D01*
X175794761Y-85373333D01*
X175842380Y-84468571D02*
X175175714Y-84468571D01*
X175366190Y-84468571D02*
X175270952Y-84420952D01*
X175223333Y-84373333D01*
X175175714Y-84278095D01*
X175175714Y-84182857D01*
X175175714Y-83944761D02*
X175175714Y-83420952D01*
X175842380Y-83944761D01*
X175842380Y-83420952D01*
X175175714Y-83135238D02*
X175842380Y-82897142D01*
X175175714Y-82659047D02*
X175842380Y-82897142D01*
X176080476Y-82992380D01*
X176128095Y-83040000D01*
X176175714Y-83135238D01*
X175794761Y-81849523D02*
X175842380Y-81944761D01*
X175842380Y-82135238D01*
X175794761Y-82230476D01*
X175747142Y-82278095D01*
X175651904Y-82325714D01*
X175366190Y-82325714D01*
X175270952Y-82278095D01*
X175223333Y-82230476D01*
X175175714Y-82135238D01*
X175175714Y-81944761D01*
X175223333Y-81849523D01*
X175842380Y-81420952D02*
X175175714Y-81420952D01*
X174842380Y-81420952D02*
X174890000Y-81468571D01*
X174937619Y-81420952D01*
X174890000Y-81373333D01*
X174842380Y-81420952D01*
X174937619Y-81420952D01*
X175794761Y-80992380D02*
X175842380Y-80897142D01*
X175842380Y-80706666D01*
X175794761Y-80611428D01*
X175699523Y-80563809D01*
X175651904Y-80563809D01*
X175556666Y-80611428D01*
X175509047Y-80706666D01*
X175509047Y-80849523D01*
X175461428Y-80944761D01*
X175366190Y-80992380D01*
X175318571Y-80992380D01*
X175223333Y-80944761D01*
X175175714Y-80849523D01*
X175175714Y-80706666D01*
X175223333Y-80611428D01*
X175842380Y-80135238D02*
X174842380Y-80135238D01*
X175461428Y-80040000D02*
X175842380Y-79754285D01*
X175175714Y-79754285D02*
X175556666Y-80135238D01*
X175937619Y-79563809D02*
X175937619Y-78801904D01*
X175842380Y-78135238D02*
X174842380Y-78135238D01*
X175794761Y-78135238D02*
X175842380Y-78230476D01*
X175842380Y-78420952D01*
X175794761Y-78516190D01*
X175747142Y-78563809D01*
X175651904Y-78611428D01*
X175366190Y-78611428D01*
X175270952Y-78563809D01*
X175223333Y-78516190D01*
X175175714Y-78420952D01*
X175175714Y-78230476D01*
X175223333Y-78135238D01*
X175842380Y-77516190D02*
X175794761Y-77611428D01*
X175747142Y-77659047D01*
X175651904Y-77706666D01*
X175366190Y-77706666D01*
X175270952Y-77659047D01*
X175223333Y-77611428D01*
X175175714Y-77516190D01*
X175175714Y-77373333D01*
X175223333Y-77278095D01*
X175270952Y-77230476D01*
X175366190Y-77182857D01*
X175651904Y-77182857D01*
X175747142Y-77230476D01*
X175794761Y-77278095D01*
X175842380Y-77373333D01*
X175842380Y-77516190D01*
X175842380Y-76611428D02*
X175794761Y-76706666D01*
X175699523Y-76754285D01*
X174842380Y-76754285D01*
X172807380Y-80343333D02*
X173521666Y-80343333D01*
X173664523Y-80390952D01*
X173759761Y-80486190D01*
X173807380Y-80629047D01*
X173807380Y-80724285D01*
X173807380Y-79343333D02*
X173807380Y-79914761D01*
X173807380Y-79629047D02*
X172807380Y-79629047D01*
X172950238Y-79724285D01*
X173045476Y-79819523D01*
X173093095Y-79914761D01*
%TO.C,K6*%
X140049523Y-104592380D02*
X140049523Y-103592380D01*
X140620952Y-104592380D01*
X140620952Y-103592380D01*
X141525714Y-103925714D02*
X141525714Y-104592380D01*
X141287619Y-103544761D02*
X141049523Y-104259047D01*
X141668571Y-104259047D01*
X142240000Y-103592380D02*
X142335238Y-103592380D01*
X142430476Y-103640000D01*
X142478095Y-103687619D01*
X142525714Y-103782857D01*
X142573333Y-103973333D01*
X142573333Y-104211428D01*
X142525714Y-104401904D01*
X142478095Y-104497142D01*
X142430476Y-104544761D01*
X142335238Y-104592380D01*
X142240000Y-104592380D01*
X142144761Y-104544761D01*
X142097142Y-104497142D01*
X142049523Y-104401904D01*
X142001904Y-104211428D01*
X142001904Y-103973333D01*
X142049523Y-103782857D01*
X142097142Y-103687619D01*
X142144761Y-103640000D01*
X142240000Y-103592380D01*
X142906666Y-103592380D02*
X143573333Y-103592380D01*
X143144761Y-104592380D01*
X144097142Y-104020952D02*
X144001904Y-103973333D01*
X143954285Y-103925714D01*
X143906666Y-103830476D01*
X143906666Y-103782857D01*
X143954285Y-103687619D01*
X144001904Y-103640000D01*
X144097142Y-103592380D01*
X144287619Y-103592380D01*
X144382857Y-103640000D01*
X144430476Y-103687619D01*
X144478095Y-103782857D01*
X144478095Y-103830476D01*
X144430476Y-103925714D01*
X144382857Y-103973333D01*
X144287619Y-104020952D01*
X144097142Y-104020952D01*
X144001904Y-104068571D01*
X143954285Y-104116190D01*
X143906666Y-104211428D01*
X143906666Y-104401904D01*
X143954285Y-104497142D01*
X144001904Y-104544761D01*
X144097142Y-104592380D01*
X144287619Y-104592380D01*
X144382857Y-104544761D01*
X144430476Y-104497142D01*
X144478095Y-104401904D01*
X144478095Y-104211428D01*
X144430476Y-104116190D01*
X144382857Y-104068571D01*
X144287619Y-104020952D01*
%TO.C,K4*%
X114649523Y-104592380D02*
X114649523Y-103592380D01*
X115220952Y-104592380D01*
X115220952Y-103592380D01*
X116125714Y-103925714D02*
X116125714Y-104592380D01*
X115887619Y-103544761D02*
X115649523Y-104259047D01*
X116268571Y-104259047D01*
X116840000Y-103592380D02*
X116935238Y-103592380D01*
X117030476Y-103640000D01*
X117078095Y-103687619D01*
X117125714Y-103782857D01*
X117173333Y-103973333D01*
X117173333Y-104211428D01*
X117125714Y-104401904D01*
X117078095Y-104497142D01*
X117030476Y-104544761D01*
X116935238Y-104592380D01*
X116840000Y-104592380D01*
X116744761Y-104544761D01*
X116697142Y-104497142D01*
X116649523Y-104401904D01*
X116601904Y-104211428D01*
X116601904Y-103973333D01*
X116649523Y-103782857D01*
X116697142Y-103687619D01*
X116744761Y-103640000D01*
X116840000Y-103592380D01*
X117506666Y-103592380D02*
X118173333Y-103592380D01*
X117744761Y-104592380D01*
X118697142Y-104020952D02*
X118601904Y-103973333D01*
X118554285Y-103925714D01*
X118506666Y-103830476D01*
X118506666Y-103782857D01*
X118554285Y-103687619D01*
X118601904Y-103640000D01*
X118697142Y-103592380D01*
X118887619Y-103592380D01*
X118982857Y-103640000D01*
X119030476Y-103687619D01*
X119078095Y-103782857D01*
X119078095Y-103830476D01*
X119030476Y-103925714D01*
X118982857Y-103973333D01*
X118887619Y-104020952D01*
X118697142Y-104020952D01*
X118601904Y-104068571D01*
X118554285Y-104116190D01*
X118506666Y-104211428D01*
X118506666Y-104401904D01*
X118554285Y-104497142D01*
X118601904Y-104544761D01*
X118697142Y-104592380D01*
X118887619Y-104592380D01*
X118982857Y-104544761D01*
X119030476Y-104497142D01*
X119078095Y-104401904D01*
X119078095Y-104211428D01*
X119030476Y-104116190D01*
X118982857Y-104068571D01*
X118887619Y-104020952D01*
%TO.C,K3*%
X140049523Y-75382380D02*
X140049523Y-74382380D01*
X140620952Y-75382380D01*
X140620952Y-74382380D01*
X141525714Y-74715714D02*
X141525714Y-75382380D01*
X141287619Y-74334761D02*
X141049523Y-75049047D01*
X141668571Y-75049047D01*
X142240000Y-74382380D02*
X142335238Y-74382380D01*
X142430476Y-74430000D01*
X142478095Y-74477619D01*
X142525714Y-74572857D01*
X142573333Y-74763333D01*
X142573333Y-75001428D01*
X142525714Y-75191904D01*
X142478095Y-75287142D01*
X142430476Y-75334761D01*
X142335238Y-75382380D01*
X142240000Y-75382380D01*
X142144761Y-75334761D01*
X142097142Y-75287142D01*
X142049523Y-75191904D01*
X142001904Y-75001428D01*
X142001904Y-74763333D01*
X142049523Y-74572857D01*
X142097142Y-74477619D01*
X142144761Y-74430000D01*
X142240000Y-74382380D01*
X142906666Y-74382380D02*
X143573333Y-74382380D01*
X143144761Y-75382380D01*
X144097142Y-74810952D02*
X144001904Y-74763333D01*
X143954285Y-74715714D01*
X143906666Y-74620476D01*
X143906666Y-74572857D01*
X143954285Y-74477619D01*
X144001904Y-74430000D01*
X144097142Y-74382380D01*
X144287619Y-74382380D01*
X144382857Y-74430000D01*
X144430476Y-74477619D01*
X144478095Y-74572857D01*
X144478095Y-74620476D01*
X144430476Y-74715714D01*
X144382857Y-74763333D01*
X144287619Y-74810952D01*
X144097142Y-74810952D01*
X144001904Y-74858571D01*
X143954285Y-74906190D01*
X143906666Y-75001428D01*
X143906666Y-75191904D01*
X143954285Y-75287142D01*
X144001904Y-75334761D01*
X144097142Y-75382380D01*
X144287619Y-75382380D01*
X144382857Y-75334761D01*
X144430476Y-75287142D01*
X144478095Y-75191904D01*
X144478095Y-75001428D01*
X144430476Y-74906190D01*
X144382857Y-74858571D01*
X144287619Y-74810952D01*
%TO.C,K2*%
X114649523Y-89352380D02*
X114649523Y-88352380D01*
X115220952Y-89352380D01*
X115220952Y-88352380D01*
X116125714Y-88685714D02*
X116125714Y-89352380D01*
X115887619Y-88304761D02*
X115649523Y-89019047D01*
X116268571Y-89019047D01*
X116840000Y-88352380D02*
X116935238Y-88352380D01*
X117030476Y-88400000D01*
X117078095Y-88447619D01*
X117125714Y-88542857D01*
X117173333Y-88733333D01*
X117173333Y-88971428D01*
X117125714Y-89161904D01*
X117078095Y-89257142D01*
X117030476Y-89304761D01*
X116935238Y-89352380D01*
X116840000Y-89352380D01*
X116744761Y-89304761D01*
X116697142Y-89257142D01*
X116649523Y-89161904D01*
X116601904Y-88971428D01*
X116601904Y-88733333D01*
X116649523Y-88542857D01*
X116697142Y-88447619D01*
X116744761Y-88400000D01*
X116840000Y-88352380D01*
X117506666Y-88352380D02*
X118173333Y-88352380D01*
X117744761Y-89352380D01*
X118697142Y-88780952D02*
X118601904Y-88733333D01*
X118554285Y-88685714D01*
X118506666Y-88590476D01*
X118506666Y-88542857D01*
X118554285Y-88447619D01*
X118601904Y-88400000D01*
X118697142Y-88352380D01*
X118887619Y-88352380D01*
X118982857Y-88400000D01*
X119030476Y-88447619D01*
X119078095Y-88542857D01*
X119078095Y-88590476D01*
X119030476Y-88685714D01*
X118982857Y-88733333D01*
X118887619Y-88780952D01*
X118697142Y-88780952D01*
X118601904Y-88828571D01*
X118554285Y-88876190D01*
X118506666Y-88971428D01*
X118506666Y-89161904D01*
X118554285Y-89257142D01*
X118601904Y-89304761D01*
X118697142Y-89352380D01*
X118887619Y-89352380D01*
X118982857Y-89304761D01*
X119030476Y-89257142D01*
X119078095Y-89161904D01*
X119078095Y-88971428D01*
X119030476Y-88876190D01*
X118982857Y-88828571D01*
X118887619Y-88780952D01*
%TO.C,K1*%
X114649523Y-75382380D02*
X114649523Y-74382380D01*
X115220952Y-75382380D01*
X115220952Y-74382380D01*
X116125714Y-74715714D02*
X116125714Y-75382380D01*
X115887619Y-74334761D02*
X115649523Y-75049047D01*
X116268571Y-75049047D01*
X116840000Y-74382380D02*
X116935238Y-74382380D01*
X117030476Y-74430000D01*
X117078095Y-74477619D01*
X117125714Y-74572857D01*
X117173333Y-74763333D01*
X117173333Y-75001428D01*
X117125714Y-75191904D01*
X117078095Y-75287142D01*
X117030476Y-75334761D01*
X116935238Y-75382380D01*
X116840000Y-75382380D01*
X116744761Y-75334761D01*
X116697142Y-75287142D01*
X116649523Y-75191904D01*
X116601904Y-75001428D01*
X116601904Y-74763333D01*
X116649523Y-74572857D01*
X116697142Y-74477619D01*
X116744761Y-74430000D01*
X116840000Y-74382380D01*
X117506666Y-74382380D02*
X118173333Y-74382380D01*
X117744761Y-75382380D01*
X118697142Y-74810952D02*
X118601904Y-74763333D01*
X118554285Y-74715714D01*
X118506666Y-74620476D01*
X118506666Y-74572857D01*
X118554285Y-74477619D01*
X118601904Y-74430000D01*
X118697142Y-74382380D01*
X118887619Y-74382380D01*
X118982857Y-74430000D01*
X119030476Y-74477619D01*
X119078095Y-74572857D01*
X119078095Y-74620476D01*
X119030476Y-74715714D01*
X118982857Y-74763333D01*
X118887619Y-74810952D01*
X118697142Y-74810952D01*
X118601904Y-74858571D01*
X118554285Y-74906190D01*
X118506666Y-75001428D01*
X118506666Y-75191904D01*
X118554285Y-75287142D01*
X118601904Y-75334761D01*
X118697142Y-75382380D01*
X118887619Y-75382380D01*
X118982857Y-75334761D01*
X119030476Y-75287142D01*
X119078095Y-75191904D01*
X119078095Y-75001428D01*
X119030476Y-74906190D01*
X118982857Y-74858571D01*
X118887619Y-74810952D01*
%TO.C,J7*%
X175842380Y-97287619D02*
X174842380Y-97287619D01*
X174842380Y-96906666D01*
X174890000Y-96811428D01*
X174937619Y-96763809D01*
X175032857Y-96716190D01*
X175175714Y-96716190D01*
X175270952Y-96763809D01*
X175318571Y-96811428D01*
X175366190Y-96906666D01*
X175366190Y-97287619D01*
X175842380Y-96287619D02*
X175175714Y-96287619D01*
X174842380Y-96287619D02*
X174890000Y-96335238D01*
X174937619Y-96287619D01*
X174890000Y-96240000D01*
X174842380Y-96287619D01*
X174937619Y-96287619D01*
X175842380Y-95668571D02*
X175794761Y-95763809D01*
X175699523Y-95811428D01*
X174842380Y-95811428D01*
X175842380Y-95144761D02*
X175794761Y-95240000D01*
X175747142Y-95287619D01*
X175651904Y-95335238D01*
X175366190Y-95335238D01*
X175270952Y-95287619D01*
X175223333Y-95240000D01*
X175175714Y-95144761D01*
X175175714Y-95001904D01*
X175223333Y-94906666D01*
X175270952Y-94859047D01*
X175366190Y-94811428D01*
X175651904Y-94811428D01*
X175747142Y-94859047D01*
X175794761Y-94906666D01*
X175842380Y-95001904D01*
X175842380Y-95144761D01*
X175175714Y-94525714D02*
X175175714Y-94144761D01*
X174842380Y-94382857D02*
X175699523Y-94382857D01*
X175794761Y-94335238D01*
X175842380Y-94240000D01*
X175842380Y-94144761D01*
X175937619Y-94049523D02*
X175937619Y-93287619D01*
X175175714Y-92620952D02*
X175985238Y-92620952D01*
X176080476Y-92668571D01*
X176128095Y-92716190D01*
X176175714Y-92811428D01*
X176175714Y-92954285D01*
X176128095Y-93049523D01*
X175794761Y-92620952D02*
X175842380Y-92716190D01*
X175842380Y-92906666D01*
X175794761Y-93001904D01*
X175747142Y-93049523D01*
X175651904Y-93097142D01*
X175366190Y-93097142D01*
X175270952Y-93049523D01*
X175223333Y-93001904D01*
X175175714Y-92906666D01*
X175175714Y-92716190D01*
X175223333Y-92620952D01*
X175842380Y-92001904D02*
X175794761Y-92097142D01*
X175747142Y-92144761D01*
X175651904Y-92192380D01*
X175366190Y-92192380D01*
X175270952Y-92144761D01*
X175223333Y-92097142D01*
X175175714Y-92001904D01*
X175175714Y-91859047D01*
X175223333Y-91763809D01*
X175270952Y-91716190D01*
X175366190Y-91668571D01*
X175651904Y-91668571D01*
X175747142Y-91716190D01*
X175794761Y-91763809D01*
X175842380Y-91859047D01*
X175842380Y-92001904D01*
X175842380Y-91240000D02*
X175175714Y-91240000D01*
X175366190Y-91240000D02*
X175270952Y-91192380D01*
X175223333Y-91144761D01*
X175175714Y-91049523D01*
X175175714Y-90954285D01*
X175842380Y-90192380D02*
X175318571Y-90192380D01*
X175223333Y-90240000D01*
X175175714Y-90335238D01*
X175175714Y-90525714D01*
X175223333Y-90620952D01*
X175794761Y-90192380D02*
X175842380Y-90287619D01*
X175842380Y-90525714D01*
X175794761Y-90620952D01*
X175699523Y-90668571D01*
X175604285Y-90668571D01*
X175509047Y-90620952D01*
X175461428Y-90525714D01*
X175461428Y-90287619D01*
X175413809Y-90192380D01*
X172172380Y-92408333D02*
X172886666Y-92408333D01*
X173029523Y-92455952D01*
X173124761Y-92551190D01*
X173172380Y-92694047D01*
X173172380Y-92789285D01*
X172172380Y-92027380D02*
X172172380Y-91360714D01*
X173172380Y-91789285D01*
%TO.C,J6*%
X175842380Y-73220952D02*
X174842380Y-73220952D01*
X174842380Y-72840000D01*
X174890000Y-72744761D01*
X174937619Y-72697142D01*
X175032857Y-72649523D01*
X175175714Y-72649523D01*
X175270952Y-72697142D01*
X175318571Y-72744761D01*
X175366190Y-72840000D01*
X175366190Y-73220952D01*
X175842380Y-72220952D02*
X175175714Y-72220952D01*
X175366190Y-72220952D02*
X175270952Y-72173333D01*
X175223333Y-72125714D01*
X175175714Y-72030476D01*
X175175714Y-71935238D01*
X175175714Y-71697142D02*
X175175714Y-71173333D01*
X175842380Y-71697142D01*
X175842380Y-71173333D01*
X175175714Y-70887619D02*
X175842380Y-70649523D01*
X175175714Y-70411428D02*
X175842380Y-70649523D01*
X176080476Y-70744761D01*
X176128095Y-70792380D01*
X176175714Y-70887619D01*
X175794761Y-69601904D02*
X175842380Y-69697142D01*
X175842380Y-69887619D01*
X175794761Y-69982857D01*
X175747142Y-70030476D01*
X175651904Y-70078095D01*
X175366190Y-70078095D01*
X175270952Y-70030476D01*
X175223333Y-69982857D01*
X175175714Y-69887619D01*
X175175714Y-69697142D01*
X175223333Y-69601904D01*
X175842380Y-69173333D02*
X175175714Y-69173333D01*
X174842380Y-69173333D02*
X174890000Y-69220952D01*
X174937619Y-69173333D01*
X174890000Y-69125714D01*
X174842380Y-69173333D01*
X174937619Y-69173333D01*
X175794761Y-68744761D02*
X175842380Y-68649523D01*
X175842380Y-68459047D01*
X175794761Y-68363809D01*
X175699523Y-68316190D01*
X175651904Y-68316190D01*
X175556666Y-68363809D01*
X175509047Y-68459047D01*
X175509047Y-68601904D01*
X175461428Y-68697142D01*
X175366190Y-68744761D01*
X175318571Y-68744761D01*
X175223333Y-68697142D01*
X175175714Y-68601904D01*
X175175714Y-68459047D01*
X175223333Y-68363809D01*
X175842380Y-67887619D02*
X174842380Y-67887619D01*
X175461428Y-67792380D02*
X175842380Y-67506666D01*
X175175714Y-67506666D02*
X175556666Y-67887619D01*
X175937619Y-67316190D02*
X175937619Y-66554285D01*
X175175714Y-65887619D02*
X175985238Y-65887619D01*
X176080476Y-65935238D01*
X176128095Y-65982857D01*
X176175714Y-66078095D01*
X176175714Y-66220952D01*
X176128095Y-66316190D01*
X175794761Y-65887619D02*
X175842380Y-65982857D01*
X175842380Y-66173333D01*
X175794761Y-66268571D01*
X175747142Y-66316190D01*
X175651904Y-66363809D01*
X175366190Y-66363809D01*
X175270952Y-66316190D01*
X175223333Y-66268571D01*
X175175714Y-66173333D01*
X175175714Y-65982857D01*
X175223333Y-65887619D01*
X175842380Y-65268571D02*
X175794761Y-65363809D01*
X175747142Y-65411428D01*
X175651904Y-65459047D01*
X175366190Y-65459047D01*
X175270952Y-65411428D01*
X175223333Y-65363809D01*
X175175714Y-65268571D01*
X175175714Y-65125714D01*
X175223333Y-65030476D01*
X175270952Y-64982857D01*
X175366190Y-64935238D01*
X175651904Y-64935238D01*
X175747142Y-64982857D01*
X175794761Y-65030476D01*
X175842380Y-65125714D01*
X175842380Y-65268571D01*
X175842380Y-64506666D02*
X175175714Y-64506666D01*
X175366190Y-64506666D02*
X175270952Y-64459047D01*
X175223333Y-64411428D01*
X175175714Y-64316190D01*
X175175714Y-64220952D01*
X175842380Y-63459047D02*
X175318571Y-63459047D01*
X175223333Y-63506666D01*
X175175714Y-63601904D01*
X175175714Y-63792380D01*
X175223333Y-63887619D01*
X175794761Y-63459047D02*
X175842380Y-63554285D01*
X175842380Y-63792380D01*
X175794761Y-63887619D01*
X175699523Y-63935238D01*
X175604285Y-63935238D01*
X175509047Y-63887619D01*
X175461428Y-63792380D01*
X175461428Y-63554285D01*
X175413809Y-63459047D01*
X165092380Y-68953333D02*
X165806666Y-68953333D01*
X165949523Y-69000952D01*
X166044761Y-69096190D01*
X166092380Y-69239047D01*
X166092380Y-69334285D01*
X165092380Y-68048571D02*
X165092380Y-68239047D01*
X165140000Y-68334285D01*
X165187619Y-68381904D01*
X165330476Y-68477142D01*
X165520952Y-68524761D01*
X165901904Y-68524761D01*
X165997142Y-68477142D01*
X166044761Y-68429523D01*
X166092380Y-68334285D01*
X166092380Y-68143809D01*
X166044761Y-68048571D01*
X165997142Y-68000952D01*
X165901904Y-67953333D01*
X165663809Y-67953333D01*
X165568571Y-68000952D01*
X165520952Y-68048571D01*
X165473333Y-68143809D01*
X165473333Y-68334285D01*
X165520952Y-68429523D01*
X165568571Y-68477142D01*
X165663809Y-68524761D01*
%TO.C,J5*%
X150949523Y-122959761D02*
X151092380Y-123007380D01*
X151330476Y-123007380D01*
X151425714Y-122959761D01*
X151473333Y-122912142D01*
X151520952Y-122816904D01*
X151520952Y-122721666D01*
X151473333Y-122626428D01*
X151425714Y-122578809D01*
X151330476Y-122531190D01*
X151140000Y-122483571D01*
X151044761Y-122435952D01*
X150997142Y-122388333D01*
X150949523Y-122293095D01*
X150949523Y-122197857D01*
X150997142Y-122102619D01*
X151044761Y-122055000D01*
X151140000Y-122007380D01*
X151378095Y-122007380D01*
X151520952Y-122055000D01*
X151806666Y-122007380D02*
X152378095Y-122007380D01*
X152092380Y-123007380D02*
X152092380Y-122007380D01*
X152901904Y-122007380D02*
X153092380Y-122007380D01*
X153187619Y-122055000D01*
X153282857Y-122150238D01*
X153330476Y-122340714D01*
X153330476Y-122674047D01*
X153282857Y-122864523D01*
X153187619Y-122959761D01*
X153092380Y-123007380D01*
X152901904Y-123007380D01*
X152806666Y-122959761D01*
X152711428Y-122864523D01*
X152663809Y-122674047D01*
X152663809Y-122340714D01*
X152711428Y-122150238D01*
X152806666Y-122055000D01*
X152901904Y-122007380D01*
X153759047Y-123007380D02*
X153759047Y-122007380D01*
X154140000Y-122007380D01*
X154235238Y-122055000D01*
X154282857Y-122102619D01*
X154330476Y-122197857D01*
X154330476Y-122340714D01*
X154282857Y-122435952D01*
X154235238Y-122483571D01*
X154140000Y-122531190D01*
X153759047Y-122531190D01*
X152026666Y-111752380D02*
X152026666Y-112466666D01*
X151979047Y-112609523D01*
X151883809Y-112704761D01*
X151740952Y-112752380D01*
X151645714Y-112752380D01*
X152979047Y-111752380D02*
X152502857Y-111752380D01*
X152455238Y-112228571D01*
X152502857Y-112180952D01*
X152598095Y-112133333D01*
X152836190Y-112133333D01*
X152931428Y-112180952D01*
X152979047Y-112228571D01*
X153026666Y-112323809D01*
X153026666Y-112561904D01*
X152979047Y-112657142D01*
X152931428Y-112704761D01*
X152836190Y-112752380D01*
X152598095Y-112752380D01*
X152502857Y-112704761D01*
X152455238Y-112657142D01*
%TO.C,J4*%
X122533333Y-122502380D02*
X122533333Y-121502380D01*
X123104761Y-122502380D02*
X122676190Y-121930952D01*
X123104761Y-121502380D02*
X122533333Y-122073809D01*
X123961904Y-121835714D02*
X123961904Y-122502380D01*
X123723809Y-121454761D02*
X123485714Y-122169047D01*
X124104761Y-122169047D01*
X124247619Y-122597619D02*
X125009523Y-122597619D01*
X125247619Y-122502380D02*
X125247619Y-121502380D01*
X125819047Y-122502380D01*
X125819047Y-121502380D01*
X126485714Y-121502380D02*
X126676190Y-121502380D01*
X126771428Y-121550000D01*
X126866666Y-121645238D01*
X126914285Y-121835714D01*
X126914285Y-122169047D01*
X126866666Y-122359523D01*
X126771428Y-122454761D01*
X126676190Y-122502380D01*
X126485714Y-122502380D01*
X126390476Y-122454761D01*
X126295238Y-122359523D01*
X126247619Y-122169047D01*
X126247619Y-121835714D01*
X126295238Y-121645238D01*
X126390476Y-121550000D01*
X126485714Y-121502380D01*
X124086666Y-111752380D02*
X124086666Y-112466666D01*
X124039047Y-112609523D01*
X123943809Y-112704761D01*
X123800952Y-112752380D01*
X123705714Y-112752380D01*
X124991428Y-112085714D02*
X124991428Y-112752380D01*
X124753333Y-111704761D02*
X124515238Y-112419047D01*
X125134285Y-112419047D01*
%TO.C,J2*%
X175175714Y-109440000D02*
X176175714Y-109440000D01*
X175223333Y-109440000D02*
X175175714Y-109344761D01*
X175175714Y-109154285D01*
X175223333Y-109059047D01*
X175270952Y-109011428D01*
X175366190Y-108963809D01*
X175651904Y-108963809D01*
X175747142Y-109011428D01*
X175794761Y-109059047D01*
X175842380Y-109154285D01*
X175842380Y-109344761D01*
X175794761Y-109440000D01*
X175842380Y-108535238D02*
X175175714Y-108535238D01*
X174842380Y-108535238D02*
X174890000Y-108582857D01*
X174937619Y-108535238D01*
X174890000Y-108487619D01*
X174842380Y-108535238D01*
X174937619Y-108535238D01*
X175842380Y-107916190D02*
X175794761Y-108011428D01*
X175699523Y-108059047D01*
X174842380Y-108059047D01*
X175842380Y-107392380D02*
X175794761Y-107487619D01*
X175747142Y-107535238D01*
X175651904Y-107582857D01*
X175366190Y-107582857D01*
X175270952Y-107535238D01*
X175223333Y-107487619D01*
X175175714Y-107392380D01*
X175175714Y-107249523D01*
X175223333Y-107154285D01*
X175270952Y-107106666D01*
X175366190Y-107059047D01*
X175651904Y-107059047D01*
X175747142Y-107106666D01*
X175794761Y-107154285D01*
X175842380Y-107249523D01*
X175842380Y-107392380D01*
X175175714Y-106773333D02*
X175175714Y-106392380D01*
X174842380Y-106630476D02*
X175699523Y-106630476D01*
X175794761Y-106582857D01*
X175842380Y-106487619D01*
X175842380Y-106392380D01*
X175937619Y-106297142D02*
X175937619Y-105535238D01*
X175842380Y-104868571D02*
X174842380Y-104868571D01*
X175794761Y-104868571D02*
X175842380Y-104963809D01*
X175842380Y-105154285D01*
X175794761Y-105249523D01*
X175747142Y-105297142D01*
X175651904Y-105344761D01*
X175366190Y-105344761D01*
X175270952Y-105297142D01*
X175223333Y-105249523D01*
X175175714Y-105154285D01*
X175175714Y-104963809D01*
X175223333Y-104868571D01*
X175842380Y-104249523D02*
X175794761Y-104344761D01*
X175747142Y-104392380D01*
X175651904Y-104440000D01*
X175366190Y-104440000D01*
X175270952Y-104392380D01*
X175223333Y-104344761D01*
X175175714Y-104249523D01*
X175175714Y-104106666D01*
X175223333Y-104011428D01*
X175270952Y-103963809D01*
X175366190Y-103916190D01*
X175651904Y-103916190D01*
X175747142Y-103963809D01*
X175794761Y-104011428D01*
X175842380Y-104106666D01*
X175842380Y-104249523D01*
X175842380Y-103344761D02*
X175794761Y-103440000D01*
X175699523Y-103487619D01*
X174842380Y-103487619D01*
X165092380Y-107053333D02*
X165806666Y-107053333D01*
X165949523Y-107100952D01*
X166044761Y-107196190D01*
X166092380Y-107339047D01*
X166092380Y-107434285D01*
X165187619Y-106624761D02*
X165140000Y-106577142D01*
X165092380Y-106481904D01*
X165092380Y-106243809D01*
X165140000Y-106148571D01*
X165187619Y-106100952D01*
X165282857Y-106053333D01*
X165378095Y-106053333D01*
X165520952Y-106100952D01*
X166092380Y-106672380D01*
X166092380Y-106053333D01*
%TD*%
M02*
