M48
; DRILL file {KiCad (5.1.7)-1} date 07/10/21 18:44:38
; FORMAT={-:-/ absolute / inch / decimal}
; #@! TF.CreationDate,2021-07-10T18:44:38+02:00
; #@! TF.GenerationSoftware,Kicad,Pcbnew,(5.1.7)-1
; #@! TF.FileFunction,Plated,1,2,PTH
FMAT,2
INCH
T1C0.0300
T2C0.0520
%
G90
G05
T1
X4.3Y-2.55
X4.3Y-2.85
X4.6Y-2.55
X4.6Y-2.85
X4.8Y-2.55
X4.8Y-2.85
X5.0Y-2.55
X5.0Y-2.85
X4.3Y-3.1
X4.3Y-3.4
X4.6Y-3.1
X4.6Y-3.4
X4.8Y-3.1
X4.8Y-3.4
X5.0Y-3.1
X5.0Y-3.4
X5.3Y-2.55
X5.3Y-2.85
X5.6Y-2.55
X5.6Y-2.85
X5.8Y-2.55
X5.8Y-2.85
X6.0Y-2.55
X6.0Y-2.85
X4.3Y-3.7
X4.3Y-4.0
X4.6Y-3.7
X4.6Y-4.0
X4.8Y-3.7
X4.8Y-4.0
X5.0Y-3.7
X5.0Y-4.0
X5.3Y-3.1
X5.3Y-3.4
X5.6Y-3.1
X5.6Y-3.4
X5.8Y-3.1
X5.8Y-3.4
X6.0Y-3.1
X6.0Y-3.4
X5.3Y-3.7
X5.3Y-4.0
X5.6Y-3.7
X5.6Y-4.0
X5.8Y-3.7
X5.8Y-4.0
X6.0Y-3.7
X6.0Y-4.0
T2
X6.6Y-3.1031
X6.6Y-3.3
X5.9Y-4.5
X6.0969Y-4.5
X6.6Y-2.6031
X6.6Y-2.8
X6.6Y-4.1031
X6.6Y-4.3
X4.8Y-4.5
X4.9969Y-4.5
X6.6Y-3.6031
X6.6Y-3.8
X5.35Y-4.5
X5.5469Y-4.5
T0
M30
